%TF.GenerationSoftware,KiCad,Pcbnew,6.0.11-2627ca5db0~126~ubuntu20.04.1*%
%TF.CreationDate,2023-02-25T22:09:04+05:30*%
%TF.ProjectId,UPS_for_router,5550535f-666f-4725-9f72-6f757465722e,1*%
%TF.SameCoordinates,Original*%
%TF.FileFunction,Legend,Bot*%
%TF.FilePolarity,Positive*%
%FSLAX46Y46*%
G04 Gerber Fmt 4.6, Leading zero omitted, Abs format (unit mm)*
G04 Created by KiCad (PCBNEW 6.0.11-2627ca5db0~126~ubuntu20.04.1) date 2023-02-25 22:09:04*
%MOMM*%
%LPD*%
G01*
G04 APERTURE LIST*
G04 Aperture macros list*
%AMRoundRect*
0 Rectangle with rounded corners*
0 $1 Rounding radius*
0 $2 $3 $4 $5 $6 $7 $8 $9 X,Y pos of 4 corners*
0 Add a 4 corners polygon primitive as box body*
4,1,4,$2,$3,$4,$5,$6,$7,$8,$9,$2,$3,0*
0 Add four circle primitives for the rounded corners*
1,1,$1+$1,$2,$3*
1,1,$1+$1,$4,$5*
1,1,$1+$1,$6,$7*
1,1,$1+$1,$8,$9*
0 Add four rect primitives between the rounded corners*
20,1,$1+$1,$2,$3,$4,$5,0*
20,1,$1+$1,$4,$5,$6,$7,0*
20,1,$1+$1,$6,$7,$8,$9,0*
20,1,$1+$1,$8,$9,$2,$3,0*%
G04 Aperture macros list end*
%ADD10C,0.180000*%
%ADD11C,0.150000*%
%ADD12C,0.010000*%
%ADD13C,0.120000*%
%ADD14R,3.500000X3.500000*%
%ADD15RoundRect,0.750000X-0.750000X-1.000000X0.750000X-1.000000X0.750000X1.000000X-0.750000X1.000000X0*%
%ADD16RoundRect,0.875000X-0.875000X-0.875000X0.875000X-0.875000X0.875000X0.875000X-0.875000X0.875000X0*%
%ADD17R,2.200000X2.200000*%
%ADD18O,2.200000X2.200000*%
%ADD19RoundRect,0.750000X0.750000X1.000000X-0.750000X1.000000X-0.750000X-1.000000X0.750000X-1.000000X0*%
%ADD20RoundRect,0.875000X0.875000X0.875000X-0.875000X0.875000X-0.875000X-0.875000X0.875000X-0.875000X0*%
%ADD21R,1.600000X1.600000*%
%ADD22C,1.600000*%
%ADD23C,3.200000*%
%ADD24R,1.980000X3.960000*%
%ADD25O,1.980000X3.960000*%
%ADD26R,1.524000X1.524000*%
%ADD27R,2.000000X2.000000*%
%ADD28C,2.000000*%
%ADD29R,3.960000X1.980000*%
%ADD30O,3.960000X1.980000*%
%ADD31RoundRect,0.650000X0.650000X-0.650000X0.650000X0.650000X-0.650000X0.650000X-0.650000X-0.650000X0*%
%ADD32C,2.600000*%
%ADD33C,3.000000*%
%ADD34R,2.000000X1.905000*%
%ADD35O,2.000000X1.905000*%
G04 APERTURE END LIST*
D10*
X149989142Y-96499071D02*
X149989142Y-94999071D01*
X149632000Y-94999071D01*
X149417714Y-95070500D01*
X149274857Y-95213357D01*
X149203428Y-95356214D01*
X149132000Y-95641928D01*
X149132000Y-95856214D01*
X149203428Y-96141928D01*
X149274857Y-96284785D01*
X149417714Y-96427642D01*
X149632000Y-96499071D01*
X149989142Y-96499071D01*
X147917714Y-96427642D02*
X148060571Y-96499071D01*
X148346285Y-96499071D01*
X148489142Y-96427642D01*
X148560571Y-96284785D01*
X148560571Y-95713357D01*
X148489142Y-95570500D01*
X148346285Y-95499071D01*
X148060571Y-95499071D01*
X147917714Y-95570500D01*
X147846285Y-95713357D01*
X147846285Y-95856214D01*
X148560571Y-95999071D01*
X147274857Y-96427642D02*
X147132000Y-96499071D01*
X146846285Y-96499071D01*
X146703428Y-96427642D01*
X146632000Y-96284785D01*
X146632000Y-96213357D01*
X146703428Y-96070500D01*
X146846285Y-95999071D01*
X147060571Y-95999071D01*
X147203428Y-95927642D01*
X147274857Y-95784785D01*
X147274857Y-95713357D01*
X147203428Y-95570500D01*
X147060571Y-95499071D01*
X146846285Y-95499071D01*
X146703428Y-95570500D01*
X145989142Y-96499071D02*
X145989142Y-95499071D01*
X145989142Y-94999071D02*
X146060571Y-95070500D01*
X145989142Y-95141928D01*
X145917714Y-95070500D01*
X145989142Y-94999071D01*
X145989142Y-95141928D01*
X144632000Y-95499071D02*
X144632000Y-96713357D01*
X144703428Y-96856214D01*
X144774857Y-96927642D01*
X144917714Y-96999071D01*
X145132000Y-96999071D01*
X145274857Y-96927642D01*
X144632000Y-96427642D02*
X144774857Y-96499071D01*
X145060571Y-96499071D01*
X145203428Y-96427642D01*
X145274857Y-96356214D01*
X145346285Y-96213357D01*
X145346285Y-95784785D01*
X145274857Y-95641928D01*
X145203428Y-95570500D01*
X145060571Y-95499071D01*
X144774857Y-95499071D01*
X144632000Y-95570500D01*
X143917714Y-95499071D02*
X143917714Y-96499071D01*
X143917714Y-95641928D02*
X143846285Y-95570500D01*
X143703428Y-95499071D01*
X143489142Y-95499071D01*
X143346285Y-95570500D01*
X143274857Y-95713357D01*
X143274857Y-96499071D01*
X141989142Y-96427642D02*
X142132000Y-96499071D01*
X142417714Y-96499071D01*
X142560571Y-96427642D01*
X142632000Y-96284785D01*
X142632000Y-95713357D01*
X142560571Y-95570500D01*
X142417714Y-95499071D01*
X142132000Y-95499071D01*
X141989142Y-95570500D01*
X141917714Y-95713357D01*
X141917714Y-95856214D01*
X142632000Y-95999071D01*
X140632000Y-96499071D02*
X140632000Y-94999071D01*
X140632000Y-96427642D02*
X140774857Y-96499071D01*
X141060571Y-96499071D01*
X141203428Y-96427642D01*
X141274857Y-96356214D01*
X141346285Y-96213357D01*
X141346285Y-95784785D01*
X141274857Y-95641928D01*
X141203428Y-95570500D01*
X141060571Y-95499071D01*
X140774857Y-95499071D01*
X140632000Y-95570500D01*
X138774857Y-96499071D02*
X138774857Y-94999071D01*
X138774857Y-95570500D02*
X138632000Y-95499071D01*
X138346285Y-95499071D01*
X138203428Y-95570500D01*
X138132000Y-95641928D01*
X138060571Y-95784785D01*
X138060571Y-96213357D01*
X138132000Y-96356214D01*
X138203428Y-96427642D01*
X138346285Y-96499071D01*
X138632000Y-96499071D01*
X138774857Y-96427642D01*
X137560571Y-95499071D02*
X137203428Y-96499071D01*
X136846285Y-95499071D02*
X137203428Y-96499071D01*
X137346285Y-96856214D01*
X137417714Y-96927642D01*
X137560571Y-96999071D01*
X136274857Y-96356214D02*
X136203428Y-96427642D01*
X136274857Y-96499071D01*
X136346285Y-96427642D01*
X136274857Y-96356214D01*
X136274857Y-96499071D01*
X136274857Y-95570500D02*
X136203428Y-95641928D01*
X136274857Y-95713357D01*
X136346285Y-95641928D01*
X136274857Y-95570500D01*
X136274857Y-95713357D01*
X133917714Y-95713357D02*
X134417714Y-95713357D01*
X134417714Y-96499071D02*
X134417714Y-94999071D01*
X133703428Y-94999071D01*
X132489142Y-96499071D02*
X132489142Y-95713357D01*
X132560571Y-95570500D01*
X132703428Y-95499071D01*
X132989142Y-95499071D01*
X133132000Y-95570500D01*
X132489142Y-96427642D02*
X132632000Y-96499071D01*
X132989142Y-96499071D01*
X133132000Y-96427642D01*
X133203428Y-96284785D01*
X133203428Y-96141928D01*
X133132000Y-95999071D01*
X132989142Y-95927642D01*
X132632000Y-95927642D01*
X132489142Y-95856214D01*
X131774857Y-96499071D02*
X131774857Y-95499071D01*
X131774857Y-95784785D02*
X131703428Y-95641928D01*
X131632000Y-95570500D01*
X131489142Y-95499071D01*
X131346285Y-95499071D01*
X130846285Y-96499071D02*
X130846285Y-94999071D01*
X130203428Y-96499071D02*
X130203428Y-95713357D01*
X130274857Y-95570500D01*
X130417714Y-95499071D01*
X130632000Y-95499071D01*
X130774857Y-95570500D01*
X130846285Y-95641928D01*
X128846285Y-96499071D02*
X128846285Y-95713357D01*
X128917714Y-95570500D01*
X129060571Y-95499071D01*
X129346285Y-95499071D01*
X129489142Y-95570500D01*
X128846285Y-96427642D02*
X128989142Y-96499071D01*
X129346285Y-96499071D01*
X129489142Y-96427642D01*
X129560571Y-96284785D01*
X129560571Y-96141928D01*
X129489142Y-95999071D01*
X129346285Y-95927642D01*
X128989142Y-95927642D01*
X128846285Y-95856214D01*
X128132000Y-95499071D02*
X128132000Y-96499071D01*
X128132000Y-95641928D02*
X128060571Y-95570500D01*
X127917714Y-95499071D01*
X127703428Y-95499071D01*
X127560571Y-95570500D01*
X127489142Y-95713357D01*
X127489142Y-96499071D01*
X125632000Y-96499071D02*
X125632000Y-94999071D01*
X124774857Y-96499071D02*
X125417714Y-95641928D01*
X124774857Y-94999071D02*
X125632000Y-95856214D01*
X124132000Y-96499071D02*
X124132000Y-94999071D01*
X123489142Y-96499071D02*
X123489142Y-95713357D01*
X123560571Y-95570500D01*
X123703428Y-95499071D01*
X123917714Y-95499071D01*
X124060571Y-95570500D01*
X124132000Y-95641928D01*
X122132000Y-96499071D02*
X122132000Y-95713357D01*
X122203428Y-95570500D01*
X122346285Y-95499071D01*
X122632000Y-95499071D01*
X122774857Y-95570500D01*
X122132000Y-96427642D02*
X122274857Y-96499071D01*
X122632000Y-96499071D01*
X122774857Y-96427642D01*
X122846285Y-96284785D01*
X122846285Y-96141928D01*
X122774857Y-95999071D01*
X122632000Y-95927642D01*
X122274857Y-95927642D01*
X122132000Y-95856214D01*
X121417714Y-95499071D02*
X121417714Y-96499071D01*
X121417714Y-95641928D02*
X121346285Y-95570500D01*
X121203428Y-95499071D01*
X120989142Y-95499071D01*
X120846285Y-95570500D01*
X120774857Y-95713357D01*
X120774857Y-96499071D01*
X155489142Y-97485500D02*
X155632000Y-97414071D01*
X155846285Y-97414071D01*
X156060571Y-97485500D01*
X156203428Y-97628357D01*
X156274857Y-97771214D01*
X156346285Y-98056928D01*
X156346285Y-98271214D01*
X156274857Y-98556928D01*
X156203428Y-98699785D01*
X156060571Y-98842642D01*
X155846285Y-98914071D01*
X155703428Y-98914071D01*
X155489142Y-98842642D01*
X155417714Y-98771214D01*
X155417714Y-98271214D01*
X155703428Y-98271214D01*
X154774857Y-98914071D02*
X154774857Y-97914071D01*
X154774857Y-97414071D02*
X154846285Y-97485500D01*
X154774857Y-97556928D01*
X154703428Y-97485500D01*
X154774857Y-97414071D01*
X154774857Y-97556928D01*
X154274857Y-97914071D02*
X153703428Y-97914071D01*
X154060571Y-97414071D02*
X154060571Y-98699785D01*
X153989142Y-98842642D01*
X153846285Y-98914071D01*
X153703428Y-98914071D01*
X153203428Y-98914071D02*
X153203428Y-97414071D01*
X152560571Y-98914071D02*
X152560571Y-98128357D01*
X152632000Y-97985500D01*
X152774857Y-97914071D01*
X152989142Y-97914071D01*
X153132000Y-97985500D01*
X153203428Y-98056928D01*
X151203428Y-97914071D02*
X151203428Y-98914071D01*
X151846285Y-97914071D02*
X151846285Y-98699785D01*
X151774857Y-98842642D01*
X151632000Y-98914071D01*
X151417714Y-98914071D01*
X151274857Y-98842642D01*
X151203428Y-98771214D01*
X150489142Y-98914071D02*
X150489142Y-97414071D01*
X150489142Y-97985500D02*
X150346285Y-97914071D01*
X150060571Y-97914071D01*
X149917714Y-97985500D01*
X149846285Y-98056928D01*
X149774857Y-98199785D01*
X149774857Y-98628357D01*
X149846285Y-98771214D01*
X149917714Y-98842642D01*
X150060571Y-98914071D01*
X150346285Y-98914071D01*
X150489142Y-98842642D01*
X149132000Y-98771214D02*
X149060571Y-98842642D01*
X149132000Y-98914071D01*
X149203428Y-98842642D01*
X149132000Y-98771214D01*
X149132000Y-98914071D01*
X149132000Y-97985500D02*
X149060571Y-98056928D01*
X149132000Y-98128357D01*
X149203428Y-98056928D01*
X149132000Y-97985500D01*
X149132000Y-98128357D01*
X147274857Y-98914071D02*
X147274857Y-97414071D01*
X146632000Y-98914071D02*
X146632000Y-98128357D01*
X146703428Y-97985500D01*
X146846285Y-97914071D01*
X147060571Y-97914071D01*
X147203428Y-97985500D01*
X147274857Y-98056928D01*
X146132000Y-97914071D02*
X145560571Y-97914071D01*
X145917714Y-97414071D02*
X145917714Y-98699785D01*
X145846285Y-98842642D01*
X145703428Y-98914071D01*
X145560571Y-98914071D01*
X145274857Y-97914071D02*
X144703428Y-97914071D01*
X145060571Y-97414071D02*
X145060571Y-98699785D01*
X144989142Y-98842642D01*
X144846285Y-98914071D01*
X144703428Y-98914071D01*
X144203428Y-97914071D02*
X144203428Y-99414071D01*
X144203428Y-97985500D02*
X144060571Y-97914071D01*
X143774857Y-97914071D01*
X143632000Y-97985500D01*
X143560571Y-98056928D01*
X143489142Y-98199785D01*
X143489142Y-98628357D01*
X143560571Y-98771214D01*
X143632000Y-98842642D01*
X143774857Y-98914071D01*
X144060571Y-98914071D01*
X144203428Y-98842642D01*
X142917714Y-98842642D02*
X142774857Y-98914071D01*
X142489142Y-98914071D01*
X142346285Y-98842642D01*
X142274857Y-98699785D01*
X142274857Y-98628357D01*
X142346285Y-98485500D01*
X142489142Y-98414071D01*
X142703428Y-98414071D01*
X142846285Y-98342642D01*
X142917714Y-98199785D01*
X142917714Y-98128357D01*
X142846285Y-97985500D01*
X142703428Y-97914071D01*
X142489142Y-97914071D01*
X142346285Y-97985500D01*
X141632000Y-98771214D02*
X141560571Y-98842642D01*
X141632000Y-98914071D01*
X141703428Y-98842642D01*
X141632000Y-98771214D01*
X141632000Y-98914071D01*
X141632000Y-97985500D02*
X141560571Y-98056928D01*
X141632000Y-98128357D01*
X141703428Y-98056928D01*
X141632000Y-97985500D01*
X141632000Y-98128357D01*
X139846285Y-97342642D02*
X141132000Y-99271214D01*
X138274857Y-97342642D02*
X139560571Y-99271214D01*
X137132000Y-97914071D02*
X137132000Y-99128357D01*
X137203428Y-99271214D01*
X137274857Y-99342642D01*
X137417714Y-99414071D01*
X137632000Y-99414071D01*
X137774857Y-99342642D01*
X137132000Y-98842642D02*
X137274857Y-98914071D01*
X137560571Y-98914071D01*
X137703428Y-98842642D01*
X137774857Y-98771214D01*
X137846285Y-98628357D01*
X137846285Y-98199785D01*
X137774857Y-98056928D01*
X137703428Y-97985500D01*
X137560571Y-97914071D01*
X137274857Y-97914071D01*
X137132000Y-97985500D01*
X136417714Y-98914071D02*
X136417714Y-97914071D01*
X136417714Y-97414071D02*
X136489142Y-97485500D01*
X136417714Y-97556928D01*
X136346285Y-97485500D01*
X136417714Y-97414071D01*
X136417714Y-97556928D01*
X135917714Y-97914071D02*
X135346285Y-97914071D01*
X135703428Y-97414071D02*
X135703428Y-98699785D01*
X135632000Y-98842642D01*
X135489142Y-98914071D01*
X135346285Y-98914071D01*
X134846285Y-98914071D02*
X134846285Y-97414071D01*
X134203428Y-98914071D02*
X134203428Y-98128357D01*
X134274857Y-97985500D01*
X134417714Y-97914071D01*
X134632000Y-97914071D01*
X134774857Y-97985500D01*
X134846285Y-98056928D01*
X132846285Y-97914071D02*
X132846285Y-98914071D01*
X133489142Y-97914071D02*
X133489142Y-98699785D01*
X133417714Y-98842642D01*
X133274857Y-98914071D01*
X133060571Y-98914071D01*
X132917714Y-98842642D01*
X132846285Y-98771214D01*
X132131999Y-98914071D02*
X132131999Y-97414071D01*
X132131999Y-97985500D02*
X131989142Y-97914071D01*
X131703428Y-97914071D01*
X131560571Y-97985500D01*
X131489142Y-98056928D01*
X131417714Y-98199785D01*
X131417714Y-98628357D01*
X131489142Y-98771214D01*
X131560571Y-98842642D01*
X131703428Y-98914071D01*
X131989142Y-98914071D01*
X132131999Y-98842642D01*
X130774857Y-98771214D02*
X130703428Y-98842642D01*
X130774857Y-98914071D01*
X130846285Y-98842642D01*
X130774857Y-98771214D01*
X130774857Y-98914071D01*
X129417714Y-98842642D02*
X129560571Y-98914071D01*
X129846285Y-98914071D01*
X129989142Y-98842642D01*
X130060571Y-98771214D01*
X130131999Y-98628357D01*
X130131999Y-98199785D01*
X130060571Y-98056928D01*
X129989142Y-97985500D01*
X129846285Y-97914071D01*
X129560571Y-97914071D01*
X129417714Y-97985500D01*
X128560571Y-98914071D02*
X128703428Y-98842642D01*
X128774857Y-98771214D01*
X128846285Y-98628357D01*
X128846285Y-98199785D01*
X128774857Y-98056928D01*
X128703428Y-97985500D01*
X128560571Y-97914071D01*
X128346285Y-97914071D01*
X128203428Y-97985500D01*
X128131999Y-98056928D01*
X128060571Y-98199785D01*
X128060571Y-98628357D01*
X128131999Y-98771214D01*
X128203428Y-98842642D01*
X128346285Y-98914071D01*
X128560571Y-98914071D01*
X127417714Y-98914071D02*
X127417714Y-97914071D01*
X127417714Y-98056928D02*
X127346285Y-97985500D01*
X127203428Y-97914071D01*
X126989142Y-97914071D01*
X126846285Y-97985500D01*
X126774857Y-98128357D01*
X126774857Y-98914071D01*
X126774857Y-98128357D02*
X126703428Y-97985500D01*
X126560571Y-97914071D01*
X126346285Y-97914071D01*
X126203428Y-97985500D01*
X126131999Y-98128357D01*
X126131999Y-98914071D01*
X124346285Y-97342642D02*
X125631999Y-99271214D01*
X123560571Y-97414071D02*
X123274857Y-97414071D01*
X123131999Y-97485500D01*
X122989142Y-97628357D01*
X122917714Y-97914071D01*
X122917714Y-98414071D01*
X122989142Y-98699785D01*
X123131999Y-98842642D01*
X123274857Y-98914071D01*
X123560571Y-98914071D01*
X123703428Y-98842642D01*
X123846285Y-98699785D01*
X123917714Y-98414071D01*
X123917714Y-97914071D01*
X123846285Y-97628357D01*
X123703428Y-97485500D01*
X123560571Y-97414071D01*
X122417714Y-97914071D02*
X121631999Y-97914071D01*
X122417714Y-98914071D01*
X121631999Y-98914071D01*
X120846285Y-98914071D02*
X120989142Y-98842642D01*
X121060571Y-98771214D01*
X121131999Y-98628357D01*
X121131999Y-98199785D01*
X121060571Y-98056928D01*
X120989142Y-97985500D01*
X120846285Y-97914071D01*
X120631999Y-97914071D01*
X120489142Y-97985500D01*
X120417714Y-98056928D01*
X120346285Y-98199785D01*
X120346285Y-98628357D01*
X120417714Y-98771214D01*
X120489142Y-98842642D01*
X120631999Y-98914071D01*
X120846285Y-98914071D01*
X119703428Y-97914071D02*
X119703428Y-98914071D01*
X119703428Y-98056928D02*
X119631999Y-97985500D01*
X119489142Y-97914071D01*
X119274857Y-97914071D01*
X119131999Y-97985500D01*
X119060571Y-98128357D01*
X119060571Y-98914071D01*
X118346285Y-98914071D02*
X118346285Y-97914071D01*
X118346285Y-97414071D02*
X118417714Y-97485500D01*
X118346285Y-97556928D01*
X118274857Y-97485500D01*
X118346285Y-97414071D01*
X118346285Y-97556928D01*
X117703428Y-98842642D02*
X117560571Y-98914071D01*
X117274857Y-98914071D01*
X117131999Y-98842642D01*
X117060571Y-98699785D01*
X117060571Y-98628357D01*
X117131999Y-98485500D01*
X117274857Y-98414071D01*
X117489142Y-98414071D01*
X117631999Y-98342642D01*
X117703428Y-98199785D01*
X117703428Y-98128357D01*
X117631999Y-97985500D01*
X117489142Y-97914071D01*
X117274857Y-97914071D01*
X117131999Y-97985500D01*
X115846285Y-98842642D02*
X115989142Y-98914071D01*
X116274857Y-98914071D01*
X116417714Y-98842642D01*
X116489142Y-98699785D01*
X116489142Y-98128357D01*
X116417714Y-97985500D01*
X116274857Y-97914071D01*
X115989142Y-97914071D01*
X115846285Y-97985500D01*
X115774857Y-98128357D01*
X115774857Y-98271214D01*
X116489142Y-98414071D01*
X114489142Y-98914071D02*
X114489142Y-97414071D01*
X114489142Y-98842642D02*
X114631999Y-98914071D01*
X114917714Y-98914071D01*
X115060571Y-98842642D01*
X115131999Y-98771214D01*
X115203428Y-98628357D01*
X115203428Y-98199785D01*
X115131999Y-98056928D01*
X115060571Y-97985500D01*
X114917714Y-97914071D01*
X114631999Y-97914071D01*
X114489142Y-97985500D01*
D11*
X119879904Y-82510380D02*
X119308476Y-82510380D01*
X119594190Y-83510380D02*
X119594190Y-82510380D01*
X118975142Y-83510380D02*
X118975142Y-82510380D01*
X118594190Y-82510380D01*
X118498952Y-82558000D01*
X118451333Y-82605619D01*
X118403714Y-82700857D01*
X118403714Y-82843714D01*
X118451333Y-82938952D01*
X118498952Y-82986571D01*
X118594190Y-83034190D01*
X118975142Y-83034190D01*
X118022761Y-82605619D02*
X117975142Y-82558000D01*
X117879904Y-82510380D01*
X117641809Y-82510380D01*
X117546571Y-82558000D01*
X117498952Y-82605619D01*
X117451333Y-82700857D01*
X117451333Y-82796095D01*
X117498952Y-82938952D01*
X118070380Y-83510380D01*
X117451333Y-83510380D01*
X119879904Y-79462380D02*
X119308476Y-79462380D01*
X119594190Y-80462380D02*
X119594190Y-79462380D01*
X118975142Y-80462380D02*
X118975142Y-79462380D01*
X118594190Y-79462380D01*
X118498952Y-79510000D01*
X118451333Y-79557619D01*
X118403714Y-79652857D01*
X118403714Y-79795714D01*
X118451333Y-79890952D01*
X118498952Y-79938571D01*
X118594190Y-79986190D01*
X118975142Y-79986190D01*
X117451333Y-80462380D02*
X118022761Y-80462380D01*
X117737047Y-80462380D02*
X117737047Y-79462380D01*
X117832285Y-79605238D01*
X117927523Y-79700476D01*
X118022761Y-79748095D01*
G36*
X129434372Y-90719684D02*
G01*
X129525629Y-90762569D01*
X129600416Y-90836729D01*
X129615917Y-90859944D01*
X129628774Y-90886256D01*
X129637893Y-90919420D01*
X129644102Y-90965881D01*
X129648233Y-91032082D01*
X129651116Y-91124468D01*
X129653579Y-91249485D01*
X129659697Y-91596278D01*
X129608303Y-91576738D01*
X129561246Y-91558787D01*
X129526015Y-91541511D01*
X129503017Y-91519242D01*
X129489655Y-91485165D01*
X129483328Y-91432463D01*
X129481437Y-91354323D01*
X129481385Y-91243928D01*
X129481117Y-91155935D01*
X129479521Y-91071502D01*
X129475712Y-91013834D01*
X129468820Y-90975988D01*
X129457975Y-90951024D01*
X129442308Y-90932000D01*
X129403792Y-90905153D01*
X129339091Y-90895034D01*
X129275081Y-90920606D01*
X129270856Y-90923880D01*
X129257689Y-90939007D01*
X129247975Y-90963268D01*
X129240903Y-91002650D01*
X129235656Y-91063141D01*
X129231421Y-91150729D01*
X129227385Y-91271402D01*
X129217615Y-91594515D01*
X129051539Y-91520065D01*
X129051539Y-91225062D01*
X129051883Y-91144919D01*
X129054847Y-91033431D01*
X129062351Y-90950421D01*
X129076190Y-90889199D01*
X129098155Y-90843075D01*
X129130039Y-90805358D01*
X129173633Y-90769358D01*
X129236336Y-90733089D01*
X129335117Y-90709412D01*
X129434372Y-90719684D01*
G37*
D12*
X129434372Y-90719684D02*
X129525629Y-90762569D01*
X129600416Y-90836729D01*
X129615917Y-90859944D01*
X129628774Y-90886256D01*
X129637893Y-90919420D01*
X129644102Y-90965881D01*
X129648233Y-91032082D01*
X129651116Y-91124468D01*
X129653579Y-91249485D01*
X129659697Y-91596278D01*
X129608303Y-91576738D01*
X129561246Y-91558787D01*
X129526015Y-91541511D01*
X129503017Y-91519242D01*
X129489655Y-91485165D01*
X129483328Y-91432463D01*
X129481437Y-91354323D01*
X129481385Y-91243928D01*
X129481117Y-91155935D01*
X129479521Y-91071502D01*
X129475712Y-91013834D01*
X129468820Y-90975988D01*
X129457975Y-90951024D01*
X129442308Y-90932000D01*
X129403792Y-90905153D01*
X129339091Y-90895034D01*
X129275081Y-90920606D01*
X129270856Y-90923880D01*
X129257689Y-90939007D01*
X129247975Y-90963268D01*
X129240903Y-91002650D01*
X129235656Y-91063141D01*
X129231421Y-91150729D01*
X129227385Y-91271402D01*
X129217615Y-91594515D01*
X129051539Y-91520065D01*
X129051539Y-91225062D01*
X129051883Y-91144919D01*
X129054847Y-91033431D01*
X129062351Y-90950421D01*
X129076190Y-90889199D01*
X129098155Y-90843075D01*
X129130039Y-90805358D01*
X129173633Y-90769358D01*
X129236336Y-90733089D01*
X129335117Y-90709412D01*
X129434372Y-90719684D01*
G36*
X126470839Y-91242652D02*
G01*
X126459810Y-91346507D01*
X126435814Y-91424333D01*
X126396043Y-91483760D01*
X126337688Y-91532418D01*
X126282100Y-91560546D01*
X126188751Y-91576199D01*
X126095530Y-91559084D01*
X126011272Y-91511388D01*
X125944818Y-91435294D01*
X125936793Y-91421262D01*
X125926196Y-91396679D01*
X125918335Y-91365309D01*
X125912807Y-91321769D01*
X125909206Y-91260678D01*
X125907128Y-91176655D01*
X125907064Y-91169200D01*
X126042615Y-91169200D01*
X126043077Y-91240316D01*
X126045999Y-91304641D01*
X126053221Y-91346166D01*
X126066561Y-91374067D01*
X126087836Y-91397517D01*
X126092821Y-91402025D01*
X126156863Y-91435295D01*
X126224625Y-91431890D01*
X126287734Y-91392042D01*
X126306526Y-91371398D01*
X126322254Y-91344029D01*
X126331039Y-91306192D01*
X126334859Y-91248355D01*
X126335692Y-91160986D01*
X126335281Y-91094319D01*
X126332434Y-91029245D01*
X126325256Y-90987251D01*
X126311889Y-90959063D01*
X126290472Y-90935406D01*
X126277890Y-90924753D01*
X126212699Y-90896057D01*
X126144400Y-90900575D01*
X126085098Y-90938144D01*
X126072333Y-90953040D01*
X126056764Y-90981089D01*
X126047762Y-91020258D01*
X126043617Y-91079858D01*
X126042615Y-91169200D01*
X125907064Y-91169200D01*
X125906167Y-91064320D01*
X125905919Y-90918289D01*
X125905846Y-90464963D01*
X125969346Y-90491564D01*
X125986136Y-90498845D01*
X126012859Y-90515287D01*
X126028156Y-90540187D01*
X126036563Y-90583732D01*
X126042615Y-90656106D01*
X126048144Y-90721089D01*
X126055450Y-90763750D01*
X126065918Y-90779670D01*
X126081692Y-90775400D01*
X126121890Y-90760397D01*
X126193728Y-90756678D01*
X126271010Y-90770572D01*
X126337688Y-90800505D01*
X126374371Y-90828211D01*
X126421472Y-90882269D01*
X126451638Y-90951577D01*
X126467678Y-91043765D01*
X126472191Y-91160986D01*
X126472401Y-91166462D01*
X126470839Y-91242652D01*
G37*
X126470839Y-91242652D02*
X126459810Y-91346507D01*
X126435814Y-91424333D01*
X126396043Y-91483760D01*
X126337688Y-91532418D01*
X126282100Y-91560546D01*
X126188751Y-91576199D01*
X126095530Y-91559084D01*
X126011272Y-91511388D01*
X125944818Y-91435294D01*
X125936793Y-91421262D01*
X125926196Y-91396679D01*
X125918335Y-91365309D01*
X125912807Y-91321769D01*
X125909206Y-91260678D01*
X125907128Y-91176655D01*
X125907064Y-91169200D01*
X126042615Y-91169200D01*
X126043077Y-91240316D01*
X126045999Y-91304641D01*
X126053221Y-91346166D01*
X126066561Y-91374067D01*
X126087836Y-91397517D01*
X126092821Y-91402025D01*
X126156863Y-91435295D01*
X126224625Y-91431890D01*
X126287734Y-91392042D01*
X126306526Y-91371398D01*
X126322254Y-91344029D01*
X126331039Y-91306192D01*
X126334859Y-91248355D01*
X126335692Y-91160986D01*
X126335281Y-91094319D01*
X126332434Y-91029245D01*
X126325256Y-90987251D01*
X126311889Y-90959063D01*
X126290472Y-90935406D01*
X126277890Y-90924753D01*
X126212699Y-90896057D01*
X126144400Y-90900575D01*
X126085098Y-90938144D01*
X126072333Y-90953040D01*
X126056764Y-90981089D01*
X126047762Y-91020258D01*
X126043617Y-91079858D01*
X126042615Y-91169200D01*
X125907064Y-91169200D01*
X125906167Y-91064320D01*
X125905919Y-90918289D01*
X125905846Y-90464963D01*
X125969346Y-90491564D01*
X125986136Y-90498845D01*
X126012859Y-90515287D01*
X126028156Y-90540187D01*
X126036563Y-90583732D01*
X126042615Y-90656106D01*
X126048144Y-90721089D01*
X126055450Y-90763750D01*
X126065918Y-90779670D01*
X126081692Y-90775400D01*
X126121890Y-90760397D01*
X126193728Y-90756678D01*
X126271010Y-90770572D01*
X126337688Y-90800505D01*
X126374371Y-90828211D01*
X126421472Y-90882269D01*
X126451638Y-90951577D01*
X126467678Y-91043765D01*
X126472191Y-91160986D01*
X126472401Y-91166462D01*
X126470839Y-91242652D01*
G36*
X128484923Y-90519806D02*
G01*
X128484923Y-91054455D01*
X128484660Y-91193094D01*
X128483958Y-91317805D01*
X128482883Y-91423557D01*
X128481500Y-91505322D01*
X128479874Y-91558069D01*
X128478070Y-91576769D01*
X128477364Y-91576706D01*
X128453387Y-91569912D01*
X128409685Y-91555320D01*
X128348154Y-91533870D01*
X128348154Y-91258617D01*
X128347763Y-91150466D01*
X128345946Y-91072026D01*
X128341767Y-91018647D01*
X128334286Y-90983256D01*
X128322567Y-90958779D01*
X128305671Y-90938144D01*
X128294152Y-90927170D01*
X128231864Y-90896775D01*
X128163211Y-90899466D01*
X128100298Y-90935406D01*
X128091139Y-90944325D01*
X128076471Y-90962844D01*
X128066433Y-90987326D01*
X128060151Y-91024393D01*
X128056748Y-91080667D01*
X128055349Y-91162771D01*
X128055077Y-91277329D01*
X128054947Y-91335430D01*
X128054099Y-91430993D01*
X128052594Y-91507526D01*
X128050585Y-91558345D01*
X128048223Y-91576769D01*
X128047518Y-91576706D01*
X128023541Y-91569912D01*
X127979839Y-91555320D01*
X127918308Y-91533870D01*
X127918338Y-91257358D01*
X127918384Y-91232742D01*
X127920970Y-91104419D01*
X127928913Y-91007384D01*
X127944155Y-90935057D01*
X127968636Y-90880855D01*
X128004298Y-90838198D01*
X128053082Y-90800505D01*
X128100661Y-90776910D01*
X128176732Y-90758672D01*
X128251556Y-90757636D01*
X128309077Y-90775378D01*
X128313402Y-90777829D01*
X128326738Y-90777566D01*
X128335851Y-90757039D01*
X128342428Y-90709980D01*
X128348154Y-90630120D01*
X128357923Y-90466236D01*
X128484923Y-90519806D01*
G37*
X128484923Y-90519806D02*
X128484923Y-91054455D01*
X128484660Y-91193094D01*
X128483958Y-91317805D01*
X128482883Y-91423557D01*
X128481500Y-91505322D01*
X128479874Y-91558069D01*
X128478070Y-91576769D01*
X128477364Y-91576706D01*
X128453387Y-91569912D01*
X128409685Y-91555320D01*
X128348154Y-91533870D01*
X128348154Y-91258617D01*
X128347763Y-91150466D01*
X128345946Y-91072026D01*
X128341767Y-91018647D01*
X128334286Y-90983256D01*
X128322567Y-90958779D01*
X128305671Y-90938144D01*
X128294152Y-90927170D01*
X128231864Y-90896775D01*
X128163211Y-90899466D01*
X128100298Y-90935406D01*
X128091139Y-90944325D01*
X128076471Y-90962844D01*
X128066433Y-90987326D01*
X128060151Y-91024393D01*
X128056748Y-91080667D01*
X128055349Y-91162771D01*
X128055077Y-91277329D01*
X128054947Y-91335430D01*
X128054099Y-91430993D01*
X128052594Y-91507526D01*
X128050585Y-91558345D01*
X128048223Y-91576769D01*
X128047518Y-91576706D01*
X128023541Y-91569912D01*
X127979839Y-91555320D01*
X127918308Y-91533870D01*
X127918338Y-91257358D01*
X127918384Y-91232742D01*
X127920970Y-91104419D01*
X127928913Y-91007384D01*
X127944155Y-90935057D01*
X127968636Y-90880855D01*
X128004298Y-90838198D01*
X128053082Y-90800505D01*
X128100661Y-90776910D01*
X128176732Y-90758672D01*
X128251556Y-90757636D01*
X128309077Y-90775378D01*
X128313402Y-90777829D01*
X128326738Y-90777566D01*
X128335851Y-90757039D01*
X128342428Y-90709980D01*
X128348154Y-90630120D01*
X128357923Y-90466236D01*
X128484923Y-90519806D01*
G36*
X127628458Y-90777228D02*
G01*
X127695622Y-90816389D01*
X127725169Y-90846902D01*
X127781948Y-90938110D01*
X127801077Y-91037548D01*
X127801077Y-91105960D01*
X127738191Y-91079518D01*
X127694700Y-91052837D01*
X127660426Y-90997446D01*
X127656907Y-90986024D01*
X127619028Y-90927838D01*
X127561936Y-90896407D01*
X127496383Y-90895058D01*
X127433117Y-90927116D01*
X127423672Y-90935383D01*
X127392087Y-90971311D01*
X127386871Y-91002635D01*
X127410765Y-91033391D01*
X127466510Y-91067617D01*
X127556846Y-91109350D01*
X127562956Y-91111993D01*
X127663241Y-91158755D01*
X127731735Y-91200181D01*
X127773899Y-91241542D01*
X127795193Y-91288111D01*
X127801077Y-91345160D01*
X127793366Y-91408408D01*
X127754430Y-91489364D01*
X127685932Y-91547522D01*
X127636388Y-91564983D01*
X127566469Y-91574537D01*
X127498575Y-91572496D01*
X127450093Y-91558082D01*
X127444943Y-91554493D01*
X127431267Y-91529416D01*
X127440757Y-91485218D01*
X127457246Y-91450527D01*
X127483687Y-91436084D01*
X127533834Y-91436803D01*
X127603453Y-91432660D01*
X127648943Y-91404054D01*
X127664308Y-91351104D01*
X127664294Y-91349582D01*
X127654983Y-91318845D01*
X127623311Y-91290643D01*
X127561731Y-91258136D01*
X127477986Y-91218998D01*
X127422518Y-91197706D01*
X127390497Y-91199079D01*
X127375534Y-91227203D01*
X127371242Y-91286170D01*
X127371231Y-91380068D01*
X127370752Y-91438031D01*
X127368556Y-91509612D01*
X127364986Y-91558606D01*
X127360491Y-91576769D01*
X127359290Y-91576646D01*
X127333319Y-91566802D01*
X127290305Y-91546028D01*
X127230859Y-91515287D01*
X127237923Y-91238298D01*
X127238414Y-91219928D01*
X127244025Y-91090992D01*
X127253938Y-90993814D01*
X127270175Y-90921925D01*
X127294759Y-90868852D01*
X127329715Y-90828127D01*
X127377064Y-90793279D01*
X127377940Y-90792733D01*
X127454499Y-90764303D01*
X127543044Y-90759500D01*
X127628458Y-90777228D01*
G37*
X127628458Y-90777228D02*
X127695622Y-90816389D01*
X127725169Y-90846902D01*
X127781948Y-90938110D01*
X127801077Y-91037548D01*
X127801077Y-91105960D01*
X127738191Y-91079518D01*
X127694700Y-91052837D01*
X127660426Y-90997446D01*
X127656907Y-90986024D01*
X127619028Y-90927838D01*
X127561936Y-90896407D01*
X127496383Y-90895058D01*
X127433117Y-90927116D01*
X127423672Y-90935383D01*
X127392087Y-90971311D01*
X127386871Y-91002635D01*
X127410765Y-91033391D01*
X127466510Y-91067617D01*
X127556846Y-91109350D01*
X127562956Y-91111993D01*
X127663241Y-91158755D01*
X127731735Y-91200181D01*
X127773899Y-91241542D01*
X127795193Y-91288111D01*
X127801077Y-91345160D01*
X127793366Y-91408408D01*
X127754430Y-91489364D01*
X127685932Y-91547522D01*
X127636388Y-91564983D01*
X127566469Y-91574537D01*
X127498575Y-91572496D01*
X127450093Y-91558082D01*
X127444943Y-91554493D01*
X127431267Y-91529416D01*
X127440757Y-91485218D01*
X127457246Y-91450527D01*
X127483687Y-91436084D01*
X127533834Y-91436803D01*
X127603453Y-91432660D01*
X127648943Y-91404054D01*
X127664308Y-91351104D01*
X127664294Y-91349582D01*
X127654983Y-91318845D01*
X127623311Y-91290643D01*
X127561731Y-91258136D01*
X127477986Y-91218998D01*
X127422518Y-91197706D01*
X127390497Y-91199079D01*
X127375534Y-91227203D01*
X127371242Y-91286170D01*
X127371231Y-91380068D01*
X127370752Y-91438031D01*
X127368556Y-91509612D01*
X127364986Y-91558606D01*
X127360491Y-91576769D01*
X127359290Y-91576646D01*
X127333319Y-91566802D01*
X127290305Y-91546028D01*
X127230859Y-91515287D01*
X127237923Y-91238298D01*
X127238414Y-91219928D01*
X127244025Y-91090992D01*
X127253938Y-90993814D01*
X127270175Y-90921925D01*
X127294759Y-90868852D01*
X127329715Y-90828127D01*
X127377064Y-90793279D01*
X127377940Y-90792733D01*
X127454499Y-90764303D01*
X127543044Y-90759500D01*
X127628458Y-90777228D01*
G36*
X131157763Y-91386269D02*
G01*
X131158300Y-91429802D01*
X131160019Y-91575344D01*
X131160365Y-91686711D01*
X131158277Y-91767804D01*
X131152698Y-91822522D01*
X131142567Y-91854761D01*
X131126826Y-91868422D01*
X131104417Y-91867403D01*
X131074280Y-91855603D01*
X131035355Y-91836920D01*
X131027038Y-91832933D01*
X130992402Y-91813419D01*
X130974314Y-91790202D01*
X130967392Y-91751492D01*
X130966256Y-91685497D01*
X130966205Y-91567000D01*
X130844141Y-91567000D01*
X130769055Y-91563712D01*
X130710015Y-91550377D01*
X130660986Y-91523423D01*
X130657330Y-91520788D01*
X130607581Y-91476286D01*
X130572959Y-91422523D01*
X130551123Y-91352154D01*
X130539737Y-91257830D01*
X130536959Y-91151271D01*
X130731846Y-91151271D01*
X130731880Y-91169131D01*
X130733735Y-91249748D01*
X130739693Y-91302447D01*
X130751506Y-91336668D01*
X130770923Y-91361846D01*
X130772133Y-91363049D01*
X130819858Y-91395628D01*
X130866110Y-91392417D01*
X130918350Y-91352965D01*
X130931128Y-91339482D01*
X130949949Y-91311837D01*
X130960562Y-91275880D01*
X130965252Y-91221364D01*
X130966308Y-91138042D01*
X130965394Y-91087598D01*
X130955477Y-90995857D01*
X130932842Y-90935752D01*
X130895238Y-90902900D01*
X130840416Y-90892923D01*
X130817317Y-90895050D01*
X130777350Y-90916147D01*
X130750926Y-90963161D01*
X130736330Y-91040175D01*
X130731846Y-91151271D01*
X130536959Y-91151271D01*
X130536462Y-91132206D01*
X130537187Y-91040536D01*
X130540490Y-90971098D01*
X130547828Y-90922945D01*
X130560655Y-90886866D01*
X130580423Y-90853648D01*
X130598569Y-90828261D01*
X130664461Y-90759727D01*
X130739114Y-90722505D01*
X130832904Y-90710722D01*
X130940240Y-90722467D01*
X131033031Y-90764595D01*
X131106421Y-90838898D01*
X131111954Y-90846764D01*
X131124857Y-90867668D01*
X131134742Y-90891555D01*
X131142093Y-90923582D01*
X131147394Y-90968905D01*
X131151127Y-91032679D01*
X131153778Y-91120060D01*
X131154096Y-91138042D01*
X131155828Y-91236205D01*
X131157763Y-91386269D01*
G37*
X131157763Y-91386269D02*
X131158300Y-91429802D01*
X131160019Y-91575344D01*
X131160365Y-91686711D01*
X131158277Y-91767804D01*
X131152698Y-91822522D01*
X131142567Y-91854761D01*
X131126826Y-91868422D01*
X131104417Y-91867403D01*
X131074280Y-91855603D01*
X131035355Y-91836920D01*
X131027038Y-91832933D01*
X130992402Y-91813419D01*
X130974314Y-91790202D01*
X130967392Y-91751492D01*
X130966256Y-91685497D01*
X130966205Y-91567000D01*
X130844141Y-91567000D01*
X130769055Y-91563712D01*
X130710015Y-91550377D01*
X130660986Y-91523423D01*
X130657330Y-91520788D01*
X130607581Y-91476286D01*
X130572959Y-91422523D01*
X130551123Y-91352154D01*
X130539737Y-91257830D01*
X130536959Y-91151271D01*
X130731846Y-91151271D01*
X130731880Y-91169131D01*
X130733735Y-91249748D01*
X130739693Y-91302447D01*
X130751506Y-91336668D01*
X130770923Y-91361846D01*
X130772133Y-91363049D01*
X130819858Y-91395628D01*
X130866110Y-91392417D01*
X130918350Y-91352965D01*
X130931128Y-91339482D01*
X130949949Y-91311837D01*
X130960562Y-91275880D01*
X130965252Y-91221364D01*
X130966308Y-91138042D01*
X130965394Y-91087598D01*
X130955477Y-90995857D01*
X130932842Y-90935752D01*
X130895238Y-90902900D01*
X130840416Y-90892923D01*
X130817317Y-90895050D01*
X130777350Y-90916147D01*
X130750926Y-90963161D01*
X130736330Y-91040175D01*
X130731846Y-91151271D01*
X130536959Y-91151271D01*
X130536462Y-91132206D01*
X130537187Y-91040536D01*
X130540490Y-90971098D01*
X130547828Y-90922945D01*
X130560655Y-90886866D01*
X130580423Y-90853648D01*
X130598569Y-90828261D01*
X130664461Y-90759727D01*
X130739114Y-90722505D01*
X130832904Y-90710722D01*
X130940240Y-90722467D01*
X131033031Y-90764595D01*
X131106421Y-90838898D01*
X131111954Y-90846764D01*
X131124857Y-90867668D01*
X131134742Y-90891555D01*
X131142093Y-90923582D01*
X131147394Y-90968905D01*
X131151127Y-91032679D01*
X131153778Y-91120060D01*
X131154096Y-91138042D01*
X131155828Y-91236205D01*
X131157763Y-91386269D01*
G36*
X131904135Y-91168105D02*
G01*
X131903076Y-91262584D01*
X131899436Y-91328414D01*
X131891892Y-91374394D01*
X131879122Y-91409321D01*
X131859803Y-91441995D01*
X131855050Y-91448775D01*
X131804759Y-91502231D01*
X131747457Y-91542547D01*
X131718032Y-91555629D01*
X131612299Y-91577450D01*
X131507734Y-91563336D01*
X131411368Y-91515105D01*
X131330235Y-91434579D01*
X131323385Y-91423791D01*
X131301097Y-91361153D01*
X131286079Y-91273935D01*
X131278792Y-91173210D01*
X131279611Y-91080037D01*
X131476796Y-91080037D01*
X131478349Y-91209114D01*
X131478974Y-91217420D01*
X131488077Y-91288643D01*
X131504288Y-91333809D01*
X131531660Y-91364752D01*
X131577553Y-91393737D01*
X131622942Y-91395261D01*
X131669692Y-91361846D01*
X131677824Y-91353053D01*
X131693754Y-91326741D01*
X131703159Y-91288520D01*
X131707632Y-91229349D01*
X131708769Y-91140182D01*
X131706822Y-91056664D01*
X131697105Y-90977095D01*
X131677047Y-90926808D01*
X131644240Y-90900513D01*
X131596280Y-90892923D01*
X131578016Y-90894432D01*
X131526848Y-90922107D01*
X131493035Y-90984172D01*
X131476796Y-91080037D01*
X131279611Y-91080037D01*
X131279699Y-91070052D01*
X131289262Y-90975533D01*
X131307943Y-90900727D01*
X131331951Y-90850905D01*
X131399536Y-90773409D01*
X131491114Y-90725256D01*
X131603213Y-90708703D01*
X131633151Y-90709599D01*
X131721315Y-90727929D01*
X131793733Y-90774104D01*
X131860192Y-90853648D01*
X131864147Y-90859548D01*
X131882040Y-90891288D01*
X131893678Y-90927163D01*
X131900371Y-90975906D01*
X131903426Y-91046249D01*
X131904106Y-91140182D01*
X131904154Y-91146923D01*
X131904135Y-91168105D01*
G37*
X131904135Y-91168105D02*
X131903076Y-91262584D01*
X131899436Y-91328414D01*
X131891892Y-91374394D01*
X131879122Y-91409321D01*
X131859803Y-91441995D01*
X131855050Y-91448775D01*
X131804759Y-91502231D01*
X131747457Y-91542547D01*
X131718032Y-91555629D01*
X131612299Y-91577450D01*
X131507734Y-91563336D01*
X131411368Y-91515105D01*
X131330235Y-91434579D01*
X131323385Y-91423791D01*
X131301097Y-91361153D01*
X131286079Y-91273935D01*
X131278792Y-91173210D01*
X131279611Y-91080037D01*
X131476796Y-91080037D01*
X131478349Y-91209114D01*
X131478974Y-91217420D01*
X131488077Y-91288643D01*
X131504288Y-91333809D01*
X131531660Y-91364752D01*
X131577553Y-91393737D01*
X131622942Y-91395261D01*
X131669692Y-91361846D01*
X131677824Y-91353053D01*
X131693754Y-91326741D01*
X131703159Y-91288520D01*
X131707632Y-91229349D01*
X131708769Y-91140182D01*
X131706822Y-91056664D01*
X131697105Y-90977095D01*
X131677047Y-90926808D01*
X131644240Y-90900513D01*
X131596280Y-90892923D01*
X131578016Y-90894432D01*
X131526848Y-90922107D01*
X131493035Y-90984172D01*
X131476796Y-91080037D01*
X131279611Y-91080037D01*
X131279699Y-91070052D01*
X131289262Y-90975533D01*
X131307943Y-90900727D01*
X131331951Y-90850905D01*
X131399536Y-90773409D01*
X131491114Y-90725256D01*
X131603213Y-90708703D01*
X131633151Y-90709599D01*
X131721315Y-90727929D01*
X131793733Y-90774104D01*
X131860192Y-90853648D01*
X131864147Y-90859548D01*
X131882040Y-90891288D01*
X131893678Y-90927163D01*
X131900371Y-90975906D01*
X131903426Y-91046249D01*
X131904106Y-91140182D01*
X131904154Y-91146923D01*
X131904135Y-91168105D01*
G36*
X127525575Y-84425693D02*
G01*
X127661371Y-84425807D01*
X127763576Y-84426472D01*
X127837122Y-84428182D01*
X127886942Y-84431429D01*
X127917967Y-84436706D01*
X127935129Y-84444507D01*
X127943361Y-84455325D01*
X127947594Y-84469654D01*
X127947716Y-84470168D01*
X127954672Y-84503851D01*
X127967320Y-84568917D01*
X127984360Y-84658542D01*
X128004496Y-84765904D01*
X128026429Y-84884178D01*
X128028218Y-84893856D01*
X128050083Y-85008650D01*
X128070430Y-85109480D01*
X128087934Y-85190217D01*
X128101271Y-85244734D01*
X128109116Y-85266901D01*
X128109158Y-85266936D01*
X128133884Y-85279200D01*
X128184631Y-85299576D01*
X128250462Y-85323674D01*
X128254169Y-85324983D01*
X128338331Y-85356791D01*
X128436230Y-85396685D01*
X128527435Y-85436353D01*
X128677407Y-85504420D01*
X129009499Y-85277639D01*
X129032889Y-85261688D01*
X129133080Y-85193890D01*
X129222480Y-85134208D01*
X129295745Y-85086156D01*
X129347527Y-85053250D01*
X129372480Y-85039004D01*
X129389577Y-85042270D01*
X129428395Y-85067571D01*
X129488385Y-85117675D01*
X129571210Y-85193989D01*
X129678535Y-85297922D01*
X129688139Y-85307382D01*
X129773302Y-85392145D01*
X129848949Y-85468937D01*
X129910449Y-85532947D01*
X129953173Y-85579361D01*
X129972489Y-85603369D01*
X129972552Y-85603485D01*
X129975006Y-85621763D01*
X129965956Y-85651411D01*
X129943119Y-85696486D01*
X129904213Y-85761044D01*
X129846954Y-85849140D01*
X129769059Y-85964830D01*
X129755785Y-85984357D01*
X129688652Y-86083278D01*
X129629410Y-86170848D01*
X129581588Y-86241831D01*
X129548715Y-86290991D01*
X129534318Y-86313095D01*
X129533232Y-86317777D01*
X129540044Y-86352710D01*
X129560450Y-86409753D01*
X129591123Y-86479172D01*
X129632808Y-86569959D01*
X129679352Y-86677686D01*
X129718877Y-86775192D01*
X129728676Y-86800430D01*
X129754340Y-86864870D01*
X129773193Y-86909763D01*
X129781710Y-86926616D01*
X129791111Y-86927875D01*
X129833363Y-86935159D01*
X129902521Y-86947739D01*
X129991387Y-86964246D01*
X130092768Y-86983312D01*
X130199467Y-87003569D01*
X130304288Y-87023647D01*
X130400036Y-87042179D01*
X130479516Y-87057795D01*
X130535530Y-87069127D01*
X130560885Y-87074807D01*
X130565088Y-87076408D01*
X130575334Y-87085045D01*
X130582957Y-87103433D01*
X130588338Y-87136460D01*
X130591859Y-87189013D01*
X130593901Y-87265979D01*
X130594847Y-87372246D01*
X130595077Y-87512701D01*
X130595077Y-87939845D01*
X130492500Y-87960091D01*
X130480092Y-87962518D01*
X130414199Y-87975088D01*
X130323084Y-87992170D01*
X130217104Y-88011829D01*
X130106615Y-88032132D01*
X130063105Y-88040299D01*
X129965882Y-88060167D01*
X129884858Y-88078954D01*
X129827477Y-88094859D01*
X129801187Y-88106079D01*
X129789273Y-88124411D01*
X129767583Y-88172916D01*
X129745395Y-88235692D01*
X129737585Y-88259200D01*
X129708835Y-88336366D01*
X129671752Y-88427694D01*
X129632375Y-88518093D01*
X129611315Y-88565310D01*
X129581311Y-88635837D01*
X129560692Y-88688655D01*
X129553026Y-88714912D01*
X129553452Y-88716894D01*
X129567993Y-88744751D01*
X129600783Y-88798510D01*
X129648493Y-88872963D01*
X129707798Y-88962897D01*
X129775369Y-89063104D01*
X129997713Y-89389416D01*
X129705601Y-89682016D01*
X129677349Y-89710171D01*
X129590961Y-89794449D01*
X129513756Y-89867128D01*
X129450258Y-89924112D01*
X129404990Y-89961307D01*
X129382474Y-89974616D01*
X129358023Y-89964490D01*
X129306819Y-89935421D01*
X129234747Y-89890896D01*
X129147460Y-89834411D01*
X129050612Y-89769462D01*
X128955486Y-89705314D01*
X128869669Y-89648827D01*
X128799652Y-89604184D01*
X128750876Y-89574855D01*
X128728783Y-89564308D01*
X128727488Y-89564404D01*
X128698139Y-89574802D01*
X128646093Y-89599012D01*
X128581708Y-89632249D01*
X128581032Y-89632613D01*
X128495521Y-89675441D01*
X128436926Y-89696365D01*
X128400571Y-89696423D01*
X128381775Y-89676654D01*
X128373819Y-89657195D01*
X128352347Y-89605080D01*
X128319273Y-89524964D01*
X128276356Y-89421107D01*
X128225356Y-89297767D01*
X128168033Y-89159201D01*
X128106146Y-89009670D01*
X128050052Y-88873636D01*
X127992977Y-88734050D01*
X127942479Y-88609315D01*
X127900254Y-88503672D01*
X127867995Y-88421365D01*
X127847397Y-88366635D01*
X127840154Y-88343726D01*
X127853986Y-88322718D01*
X127892412Y-88287642D01*
X127946807Y-88246887D01*
X128077395Y-88140267D01*
X128194260Y-88004025D01*
X128279780Y-87854118D01*
X128333431Y-87694971D01*
X128354684Y-87531012D01*
X128343014Y-87366667D01*
X128297894Y-87206361D01*
X128218797Y-87054520D01*
X128105197Y-86915572D01*
X128045965Y-86861460D01*
X127904054Y-86765782D01*
X127752206Y-86703405D01*
X127594861Y-86672844D01*
X127436456Y-86672615D01*
X127281429Y-86701232D01*
X127134220Y-86757210D01*
X126999266Y-86839064D01*
X126881005Y-86945309D01*
X126783877Y-87074459D01*
X126712318Y-87225031D01*
X126670769Y-87395539D01*
X126663143Y-87477722D01*
X126673634Y-87655775D01*
X126720882Y-87824704D01*
X126803489Y-87981522D01*
X126920059Y-88123245D01*
X127069193Y-88246887D01*
X127121561Y-88285982D01*
X127160832Y-88321443D01*
X127175846Y-88343692D01*
X127169859Y-88363088D01*
X127150432Y-88415059D01*
X127119194Y-88495002D01*
X127077839Y-88598673D01*
X127028061Y-88721832D01*
X126971553Y-88860234D01*
X126910009Y-89009637D01*
X126854008Y-89145020D01*
X126796184Y-89284852D01*
X126744500Y-89409872D01*
X126700718Y-89515822D01*
X126666597Y-89598441D01*
X126643898Y-89653472D01*
X126634380Y-89676654D01*
X126634269Y-89676928D01*
X126615228Y-89696503D01*
X126578694Y-89696279D01*
X126519954Y-89675210D01*
X126434292Y-89632249D01*
X126427549Y-89628631D01*
X126363938Y-89596087D01*
X126313707Y-89573050D01*
X126287218Y-89564308D01*
X126265506Y-89574639D01*
X126216984Y-89603788D01*
X126147163Y-89648287D01*
X126061484Y-89704668D01*
X125965388Y-89769462D01*
X125870706Y-89832984D01*
X125783132Y-89889705D01*
X125710642Y-89934547D01*
X125658889Y-89964016D01*
X125633526Y-89974616D01*
X125629206Y-89973270D01*
X125599092Y-89952056D01*
X125547640Y-89908237D01*
X125479375Y-89845909D01*
X125398820Y-89769170D01*
X125310500Y-89682116D01*
X125018488Y-89389617D01*
X125473360Y-88720525D01*
X125404208Y-88570916D01*
X125404003Y-88570473D01*
X125362477Y-88475101D01*
X125320044Y-88368896D01*
X125285858Y-88274769D01*
X125280684Y-88259588D01*
X125254601Y-88189109D01*
X125231081Y-88134342D01*
X125214677Y-88106079D01*
X125207996Y-88102088D01*
X125167892Y-88088697D01*
X125099795Y-88071373D01*
X125011145Y-88051917D01*
X124909385Y-88032132D01*
X124878904Y-88026551D01*
X124768628Y-88006233D01*
X124665731Y-87987095D01*
X124580569Y-87971070D01*
X124523500Y-87960091D01*
X124420923Y-87939845D01*
X124420923Y-87512701D01*
X124420946Y-87460180D01*
X124421379Y-87332047D01*
X124422659Y-87236420D01*
X124425168Y-87168411D01*
X124429286Y-87123133D01*
X124435395Y-87095697D01*
X124443878Y-87081218D01*
X124455115Y-87074807D01*
X124465994Y-87072209D01*
X124510347Y-87063022D01*
X124581106Y-87048991D01*
X124671074Y-87031486D01*
X124773056Y-87011874D01*
X124879857Y-86991525D01*
X124984281Y-86971807D01*
X125079132Y-86954089D01*
X125157214Y-86939738D01*
X125211332Y-86930124D01*
X125234291Y-86926616D01*
X125235842Y-86924497D01*
X125248325Y-86897006D01*
X125269927Y-86844406D01*
X125297123Y-86775192D01*
X125334866Y-86681937D01*
X125381328Y-86574159D01*
X125424878Y-86479172D01*
X125434858Y-86457851D01*
X125462862Y-86391086D01*
X125479641Y-86339590D01*
X125481854Y-86313095D01*
X125480713Y-86311218D01*
X125462584Y-86283565D01*
X125426644Y-86229849D01*
X125376418Y-86155303D01*
X125315430Y-86065162D01*
X125247205Y-85964657D01*
X125170330Y-85850470D01*
X125112663Y-85761770D01*
X125073426Y-85696721D01*
X125050350Y-85651295D01*
X125041166Y-85621463D01*
X125043604Y-85603195D01*
X125044424Y-85601825D01*
X125066477Y-85575205D01*
X125111436Y-85526697D01*
X125174673Y-85461108D01*
X125251559Y-85383247D01*
X125337465Y-85297922D01*
X125426579Y-85211334D01*
X125513872Y-85129947D01*
X125578018Y-85075035D01*
X125620679Y-85045190D01*
X125643521Y-85039004D01*
X125646505Y-85040394D01*
X125677936Y-85059127D01*
X125734997Y-85095733D01*
X125812343Y-85146697D01*
X125904626Y-85208504D01*
X126006502Y-85277639D01*
X126338593Y-85504420D01*
X126488566Y-85436353D01*
X126492923Y-85434381D01*
X126585000Y-85394491D01*
X126682683Y-85354818D01*
X126765539Y-85323674D01*
X126765905Y-85323545D01*
X126831685Y-85299456D01*
X126882323Y-85279110D01*
X126906884Y-85266901D01*
X126907282Y-85266458D01*
X126915619Y-85241456D01*
X126929341Y-85184598D01*
X126947123Y-85102014D01*
X126967641Y-84999831D01*
X126989571Y-84884178D01*
X126990336Y-84880033D01*
X127012229Y-84762019D01*
X127032281Y-84655151D01*
X127049192Y-84566252D01*
X127061667Y-84502145D01*
X127068406Y-84469654D01*
X127068837Y-84467853D01*
X127073273Y-84453944D01*
X127082263Y-84443489D01*
X127100737Y-84435996D01*
X127133628Y-84430972D01*
X127185868Y-84427922D01*
X127262388Y-84426355D01*
X127368122Y-84425776D01*
X127508000Y-84425692D01*
X127525575Y-84425693D01*
G37*
X127525575Y-84425693D02*
X127661371Y-84425807D01*
X127763576Y-84426472D01*
X127837122Y-84428182D01*
X127886942Y-84431429D01*
X127917967Y-84436706D01*
X127935129Y-84444507D01*
X127943361Y-84455325D01*
X127947594Y-84469654D01*
X127947716Y-84470168D01*
X127954672Y-84503851D01*
X127967320Y-84568917D01*
X127984360Y-84658542D01*
X128004496Y-84765904D01*
X128026429Y-84884178D01*
X128028218Y-84893856D01*
X128050083Y-85008650D01*
X128070430Y-85109480D01*
X128087934Y-85190217D01*
X128101271Y-85244734D01*
X128109116Y-85266901D01*
X128109158Y-85266936D01*
X128133884Y-85279200D01*
X128184631Y-85299576D01*
X128250462Y-85323674D01*
X128254169Y-85324983D01*
X128338331Y-85356791D01*
X128436230Y-85396685D01*
X128527435Y-85436353D01*
X128677407Y-85504420D01*
X129009499Y-85277639D01*
X129032889Y-85261688D01*
X129133080Y-85193890D01*
X129222480Y-85134208D01*
X129295745Y-85086156D01*
X129347527Y-85053250D01*
X129372480Y-85039004D01*
X129389577Y-85042270D01*
X129428395Y-85067571D01*
X129488385Y-85117675D01*
X129571210Y-85193989D01*
X129678535Y-85297922D01*
X129688139Y-85307382D01*
X129773302Y-85392145D01*
X129848949Y-85468937D01*
X129910449Y-85532947D01*
X129953173Y-85579361D01*
X129972489Y-85603369D01*
X129972552Y-85603485D01*
X129975006Y-85621763D01*
X129965956Y-85651411D01*
X129943119Y-85696486D01*
X129904213Y-85761044D01*
X129846954Y-85849140D01*
X129769059Y-85964830D01*
X129755785Y-85984357D01*
X129688652Y-86083278D01*
X129629410Y-86170848D01*
X129581588Y-86241831D01*
X129548715Y-86290991D01*
X129534318Y-86313095D01*
X129533232Y-86317777D01*
X129540044Y-86352710D01*
X129560450Y-86409753D01*
X129591123Y-86479172D01*
X129632808Y-86569959D01*
X129679352Y-86677686D01*
X129718877Y-86775192D01*
X129728676Y-86800430D01*
X129754340Y-86864870D01*
X129773193Y-86909763D01*
X129781710Y-86926616D01*
X129791111Y-86927875D01*
X129833363Y-86935159D01*
X129902521Y-86947739D01*
X129991387Y-86964246D01*
X130092768Y-86983312D01*
X130199467Y-87003569D01*
X130304288Y-87023647D01*
X130400036Y-87042179D01*
X130479516Y-87057795D01*
X130535530Y-87069127D01*
X130560885Y-87074807D01*
X130565088Y-87076408D01*
X130575334Y-87085045D01*
X130582957Y-87103433D01*
X130588338Y-87136460D01*
X130591859Y-87189013D01*
X130593901Y-87265979D01*
X130594847Y-87372246D01*
X130595077Y-87512701D01*
X130595077Y-87939845D01*
X130492500Y-87960091D01*
X130480092Y-87962518D01*
X130414199Y-87975088D01*
X130323084Y-87992170D01*
X130217104Y-88011829D01*
X130106615Y-88032132D01*
X130063105Y-88040299D01*
X129965882Y-88060167D01*
X129884858Y-88078954D01*
X129827477Y-88094859D01*
X129801187Y-88106079D01*
X129789273Y-88124411D01*
X129767583Y-88172916D01*
X129745395Y-88235692D01*
X129737585Y-88259200D01*
X129708835Y-88336366D01*
X129671752Y-88427694D01*
X129632375Y-88518093D01*
X129611315Y-88565310D01*
X129581311Y-88635837D01*
X129560692Y-88688655D01*
X129553026Y-88714912D01*
X129553452Y-88716894D01*
X129567993Y-88744751D01*
X129600783Y-88798510D01*
X129648493Y-88872963D01*
X129707798Y-88962897D01*
X129775369Y-89063104D01*
X129997713Y-89389416D01*
X129705601Y-89682016D01*
X129677349Y-89710171D01*
X129590961Y-89794449D01*
X129513756Y-89867128D01*
X129450258Y-89924112D01*
X129404990Y-89961307D01*
X129382474Y-89974616D01*
X129358023Y-89964490D01*
X129306819Y-89935421D01*
X129234747Y-89890896D01*
X129147460Y-89834411D01*
X129050612Y-89769462D01*
X128955486Y-89705314D01*
X128869669Y-89648827D01*
X128799652Y-89604184D01*
X128750876Y-89574855D01*
X128728783Y-89564308D01*
X128727488Y-89564404D01*
X128698139Y-89574802D01*
X128646093Y-89599012D01*
X128581708Y-89632249D01*
X128581032Y-89632613D01*
X128495521Y-89675441D01*
X128436926Y-89696365D01*
X128400571Y-89696423D01*
X128381775Y-89676654D01*
X128373819Y-89657195D01*
X128352347Y-89605080D01*
X128319273Y-89524964D01*
X128276356Y-89421107D01*
X128225356Y-89297767D01*
X128168033Y-89159201D01*
X128106146Y-89009670D01*
X128050052Y-88873636D01*
X127992977Y-88734050D01*
X127942479Y-88609315D01*
X127900254Y-88503672D01*
X127867995Y-88421365D01*
X127847397Y-88366635D01*
X127840154Y-88343726D01*
X127853986Y-88322718D01*
X127892412Y-88287642D01*
X127946807Y-88246887D01*
X128077395Y-88140267D01*
X128194260Y-88004025D01*
X128279780Y-87854118D01*
X128333431Y-87694971D01*
X128354684Y-87531012D01*
X128343014Y-87366667D01*
X128297894Y-87206361D01*
X128218797Y-87054520D01*
X128105197Y-86915572D01*
X128045965Y-86861460D01*
X127904054Y-86765782D01*
X127752206Y-86703405D01*
X127594861Y-86672844D01*
X127436456Y-86672615D01*
X127281429Y-86701232D01*
X127134220Y-86757210D01*
X126999266Y-86839064D01*
X126881005Y-86945309D01*
X126783877Y-87074459D01*
X126712318Y-87225031D01*
X126670769Y-87395539D01*
X126663143Y-87477722D01*
X126673634Y-87655775D01*
X126720882Y-87824704D01*
X126803489Y-87981522D01*
X126920059Y-88123245D01*
X127069193Y-88246887D01*
X127121561Y-88285982D01*
X127160832Y-88321443D01*
X127175846Y-88343692D01*
X127169859Y-88363088D01*
X127150432Y-88415059D01*
X127119194Y-88495002D01*
X127077839Y-88598673D01*
X127028061Y-88721832D01*
X126971553Y-88860234D01*
X126910009Y-89009637D01*
X126854008Y-89145020D01*
X126796184Y-89284852D01*
X126744500Y-89409872D01*
X126700718Y-89515822D01*
X126666597Y-89598441D01*
X126643898Y-89653472D01*
X126634380Y-89676654D01*
X126634269Y-89676928D01*
X126615228Y-89696503D01*
X126578694Y-89696279D01*
X126519954Y-89675210D01*
X126434292Y-89632249D01*
X126427549Y-89628631D01*
X126363938Y-89596087D01*
X126313707Y-89573050D01*
X126287218Y-89564308D01*
X126265506Y-89574639D01*
X126216984Y-89603788D01*
X126147163Y-89648287D01*
X126061484Y-89704668D01*
X125965388Y-89769462D01*
X125870706Y-89832984D01*
X125783132Y-89889705D01*
X125710642Y-89934547D01*
X125658889Y-89964016D01*
X125633526Y-89974616D01*
X125629206Y-89973270D01*
X125599092Y-89952056D01*
X125547640Y-89908237D01*
X125479375Y-89845909D01*
X125398820Y-89769170D01*
X125310500Y-89682116D01*
X125018488Y-89389617D01*
X125473360Y-88720525D01*
X125404208Y-88570916D01*
X125404003Y-88570473D01*
X125362477Y-88475101D01*
X125320044Y-88368896D01*
X125285858Y-88274769D01*
X125280684Y-88259588D01*
X125254601Y-88189109D01*
X125231081Y-88134342D01*
X125214677Y-88106079D01*
X125207996Y-88102088D01*
X125167892Y-88088697D01*
X125099795Y-88071373D01*
X125011145Y-88051917D01*
X124909385Y-88032132D01*
X124878904Y-88026551D01*
X124768628Y-88006233D01*
X124665731Y-87987095D01*
X124580569Y-87971070D01*
X124523500Y-87960091D01*
X124420923Y-87939845D01*
X124420923Y-87512701D01*
X124420946Y-87460180D01*
X124421379Y-87332047D01*
X124422659Y-87236420D01*
X124425168Y-87168411D01*
X124429286Y-87123133D01*
X124435395Y-87095697D01*
X124443878Y-87081218D01*
X124455115Y-87074807D01*
X124465994Y-87072209D01*
X124510347Y-87063022D01*
X124581106Y-87048991D01*
X124671074Y-87031486D01*
X124773056Y-87011874D01*
X124879857Y-86991525D01*
X124984281Y-86971807D01*
X125079132Y-86954089D01*
X125157214Y-86939738D01*
X125211332Y-86930124D01*
X125234291Y-86926616D01*
X125235842Y-86924497D01*
X125248325Y-86897006D01*
X125269927Y-86844406D01*
X125297123Y-86775192D01*
X125334866Y-86681937D01*
X125381328Y-86574159D01*
X125424878Y-86479172D01*
X125434858Y-86457851D01*
X125462862Y-86391086D01*
X125479641Y-86339590D01*
X125481854Y-86313095D01*
X125480713Y-86311218D01*
X125462584Y-86283565D01*
X125426644Y-86229849D01*
X125376418Y-86155303D01*
X125315430Y-86065162D01*
X125247205Y-85964657D01*
X125170330Y-85850470D01*
X125112663Y-85761770D01*
X125073426Y-85696721D01*
X125050350Y-85651295D01*
X125041166Y-85621463D01*
X125043604Y-85603195D01*
X125044424Y-85601825D01*
X125066477Y-85575205D01*
X125111436Y-85526697D01*
X125174673Y-85461108D01*
X125251559Y-85383247D01*
X125337465Y-85297922D01*
X125426579Y-85211334D01*
X125513872Y-85129947D01*
X125578018Y-85075035D01*
X125620679Y-85045190D01*
X125643521Y-85039004D01*
X125646505Y-85040394D01*
X125677936Y-85059127D01*
X125734997Y-85095733D01*
X125812343Y-85146697D01*
X125904626Y-85208504D01*
X126006502Y-85277639D01*
X126338593Y-85504420D01*
X126488566Y-85436353D01*
X126492923Y-85434381D01*
X126585000Y-85394491D01*
X126682683Y-85354818D01*
X126765539Y-85323674D01*
X126765905Y-85323545D01*
X126831685Y-85299456D01*
X126882323Y-85279110D01*
X126906884Y-85266901D01*
X126907282Y-85266458D01*
X126915619Y-85241456D01*
X126929341Y-85184598D01*
X126947123Y-85102014D01*
X126967641Y-84999831D01*
X126989571Y-84884178D01*
X126990336Y-84880033D01*
X127012229Y-84762019D01*
X127032281Y-84655151D01*
X127049192Y-84566252D01*
X127061667Y-84502145D01*
X127068406Y-84469654D01*
X127068837Y-84467853D01*
X127073273Y-84453944D01*
X127082263Y-84443489D01*
X127100737Y-84435996D01*
X127133628Y-84430972D01*
X127185868Y-84427922D01*
X127262388Y-84426355D01*
X127368122Y-84425776D01*
X127508000Y-84425692D01*
X127525575Y-84425693D01*
G36*
X125695998Y-90762034D02*
G01*
X125738850Y-90778829D01*
X125788615Y-90801503D01*
X125788615Y-91456533D01*
X125726785Y-91518363D01*
X125712662Y-91532228D01*
X125673536Y-91563046D01*
X125634078Y-91573028D01*
X125575362Y-91568433D01*
X125551456Y-91565462D01*
X125489801Y-91559176D01*
X125446692Y-91556672D01*
X125433905Y-91557055D01*
X125381446Y-91561200D01*
X125318022Y-91568433D01*
X125297730Y-91570918D01*
X125246610Y-91571895D01*
X125209207Y-91556462D01*
X125166599Y-91518363D01*
X125104769Y-91456533D01*
X125104769Y-91106343D01*
X125105251Y-91002857D01*
X125106753Y-90904192D01*
X125109089Y-90826068D01*
X125112071Y-90774662D01*
X125115509Y-90756154D01*
X125116230Y-90756204D01*
X125141203Y-90765413D01*
X125183399Y-90785707D01*
X125240549Y-90815261D01*
X125245928Y-91122746D01*
X125251308Y-91430231D01*
X125368539Y-91430231D01*
X125373885Y-91093192D01*
X125375579Y-91001574D01*
X125378005Y-90903649D01*
X125380634Y-90825906D01*
X125383246Y-90774642D01*
X125385623Y-90756154D01*
X125386306Y-90756219D01*
X125409996Y-90763020D01*
X125453546Y-90777604D01*
X125515077Y-90799054D01*
X125515376Y-91095104D01*
X125515676Y-91146532D01*
X125517754Y-91246466D01*
X125521470Y-91329925D01*
X125526430Y-91389377D01*
X125532240Y-91417287D01*
X125553024Y-91432214D01*
X125595440Y-91436825D01*
X125642077Y-91430231D01*
X125647423Y-91093192D01*
X125649336Y-91007546D01*
X125653303Y-90906172D01*
X125658491Y-90826655D01*
X125664499Y-90774736D01*
X125670927Y-90756154D01*
X125695998Y-90762034D01*
G37*
X125695998Y-90762034D02*
X125738850Y-90778829D01*
X125788615Y-90801503D01*
X125788615Y-91456533D01*
X125726785Y-91518363D01*
X125712662Y-91532228D01*
X125673536Y-91563046D01*
X125634078Y-91573028D01*
X125575362Y-91568433D01*
X125551456Y-91565462D01*
X125489801Y-91559176D01*
X125446692Y-91556672D01*
X125433905Y-91557055D01*
X125381446Y-91561200D01*
X125318022Y-91568433D01*
X125297730Y-91570918D01*
X125246610Y-91571895D01*
X125209207Y-91556462D01*
X125166599Y-91518363D01*
X125104769Y-91456533D01*
X125104769Y-91106343D01*
X125105251Y-91002857D01*
X125106753Y-90904192D01*
X125109089Y-90826068D01*
X125112071Y-90774662D01*
X125115509Y-90756154D01*
X125116230Y-90756204D01*
X125141203Y-90765413D01*
X125183399Y-90785707D01*
X125240549Y-90815261D01*
X125245928Y-91122746D01*
X125251308Y-91430231D01*
X125368539Y-91430231D01*
X125373885Y-91093192D01*
X125375579Y-91001574D01*
X125378005Y-90903649D01*
X125380634Y-90825906D01*
X125383246Y-90774642D01*
X125385623Y-90756154D01*
X125386306Y-90756219D01*
X125409996Y-90763020D01*
X125453546Y-90777604D01*
X125515077Y-90799054D01*
X125515376Y-91095104D01*
X125515676Y-91146532D01*
X125517754Y-91246466D01*
X125521470Y-91329925D01*
X125526430Y-91389377D01*
X125532240Y-91417287D01*
X125553024Y-91432214D01*
X125595440Y-91436825D01*
X125642077Y-91430231D01*
X125647423Y-91093192D01*
X125649336Y-91007546D01*
X125653303Y-90906172D01*
X125658491Y-90826655D01*
X125664499Y-90774736D01*
X125670927Y-90756154D01*
X125695998Y-90762034D01*
G36*
X124771936Y-90757911D02*
G01*
X124813807Y-90768547D01*
X124852791Y-90795062D01*
X124902965Y-90844420D01*
X124935232Y-90879279D01*
X124968844Y-90924534D01*
X124984003Y-90966951D01*
X124987539Y-91020768D01*
X124987539Y-91108850D01*
X124927470Y-91077787D01*
X124879867Y-91039936D01*
X124847261Y-90988950D01*
X124841661Y-90975088D01*
X124798992Y-90921358D01*
X124739707Y-90894417D01*
X124675061Y-90897039D01*
X124616308Y-90932000D01*
X124591450Y-90960394D01*
X124576970Y-90996718D01*
X124592470Y-91029046D01*
X124640667Y-91061565D01*
X124724274Y-91098461D01*
X124736962Y-91103557D01*
X124813078Y-91136907D01*
X124878396Y-91169793D01*
X124919953Y-91195769D01*
X124961576Y-91242167D01*
X124989247Y-91316211D01*
X124986310Y-91395670D01*
X124953571Y-91470868D01*
X124891841Y-91532131D01*
X124841858Y-91558210D01*
X124745303Y-91576470D01*
X124691647Y-91574007D01*
X124641976Y-91560687D01*
X124622919Y-91532739D01*
X124630045Y-91486710D01*
X124632118Y-91480624D01*
X124648556Y-91448349D01*
X124675926Y-91436133D01*
X124728068Y-91436950D01*
X124764884Y-91438061D01*
X124807961Y-91428528D01*
X124837475Y-91400026D01*
X124854286Y-91364935D01*
X124856161Y-91328175D01*
X124856074Y-91327961D01*
X124834279Y-91308098D01*
X124787632Y-91279192D01*
X124727278Y-91246886D01*
X124664360Y-91216823D01*
X124610023Y-91194646D01*
X124575410Y-91186000D01*
X124570260Y-91194467D01*
X124563778Y-91234309D01*
X124559339Y-91299371D01*
X124557692Y-91381385D01*
X124557309Y-91438153D01*
X124555505Y-91509648D01*
X124552558Y-91558610D01*
X124548843Y-91576769D01*
X124529424Y-91570667D01*
X124490227Y-91554095D01*
X124440462Y-91531420D01*
X124440462Y-91240509D01*
X124440780Y-91165940D01*
X124443789Y-91052701D01*
X124451454Y-90968692D01*
X124465562Y-90907520D01*
X124487899Y-90862795D01*
X124520253Y-90828124D01*
X124564410Y-90797117D01*
X124620667Y-90771528D01*
X124724540Y-90756154D01*
X124771936Y-90757911D01*
G37*
X124771936Y-90757911D02*
X124813807Y-90768547D01*
X124852791Y-90795062D01*
X124902965Y-90844420D01*
X124935232Y-90879279D01*
X124968844Y-90924534D01*
X124984003Y-90966951D01*
X124987539Y-91020768D01*
X124987539Y-91108850D01*
X124927470Y-91077787D01*
X124879867Y-91039936D01*
X124847261Y-90988950D01*
X124841661Y-90975088D01*
X124798992Y-90921358D01*
X124739707Y-90894417D01*
X124675061Y-90897039D01*
X124616308Y-90932000D01*
X124591450Y-90960394D01*
X124576970Y-90996718D01*
X124592470Y-91029046D01*
X124640667Y-91061565D01*
X124724274Y-91098461D01*
X124736962Y-91103557D01*
X124813078Y-91136907D01*
X124878396Y-91169793D01*
X124919953Y-91195769D01*
X124961576Y-91242167D01*
X124989247Y-91316211D01*
X124986310Y-91395670D01*
X124953571Y-91470868D01*
X124891841Y-91532131D01*
X124841858Y-91558210D01*
X124745303Y-91576470D01*
X124691647Y-91574007D01*
X124641976Y-91560687D01*
X124622919Y-91532739D01*
X124630045Y-91486710D01*
X124632118Y-91480624D01*
X124648556Y-91448349D01*
X124675926Y-91436133D01*
X124728068Y-91436950D01*
X124764884Y-91438061D01*
X124807961Y-91428528D01*
X124837475Y-91400026D01*
X124854286Y-91364935D01*
X124856161Y-91328175D01*
X124856074Y-91327961D01*
X124834279Y-91308098D01*
X124787632Y-91279192D01*
X124727278Y-91246886D01*
X124664360Y-91216823D01*
X124610023Y-91194646D01*
X124575410Y-91186000D01*
X124570260Y-91194467D01*
X124563778Y-91234309D01*
X124559339Y-91299371D01*
X124557692Y-91381385D01*
X124557309Y-91438153D01*
X124555505Y-91509648D01*
X124552558Y-91558610D01*
X124548843Y-91576769D01*
X124529424Y-91570667D01*
X124490227Y-91554095D01*
X124440462Y-91531420D01*
X124440462Y-91240509D01*
X124440780Y-91165940D01*
X124443789Y-91052701D01*
X124451454Y-90968692D01*
X124465562Y-90907520D01*
X124487899Y-90862795D01*
X124520253Y-90828124D01*
X124564410Y-90797117D01*
X124620667Y-90771528D01*
X124724540Y-90756154D01*
X124771936Y-90757911D01*
G36*
X130412574Y-91239643D02*
G01*
X130409066Y-91271021D01*
X130382927Y-91382705D01*
X130335694Y-91467642D01*
X130263862Y-91532741D01*
X130259802Y-91535428D01*
X130168487Y-91573634D01*
X130073144Y-91577034D01*
X129981274Y-91547939D01*
X129900379Y-91488660D01*
X129837962Y-91401510D01*
X129836914Y-91399409D01*
X129816173Y-91345289D01*
X129800980Y-91283781D01*
X129792921Y-91226039D01*
X129793582Y-91183215D01*
X129804548Y-91166462D01*
X129814290Y-91167480D01*
X129860877Y-91186009D01*
X129913682Y-91220081D01*
X129958603Y-91259522D01*
X129981535Y-91294155D01*
X130005373Y-91341133D01*
X130054230Y-91383862D01*
X130110963Y-91400923D01*
X130131758Y-91395990D01*
X130172804Y-91371157D01*
X130208557Y-91336685D01*
X130223846Y-91305411D01*
X130223842Y-91305295D01*
X130206495Y-91290933D01*
X130160247Y-91265025D01*
X130092067Y-91231210D01*
X130008923Y-91193129D01*
X130008466Y-91192927D01*
X129918138Y-91152709D01*
X129857592Y-91123733D01*
X129820888Y-91101474D01*
X129802086Y-91081407D01*
X129795246Y-91059009D01*
X129794429Y-91029756D01*
X129800113Y-90974363D01*
X129993000Y-90974363D01*
X130012911Y-90991777D01*
X130062521Y-91017872D01*
X130063976Y-91018610D01*
X130122506Y-91046483D01*
X130174868Y-91068719D01*
X130208086Y-91078126D01*
X130221410Y-91065552D01*
X130223846Y-91022468D01*
X130213724Y-90968847D01*
X130178631Y-90920119D01*
X130127823Y-90894856D01*
X130071181Y-90897406D01*
X130018584Y-90932120D01*
X129997910Y-90956107D01*
X129993000Y-90974363D01*
X129800113Y-90974363D01*
X129801622Y-90959654D01*
X129837184Y-90864412D01*
X129896714Y-90789567D01*
X129973746Y-90737745D01*
X130061815Y-90711573D01*
X130154454Y-90713676D01*
X130245198Y-90746681D01*
X130327579Y-90813215D01*
X130373222Y-90879055D01*
X130406008Y-90973036D01*
X130411339Y-91022468D01*
X130418787Y-91091536D01*
X130412574Y-91239643D01*
G37*
X130412574Y-91239643D02*
X130409066Y-91271021D01*
X130382927Y-91382705D01*
X130335694Y-91467642D01*
X130263862Y-91532741D01*
X130259802Y-91535428D01*
X130168487Y-91573634D01*
X130073144Y-91577034D01*
X129981274Y-91547939D01*
X129900379Y-91488660D01*
X129837962Y-91401510D01*
X129836914Y-91399409D01*
X129816173Y-91345289D01*
X129800980Y-91283781D01*
X129792921Y-91226039D01*
X129793582Y-91183215D01*
X129804548Y-91166462D01*
X129814290Y-91167480D01*
X129860877Y-91186009D01*
X129913682Y-91220081D01*
X129958603Y-91259522D01*
X129981535Y-91294155D01*
X130005373Y-91341133D01*
X130054230Y-91383862D01*
X130110963Y-91400923D01*
X130131758Y-91395990D01*
X130172804Y-91371157D01*
X130208557Y-91336685D01*
X130223846Y-91305411D01*
X130223842Y-91305295D01*
X130206495Y-91290933D01*
X130160247Y-91265025D01*
X130092067Y-91231210D01*
X130008923Y-91193129D01*
X130008466Y-91192927D01*
X129918138Y-91152709D01*
X129857592Y-91123733D01*
X129820888Y-91101474D01*
X129802086Y-91081407D01*
X129795246Y-91059009D01*
X129794429Y-91029756D01*
X129800113Y-90974363D01*
X129993000Y-90974363D01*
X130012911Y-90991777D01*
X130062521Y-91017872D01*
X130063976Y-91018610D01*
X130122506Y-91046483D01*
X130174868Y-91068719D01*
X130208086Y-91078126D01*
X130221410Y-91065552D01*
X130223846Y-91022468D01*
X130213724Y-90968847D01*
X130178631Y-90920119D01*
X130127823Y-90894856D01*
X130071181Y-90897406D01*
X130018584Y-90932120D01*
X129997910Y-90956107D01*
X129993000Y-90974363D01*
X129800113Y-90974363D01*
X129801622Y-90959654D01*
X129837184Y-90864412D01*
X129896714Y-90789567D01*
X129973746Y-90737745D01*
X130061815Y-90711573D01*
X130154454Y-90713676D01*
X130245198Y-90746681D01*
X130327579Y-90813215D01*
X130373222Y-90879055D01*
X130406008Y-90973036D01*
X130411339Y-91022468D01*
X130418787Y-91091536D01*
X130412574Y-91239643D01*
G36*
X126979892Y-90785167D02*
G01*
X126986060Y-90788581D01*
X127036447Y-90827692D01*
X127081498Y-90877975D01*
X127089355Y-90889339D01*
X127104376Y-90915860D01*
X127115107Y-90947336D01*
X127122486Y-90990591D01*
X127127452Y-91052449D01*
X127130942Y-91139733D01*
X127133893Y-91259269D01*
X127134311Y-91279478D01*
X127135654Y-91410499D01*
X127133761Y-91503296D01*
X127128605Y-91558507D01*
X127120158Y-91576769D01*
X127094594Y-91571301D01*
X127051166Y-91554733D01*
X127040940Y-91549888D01*
X127024967Y-91538920D01*
X127013954Y-91520890D01*
X127006750Y-91489396D01*
X127002208Y-91438036D01*
X126999180Y-91360410D01*
X126996516Y-91250115D01*
X126995785Y-91217875D01*
X126992965Y-91116050D01*
X126989304Y-91044788D01*
X126983694Y-90997332D01*
X126975029Y-90966925D01*
X126962202Y-90946810D01*
X126944105Y-90930229D01*
X126890525Y-90901161D01*
X126824612Y-90895564D01*
X126765635Y-90917807D01*
X126723203Y-90963859D01*
X126706923Y-91029692D01*
X126706470Y-91047587D01*
X126697578Y-91079982D01*
X126671325Y-91084925D01*
X126619919Y-91065633D01*
X126608013Y-91059446D01*
X126575835Y-91023058D01*
X126575198Y-90968954D01*
X126605856Y-90894128D01*
X126633978Y-90853350D01*
X126705883Y-90795421D01*
X126794638Y-90762670D01*
X126889542Y-90758212D01*
X126979892Y-90785167D01*
G37*
X126979892Y-90785167D02*
X126986060Y-90788581D01*
X127036447Y-90827692D01*
X127081498Y-90877975D01*
X127089355Y-90889339D01*
X127104376Y-90915860D01*
X127115107Y-90947336D01*
X127122486Y-90990591D01*
X127127452Y-91052449D01*
X127130942Y-91139733D01*
X127133893Y-91259269D01*
X127134311Y-91279478D01*
X127135654Y-91410499D01*
X127133761Y-91503296D01*
X127128605Y-91558507D01*
X127120158Y-91576769D01*
X127094594Y-91571301D01*
X127051166Y-91554733D01*
X127040940Y-91549888D01*
X127024967Y-91538920D01*
X127013954Y-91520890D01*
X127006750Y-91489396D01*
X127002208Y-91438036D01*
X126999180Y-91360410D01*
X126996516Y-91250115D01*
X126995785Y-91217875D01*
X126992965Y-91116050D01*
X126989304Y-91044788D01*
X126983694Y-90997332D01*
X126975029Y-90966925D01*
X126962202Y-90946810D01*
X126944105Y-90930229D01*
X126890525Y-90901161D01*
X126824612Y-90895564D01*
X126765635Y-90917807D01*
X126723203Y-90963859D01*
X126706923Y-91029692D01*
X126706470Y-91047587D01*
X126697578Y-91079982D01*
X126671325Y-91084925D01*
X126619919Y-91065633D01*
X126608013Y-91059446D01*
X126575835Y-91023058D01*
X126575198Y-90968954D01*
X126605856Y-90894128D01*
X126633978Y-90853350D01*
X126705883Y-90795421D01*
X126794638Y-90762670D01*
X126889542Y-90758212D01*
X126979892Y-90785167D01*
G36*
X124119501Y-90764476D02*
G01*
X124200167Y-90794440D01*
X124233714Y-90816954D01*
X124267687Y-90849212D01*
X124291919Y-90890246D01*
X124308001Y-90946108D01*
X124317521Y-91022851D01*
X124322068Y-91126525D01*
X124323231Y-91263184D01*
X124323003Y-91333805D01*
X124321860Y-91430308D01*
X124319919Y-91507323D01*
X124317365Y-91558319D01*
X124314381Y-91576769D01*
X124294962Y-91570667D01*
X124255766Y-91554095D01*
X124254589Y-91553558D01*
X124234235Y-91542903D01*
X124220546Y-91528282D01*
X124212199Y-91502673D01*
X124207874Y-91459054D01*
X124206248Y-91390403D01*
X124206000Y-91289698D01*
X124205500Y-91225813D01*
X124200164Y-91105751D01*
X124187945Y-91017809D01*
X124167552Y-90957375D01*
X124137695Y-90919836D01*
X124097082Y-90900581D01*
X124091448Y-90899239D01*
X124015378Y-90898191D01*
X123956052Y-90932271D01*
X123915077Y-91000598D01*
X123907770Y-91020351D01*
X123891114Y-91064066D01*
X123882679Y-91084155D01*
X123865356Y-91081387D01*
X123827525Y-91066365D01*
X123792240Y-91041556D01*
X123776154Y-90994670D01*
X123780952Y-90961087D01*
X123810431Y-90892967D01*
X123858098Y-90829134D01*
X123913839Y-90784988D01*
X123937193Y-90774782D01*
X124025619Y-90757718D01*
X124119501Y-90764476D01*
G37*
X124119501Y-90764476D02*
X124200167Y-90794440D01*
X124233714Y-90816954D01*
X124267687Y-90849212D01*
X124291919Y-90890246D01*
X124308001Y-90946108D01*
X124317521Y-91022851D01*
X124322068Y-91126525D01*
X124323231Y-91263184D01*
X124323003Y-91333805D01*
X124321860Y-91430308D01*
X124319919Y-91507323D01*
X124317365Y-91558319D01*
X124314381Y-91576769D01*
X124294962Y-91570667D01*
X124255766Y-91554095D01*
X124254589Y-91553558D01*
X124234235Y-91542903D01*
X124220546Y-91528282D01*
X124212199Y-91502673D01*
X124207874Y-91459054D01*
X124206248Y-91390403D01*
X124206000Y-91289698D01*
X124205500Y-91225813D01*
X124200164Y-91105751D01*
X124187945Y-91017809D01*
X124167552Y-90957375D01*
X124137695Y-90919836D01*
X124097082Y-90900581D01*
X124091448Y-90899239D01*
X124015378Y-90898191D01*
X123956052Y-90932271D01*
X123915077Y-91000598D01*
X123907770Y-91020351D01*
X123891114Y-91064066D01*
X123882679Y-91084155D01*
X123865356Y-91081387D01*
X123827525Y-91066365D01*
X123792240Y-91041556D01*
X123776154Y-90994670D01*
X123780952Y-90961087D01*
X123810431Y-90892967D01*
X123858098Y-90829134D01*
X123913839Y-90784988D01*
X123937193Y-90774782D01*
X124025619Y-90757718D01*
X124119501Y-90764476D01*
G36*
X123658413Y-91222449D02*
G01*
X123653641Y-91325047D01*
X123641150Y-91400126D01*
X123618121Y-91455748D01*
X123581732Y-91499975D01*
X123529162Y-91540869D01*
X123495714Y-91559466D01*
X123442098Y-91571991D01*
X123366780Y-91571003D01*
X123324672Y-91567035D01*
X123273879Y-91554920D01*
X123233280Y-91528585D01*
X123186049Y-91479514D01*
X123179738Y-91472346D01*
X123137277Y-91417189D01*
X123117018Y-91369150D01*
X123111846Y-91312184D01*
X123111846Y-91228471D01*
X123170346Y-91250552D01*
X123212994Y-91276364D01*
X123250064Y-91336928D01*
X123257803Y-91356320D01*
X123301074Y-91411235D01*
X123359976Y-91438879D01*
X123424111Y-91436393D01*
X123483077Y-91400923D01*
X123503342Y-91378805D01*
X123521720Y-91345436D01*
X123515971Y-91315117D01*
X123482887Y-91283913D01*
X123419261Y-91247887D01*
X123321885Y-91203103D01*
X123121615Y-91115445D01*
X123116301Y-91028607D01*
X123118299Y-90973296D01*
X123248783Y-90973296D01*
X123258688Y-91007538D01*
X123303756Y-91044096D01*
X123385557Y-91085692D01*
X123399092Y-91091718D01*
X123463818Y-91119753D01*
X123512247Y-91139472D01*
X123534751Y-91146923D01*
X123538161Y-91141438D01*
X123539529Y-91107948D01*
X123534651Y-91054116D01*
X123522364Y-91001473D01*
X123484041Y-90935151D01*
X123428720Y-90897780D01*
X123362640Y-90892721D01*
X123292040Y-90923339D01*
X123272474Y-90938648D01*
X123248783Y-90973296D01*
X123118299Y-90973296D01*
X123118647Y-90963663D01*
X123148186Y-90881590D01*
X123185472Y-90836361D01*
X123262776Y-90785838D01*
X123354478Y-90760316D01*
X123449274Y-90762336D01*
X123535859Y-90794440D01*
X123554920Y-90806767D01*
X123598640Y-90844912D01*
X123628540Y-90893167D01*
X123646968Y-90958710D01*
X123656270Y-91048720D01*
X123657499Y-91107948D01*
X123658794Y-91170376D01*
X123658413Y-91222449D01*
G37*
X123658413Y-91222449D02*
X123653641Y-91325047D01*
X123641150Y-91400126D01*
X123618121Y-91455748D01*
X123581732Y-91499975D01*
X123529162Y-91540869D01*
X123495714Y-91559466D01*
X123442098Y-91571991D01*
X123366780Y-91571003D01*
X123324672Y-91567035D01*
X123273879Y-91554920D01*
X123233280Y-91528585D01*
X123186049Y-91479514D01*
X123179738Y-91472346D01*
X123137277Y-91417189D01*
X123117018Y-91369150D01*
X123111846Y-91312184D01*
X123111846Y-91228471D01*
X123170346Y-91250552D01*
X123212994Y-91276364D01*
X123250064Y-91336928D01*
X123257803Y-91356320D01*
X123301074Y-91411235D01*
X123359976Y-91438879D01*
X123424111Y-91436393D01*
X123483077Y-91400923D01*
X123503342Y-91378805D01*
X123521720Y-91345436D01*
X123515971Y-91315117D01*
X123482887Y-91283913D01*
X123419261Y-91247887D01*
X123321885Y-91203103D01*
X123121615Y-91115445D01*
X123116301Y-91028607D01*
X123118299Y-90973296D01*
X123248783Y-90973296D01*
X123258688Y-91007538D01*
X123303756Y-91044096D01*
X123385557Y-91085692D01*
X123399092Y-91091718D01*
X123463818Y-91119753D01*
X123512247Y-91139472D01*
X123534751Y-91146923D01*
X123538161Y-91141438D01*
X123539529Y-91107948D01*
X123534651Y-91054116D01*
X123522364Y-91001473D01*
X123484041Y-90935151D01*
X123428720Y-90897780D01*
X123362640Y-90892721D01*
X123292040Y-90923339D01*
X123272474Y-90938648D01*
X123248783Y-90973296D01*
X123118299Y-90973296D01*
X123118647Y-90963663D01*
X123148186Y-90881590D01*
X123185472Y-90836361D01*
X123262776Y-90785838D01*
X123354478Y-90760316D01*
X123449274Y-90762336D01*
X123535859Y-90794440D01*
X123554920Y-90806767D01*
X123598640Y-90844912D01*
X123628540Y-90893167D01*
X123646968Y-90958710D01*
X123656270Y-91048720D01*
X123657499Y-91107948D01*
X123658794Y-91170376D01*
X123658413Y-91222449D01*
G36*
X138933268Y-88966158D02*
G01*
X138924689Y-89117594D01*
X138905833Y-89254283D01*
X138875837Y-89380276D01*
X138833836Y-89499625D01*
X138778969Y-89616381D01*
X138712167Y-89727179D01*
X138621363Y-89840739D01*
X138517708Y-89936211D01*
X138401887Y-90013073D01*
X138274586Y-90070797D01*
X138136489Y-90108858D01*
X138098793Y-90114666D01*
X138019752Y-90120396D01*
X137931629Y-90120583D01*
X137842236Y-90115539D01*
X137759384Y-90105578D01*
X137690887Y-90091012D01*
X137660035Y-90081364D01*
X137582730Y-90051123D01*
X137505679Y-90013617D01*
X137436200Y-89972614D01*
X137381615Y-89931879D01*
X137358916Y-89912505D01*
X137336201Y-89894662D01*
X137324779Y-89887778D01*
X137323537Y-89889424D01*
X137320728Y-89907205D01*
X137318776Y-89940370D01*
X137318045Y-89983733D01*
X137318045Y-90079689D01*
X136459896Y-90079689D01*
X136494161Y-90018974D01*
X136499355Y-90009868D01*
X136507715Y-89995249D01*
X136515288Y-89981173D01*
X136522112Y-89966540D01*
X136528227Y-89950249D01*
X136533673Y-89931198D01*
X136538487Y-89908286D01*
X136542708Y-89880413D01*
X136546377Y-89846478D01*
X136549531Y-89805379D01*
X136552211Y-89756015D01*
X136554454Y-89697286D01*
X136556299Y-89628090D01*
X136557787Y-89547326D01*
X136558955Y-89453894D01*
X136559678Y-89366721D01*
X137363200Y-89366721D01*
X137433756Y-89413089D01*
X137474417Y-89436791D01*
X137528546Y-89462639D01*
X137577689Y-89480829D01*
X137641165Y-89496551D01*
X137737331Y-89507541D01*
X137821900Y-89499365D01*
X137895219Y-89471805D01*
X137957637Y-89424642D01*
X138009502Y-89357658D01*
X138051160Y-89270633D01*
X138082962Y-89163350D01*
X138085545Y-89151009D01*
X138094000Y-89089772D01*
X138099663Y-89012692D01*
X138102576Y-88925002D01*
X138102783Y-88831934D01*
X138100330Y-88738720D01*
X138095261Y-88650594D01*
X138087619Y-88572788D01*
X138077448Y-88510533D01*
X138076167Y-88504666D01*
X138047126Y-88394121D01*
X138012610Y-88303575D01*
X137971456Y-88230953D01*
X137922499Y-88174181D01*
X137864574Y-88131184D01*
X137832620Y-88115615D01*
X137759784Y-88096722D01*
X137678443Y-88093465D01*
X137593319Y-88105389D01*
X137509133Y-88132040D01*
X137430608Y-88172962D01*
X137363200Y-88216530D01*
X137363200Y-89366721D01*
X136559678Y-89366721D01*
X136559844Y-89346692D01*
X136560491Y-89224620D01*
X136560936Y-89086576D01*
X136561218Y-88931459D01*
X136561375Y-88758168D01*
X136561448Y-88565603D01*
X136561474Y-88352662D01*
X136561493Y-88118245D01*
X136561689Y-86433378D01*
X137467017Y-86433378D01*
X137442585Y-86470067D01*
X137436318Y-86479647D01*
X137410208Y-86525981D01*
X137392469Y-86573102D01*
X137380908Y-86628251D01*
X137373331Y-86698667D01*
X137372839Y-86705650D01*
X137371062Y-86743641D01*
X137369444Y-86797576D01*
X137367999Y-86864703D01*
X137366740Y-86942271D01*
X137365680Y-87027528D01*
X137364829Y-87117724D01*
X137364203Y-87210107D01*
X137363812Y-87301925D01*
X137363670Y-87390427D01*
X137363790Y-87472862D01*
X137364183Y-87546479D01*
X137364862Y-87608526D01*
X137365841Y-87656251D01*
X137367132Y-87686904D01*
X137368747Y-87697733D01*
X137376957Y-87693333D01*
X137398647Y-87678362D01*
X137428014Y-87656448D01*
X137476879Y-87622236D01*
X137565125Y-87575714D01*
X137663916Y-87542046D01*
X137776510Y-87520231D01*
X137906164Y-87509265D01*
X137998670Y-87508219D01*
X138120011Y-87518014D01*
X138230099Y-87542174D01*
X138333389Y-87581785D01*
X138434338Y-87637932D01*
X138479503Y-87668883D01*
X138584911Y-87760115D01*
X138676538Y-87869106D01*
X138754332Y-87995726D01*
X138818241Y-88139845D01*
X138868214Y-88301332D01*
X138904198Y-88480059D01*
X138926143Y-88675895D01*
X138931900Y-88831934D01*
X138933994Y-88888711D01*
X138933268Y-88966158D01*
G37*
X138933268Y-88966158D02*
X138924689Y-89117594D01*
X138905833Y-89254283D01*
X138875837Y-89380276D01*
X138833836Y-89499625D01*
X138778969Y-89616381D01*
X138712167Y-89727179D01*
X138621363Y-89840739D01*
X138517708Y-89936211D01*
X138401887Y-90013073D01*
X138274586Y-90070797D01*
X138136489Y-90108858D01*
X138098793Y-90114666D01*
X138019752Y-90120396D01*
X137931629Y-90120583D01*
X137842236Y-90115539D01*
X137759384Y-90105578D01*
X137690887Y-90091012D01*
X137660035Y-90081364D01*
X137582730Y-90051123D01*
X137505679Y-90013617D01*
X137436200Y-89972614D01*
X137381615Y-89931879D01*
X137358916Y-89912505D01*
X137336201Y-89894662D01*
X137324779Y-89887778D01*
X137323537Y-89889424D01*
X137320728Y-89907205D01*
X137318776Y-89940370D01*
X137318045Y-89983733D01*
X137318045Y-90079689D01*
X136459896Y-90079689D01*
X136494161Y-90018974D01*
X136499355Y-90009868D01*
X136507715Y-89995249D01*
X136515288Y-89981173D01*
X136522112Y-89966540D01*
X136528227Y-89950249D01*
X136533673Y-89931198D01*
X136538487Y-89908286D01*
X136542708Y-89880413D01*
X136546377Y-89846478D01*
X136549531Y-89805379D01*
X136552211Y-89756015D01*
X136554454Y-89697286D01*
X136556299Y-89628090D01*
X136557787Y-89547326D01*
X136558955Y-89453894D01*
X136559678Y-89366721D01*
X137363200Y-89366721D01*
X137433756Y-89413089D01*
X137474417Y-89436791D01*
X137528546Y-89462639D01*
X137577689Y-89480829D01*
X137641165Y-89496551D01*
X137737331Y-89507541D01*
X137821900Y-89499365D01*
X137895219Y-89471805D01*
X137957637Y-89424642D01*
X138009502Y-89357658D01*
X138051160Y-89270633D01*
X138082962Y-89163350D01*
X138085545Y-89151009D01*
X138094000Y-89089772D01*
X138099663Y-89012692D01*
X138102576Y-88925002D01*
X138102783Y-88831934D01*
X138100330Y-88738720D01*
X138095261Y-88650594D01*
X138087619Y-88572788D01*
X138077448Y-88510533D01*
X138076167Y-88504666D01*
X138047126Y-88394121D01*
X138012610Y-88303575D01*
X137971456Y-88230953D01*
X137922499Y-88174181D01*
X137864574Y-88131184D01*
X137832620Y-88115615D01*
X137759784Y-88096722D01*
X137678443Y-88093465D01*
X137593319Y-88105389D01*
X137509133Y-88132040D01*
X137430608Y-88172962D01*
X137363200Y-88216530D01*
X137363200Y-89366721D01*
X136559678Y-89366721D01*
X136559844Y-89346692D01*
X136560491Y-89224620D01*
X136560936Y-89086576D01*
X136561218Y-88931459D01*
X136561375Y-88758168D01*
X136561448Y-88565603D01*
X136561474Y-88352662D01*
X136561493Y-88118245D01*
X136561689Y-86433378D01*
X137467017Y-86433378D01*
X137442585Y-86470067D01*
X137436318Y-86479647D01*
X137410208Y-86525981D01*
X137392469Y-86573102D01*
X137380908Y-86628251D01*
X137373331Y-86698667D01*
X137372839Y-86705650D01*
X137371062Y-86743641D01*
X137369444Y-86797576D01*
X137367999Y-86864703D01*
X137366740Y-86942271D01*
X137365680Y-87027528D01*
X137364829Y-87117724D01*
X137364203Y-87210107D01*
X137363812Y-87301925D01*
X137363670Y-87390427D01*
X137363790Y-87472862D01*
X137364183Y-87546479D01*
X137364862Y-87608526D01*
X137365841Y-87656251D01*
X137367132Y-87686904D01*
X137368747Y-87697733D01*
X137376957Y-87693333D01*
X137398647Y-87678362D01*
X137428014Y-87656448D01*
X137476879Y-87622236D01*
X137565125Y-87575714D01*
X137663916Y-87542046D01*
X137776510Y-87520231D01*
X137906164Y-87509265D01*
X137998670Y-87508219D01*
X138120011Y-87518014D01*
X138230099Y-87542174D01*
X138333389Y-87581785D01*
X138434338Y-87637932D01*
X138479503Y-87668883D01*
X138584911Y-87760115D01*
X138676538Y-87869106D01*
X138754332Y-87995726D01*
X138818241Y-88139845D01*
X138868214Y-88301332D01*
X138904198Y-88480059D01*
X138926143Y-88675895D01*
X138931900Y-88831934D01*
X138933994Y-88888711D01*
X138933268Y-88966158D01*
G36*
X137903767Y-90915068D02*
G01*
X137997890Y-90915158D01*
X138072405Y-90915498D01*
X138129811Y-90916239D01*
X138172611Y-90917535D01*
X138203304Y-90919537D01*
X138224391Y-90922396D01*
X138238373Y-90926266D01*
X138247750Y-90931298D01*
X138255022Y-90937645D01*
X138273828Y-90970362D01*
X138275275Y-91007939D01*
X138258917Y-91041178D01*
X138257557Y-91042631D01*
X138246354Y-91050992D01*
X138229252Y-91056547D01*
X138202082Y-91059840D01*
X138160678Y-91061418D01*
X138100873Y-91061822D01*
X137961511Y-91061822D01*
X137961511Y-91325589D01*
X137961436Y-91401417D01*
X137961028Y-91468083D01*
X137960046Y-91517867D01*
X137958250Y-91553784D01*
X137955399Y-91578850D01*
X137951253Y-91596081D01*
X137945571Y-91608492D01*
X137938114Y-91619100D01*
X137935824Y-91621906D01*
X137904646Y-91644548D01*
X137870266Y-91646112D01*
X137837334Y-91626267D01*
X137830355Y-91618191D01*
X137824883Y-91607593D01*
X137820863Y-91591749D01*
X137818072Y-91567773D01*
X137816288Y-91532774D01*
X137815289Y-91483864D01*
X137814852Y-91418154D01*
X137814756Y-91332756D01*
X137814756Y-91061822D01*
X137668820Y-91061822D01*
X137657720Y-91061821D01*
X137601202Y-91061596D01*
X137562358Y-91060457D01*
X137536965Y-91057657D01*
X137520804Y-91052450D01*
X137509652Y-91044089D01*
X137499289Y-91031826D01*
X137483441Y-91001138D01*
X137486543Y-90967358D01*
X137512187Y-90934822D01*
X137517129Y-90931105D01*
X137527338Y-90926269D01*
X137542764Y-90922506D01*
X137565886Y-90919683D01*
X137599183Y-90917670D01*
X137645137Y-90916333D01*
X137706228Y-90915542D01*
X137784935Y-90915163D01*
X137883740Y-90915067D01*
X137903767Y-90915068D01*
G37*
X137903767Y-90915068D02*
X137997890Y-90915158D01*
X138072405Y-90915498D01*
X138129811Y-90916239D01*
X138172611Y-90917535D01*
X138203304Y-90919537D01*
X138224391Y-90922396D01*
X138238373Y-90926266D01*
X138247750Y-90931298D01*
X138255022Y-90937645D01*
X138273828Y-90970362D01*
X138275275Y-91007939D01*
X138258917Y-91041178D01*
X138257557Y-91042631D01*
X138246354Y-91050992D01*
X138229252Y-91056547D01*
X138202082Y-91059840D01*
X138160678Y-91061418D01*
X138100873Y-91061822D01*
X137961511Y-91061822D01*
X137961511Y-91325589D01*
X137961436Y-91401417D01*
X137961028Y-91468083D01*
X137960046Y-91517867D01*
X137958250Y-91553784D01*
X137955399Y-91578850D01*
X137951253Y-91596081D01*
X137945571Y-91608492D01*
X137938114Y-91619100D01*
X137935824Y-91621906D01*
X137904646Y-91644548D01*
X137870266Y-91646112D01*
X137837334Y-91626267D01*
X137830355Y-91618191D01*
X137824883Y-91607593D01*
X137820863Y-91591749D01*
X137818072Y-91567773D01*
X137816288Y-91532774D01*
X137815289Y-91483864D01*
X137814852Y-91418154D01*
X137814756Y-91332756D01*
X137814756Y-91061822D01*
X137668820Y-91061822D01*
X137657720Y-91061821D01*
X137601202Y-91061596D01*
X137562358Y-91060457D01*
X137536965Y-91057657D01*
X137520804Y-91052450D01*
X137509652Y-91044089D01*
X137499289Y-91031826D01*
X137483441Y-91001138D01*
X137486543Y-90967358D01*
X137512187Y-90934822D01*
X137517129Y-90931105D01*
X137527338Y-90926269D01*
X137542764Y-90922506D01*
X137565886Y-90919683D01*
X137599183Y-90917670D01*
X137645137Y-90916333D01*
X137706228Y-90915542D01*
X137784935Y-90915163D01*
X137883740Y-90915067D01*
X137903767Y-90915068D01*
G36*
X149024870Y-91181041D02*
G01*
X149024622Y-91281956D01*
X149024583Y-91357617D01*
X149024328Y-91435526D01*
X149023684Y-91495536D01*
X149022480Y-91540264D01*
X149020543Y-91572326D01*
X149017703Y-91594340D01*
X149013788Y-91608924D01*
X149008626Y-91618694D01*
X149002045Y-91626267D01*
X148995077Y-91632501D01*
X148982079Y-91639801D01*
X148962931Y-91644554D01*
X148933528Y-91647292D01*
X148889762Y-91648545D01*
X148827528Y-91648845D01*
X148778582Y-91648469D01*
X148671722Y-91644041D01*
X148582494Y-91633953D01*
X148507696Y-91617365D01*
X148444125Y-91593435D01*
X148388579Y-91561321D01*
X148337854Y-91520182D01*
X148331866Y-91514330D01*
X148294999Y-91465821D01*
X148263899Y-91405013D01*
X148242417Y-91340769D01*
X148237136Y-91302026D01*
X148384353Y-91302026D01*
X148402635Y-91352961D01*
X148432305Y-91398878D01*
X148479002Y-91441287D01*
X148540392Y-91471090D01*
X148619538Y-91490226D01*
X148621028Y-91490464D01*
X148669999Y-91496256D01*
X148728693Y-91500396D01*
X148784734Y-91502004D01*
X148877867Y-91502089D01*
X148877867Y-91061822D01*
X148801667Y-91061808D01*
X148798639Y-91061817D01*
X148747519Y-91063782D01*
X148687416Y-91068507D01*
X148630708Y-91075035D01*
X148580750Y-91084331D01*
X148505998Y-91110600D01*
X148448489Y-91149899D01*
X148406988Y-91202933D01*
X148385771Y-91254200D01*
X148384353Y-91302026D01*
X148237136Y-91302026D01*
X148234400Y-91281956D01*
X148235679Y-91260739D01*
X148247991Y-91203323D01*
X148270520Y-91143413D01*
X148299750Y-91089363D01*
X148332167Y-91049532D01*
X148351708Y-91032510D01*
X148406420Y-90993322D01*
X148466723Y-90963193D01*
X148535919Y-90941232D01*
X148617311Y-90926550D01*
X148714200Y-90918259D01*
X148829889Y-90915467D01*
X148869371Y-90915066D01*
X148915082Y-90914653D01*
X148950883Y-90916457D01*
X148977974Y-90922739D01*
X148997556Y-90935759D01*
X149010830Y-90957778D01*
X149018998Y-90991055D01*
X149023260Y-91037851D01*
X149023857Y-91061822D01*
X149024817Y-91100427D01*
X149024870Y-91181041D01*
G37*
X149024870Y-91181041D02*
X149024622Y-91281956D01*
X149024583Y-91357617D01*
X149024328Y-91435526D01*
X149023684Y-91495536D01*
X149022480Y-91540264D01*
X149020543Y-91572326D01*
X149017703Y-91594340D01*
X149013788Y-91608924D01*
X149008626Y-91618694D01*
X149002045Y-91626267D01*
X148995077Y-91632501D01*
X148982079Y-91639801D01*
X148962931Y-91644554D01*
X148933528Y-91647292D01*
X148889762Y-91648545D01*
X148827528Y-91648845D01*
X148778582Y-91648469D01*
X148671722Y-91644041D01*
X148582494Y-91633953D01*
X148507696Y-91617365D01*
X148444125Y-91593435D01*
X148388579Y-91561321D01*
X148337854Y-91520182D01*
X148331866Y-91514330D01*
X148294999Y-91465821D01*
X148263899Y-91405013D01*
X148242417Y-91340769D01*
X148237136Y-91302026D01*
X148384353Y-91302026D01*
X148402635Y-91352961D01*
X148432305Y-91398878D01*
X148479002Y-91441287D01*
X148540392Y-91471090D01*
X148619538Y-91490226D01*
X148621028Y-91490464D01*
X148669999Y-91496256D01*
X148728693Y-91500396D01*
X148784734Y-91502004D01*
X148877867Y-91502089D01*
X148877867Y-91061822D01*
X148801667Y-91061808D01*
X148798639Y-91061817D01*
X148747519Y-91063782D01*
X148687416Y-91068507D01*
X148630708Y-91075035D01*
X148580750Y-91084331D01*
X148505998Y-91110600D01*
X148448489Y-91149899D01*
X148406988Y-91202933D01*
X148385771Y-91254200D01*
X148384353Y-91302026D01*
X148237136Y-91302026D01*
X148234400Y-91281956D01*
X148235679Y-91260739D01*
X148247991Y-91203323D01*
X148270520Y-91143413D01*
X148299750Y-91089363D01*
X148332167Y-91049532D01*
X148351708Y-91032510D01*
X148406420Y-90993322D01*
X148466723Y-90963193D01*
X148535919Y-90941232D01*
X148617311Y-90926550D01*
X148714200Y-90918259D01*
X148829889Y-90915467D01*
X148869371Y-90915066D01*
X148915082Y-90914653D01*
X148950883Y-90916457D01*
X148977974Y-90922739D01*
X148997556Y-90935759D01*
X149010830Y-90957778D01*
X149018998Y-90991055D01*
X149023260Y-91037851D01*
X149023857Y-91061822D01*
X149024817Y-91100427D01*
X149024870Y-91181041D01*
G36*
X139037702Y-90924478D02*
G01*
X139055663Y-90942989D01*
X139076263Y-90974071D01*
X139101095Y-91019756D01*
X139131750Y-91082078D01*
X139169820Y-91163071D01*
X139184454Y-91194454D01*
X139214203Y-91257638D01*
X139240297Y-91312244D01*
X139261292Y-91355290D01*
X139275739Y-91383793D01*
X139282191Y-91394770D01*
X139283550Y-91394189D01*
X139293542Y-91380242D01*
X139310833Y-91350704D01*
X139333430Y-91309087D01*
X139359338Y-91258903D01*
X139375311Y-91227414D01*
X139404261Y-91172061D01*
X139426749Y-91133044D01*
X139444965Y-91107566D01*
X139461096Y-91092831D01*
X139477330Y-91086042D01*
X139495857Y-91084400D01*
X139506360Y-91084875D01*
X139522476Y-91089082D01*
X139537790Y-91099946D01*
X139554388Y-91120219D01*
X139574357Y-91152654D01*
X139599783Y-91200004D01*
X139632752Y-91265022D01*
X139642485Y-91284277D01*
X139666943Y-91330946D01*
X139687178Y-91367109D01*
X139701311Y-91389497D01*
X139707460Y-91394845D01*
X139708827Y-91391573D01*
X139718202Y-91370664D01*
X139735062Y-91333725D01*
X139757979Y-91283874D01*
X139785520Y-91224226D01*
X139816255Y-91157898D01*
X139842970Y-91100677D01*
X139872593Y-91038688D01*
X139895664Y-90992949D01*
X139913643Y-90960908D01*
X139927990Y-90940014D01*
X139940166Y-90927718D01*
X139951632Y-90921466D01*
X139961042Y-90918574D01*
X139986147Y-90918425D01*
X140013290Y-90933768D01*
X140014590Y-90934753D01*
X140036674Y-90957388D01*
X140047723Y-90979613D01*
X140047769Y-90980253D01*
X140043228Y-90997915D01*
X140030364Y-91032481D01*
X140010605Y-91080826D01*
X139985381Y-91139825D01*
X139956119Y-91206355D01*
X139924250Y-91277291D01*
X139891201Y-91349507D01*
X139858401Y-91419880D01*
X139827280Y-91485285D01*
X139799265Y-91542597D01*
X139775786Y-91588692D01*
X139758272Y-91620446D01*
X139748151Y-91634733D01*
X139713743Y-91648102D01*
X139672046Y-91641741D01*
X139666681Y-91637044D01*
X139650852Y-91614893D01*
X139628650Y-91578132D01*
X139602233Y-91530415D01*
X139573760Y-91475393D01*
X139493986Y-91316150D01*
X139420799Y-91462742D01*
X139411103Y-91482032D01*
X139384125Y-91534380D01*
X139360096Y-91579170D01*
X139341332Y-91612154D01*
X139330146Y-91629089D01*
X139329000Y-91630332D01*
X139300879Y-91645619D01*
X139265817Y-91647302D01*
X139234776Y-91634733D01*
X139232350Y-91631884D01*
X139220090Y-91611259D01*
X139200352Y-91573708D01*
X139174448Y-91521880D01*
X139143685Y-91458423D01*
X139109375Y-91385985D01*
X139072825Y-91307216D01*
X139052585Y-91263093D01*
X139015812Y-91182365D01*
X138987355Y-91118687D01*
X138966331Y-91069752D01*
X138951854Y-91033257D01*
X138943039Y-91006895D01*
X138939004Y-90988361D01*
X138938862Y-90975352D01*
X138941730Y-90965561D01*
X138956387Y-90944678D01*
X138982990Y-90924377D01*
X138983745Y-90924035D01*
X139003335Y-90917034D01*
X139020790Y-90916504D01*
X139037702Y-90924478D01*
G37*
X139037702Y-90924478D02*
X139055663Y-90942989D01*
X139076263Y-90974071D01*
X139101095Y-91019756D01*
X139131750Y-91082078D01*
X139169820Y-91163071D01*
X139184454Y-91194454D01*
X139214203Y-91257638D01*
X139240297Y-91312244D01*
X139261292Y-91355290D01*
X139275739Y-91383793D01*
X139282191Y-91394770D01*
X139283550Y-91394189D01*
X139293542Y-91380242D01*
X139310833Y-91350704D01*
X139333430Y-91309087D01*
X139359338Y-91258903D01*
X139375311Y-91227414D01*
X139404261Y-91172061D01*
X139426749Y-91133044D01*
X139444965Y-91107566D01*
X139461096Y-91092831D01*
X139477330Y-91086042D01*
X139495857Y-91084400D01*
X139506360Y-91084875D01*
X139522476Y-91089082D01*
X139537790Y-91099946D01*
X139554388Y-91120219D01*
X139574357Y-91152654D01*
X139599783Y-91200004D01*
X139632752Y-91265022D01*
X139642485Y-91284277D01*
X139666943Y-91330946D01*
X139687178Y-91367109D01*
X139701311Y-91389497D01*
X139707460Y-91394845D01*
X139708827Y-91391573D01*
X139718202Y-91370664D01*
X139735062Y-91333725D01*
X139757979Y-91283874D01*
X139785520Y-91224226D01*
X139816255Y-91157898D01*
X139842970Y-91100677D01*
X139872593Y-91038688D01*
X139895664Y-90992949D01*
X139913643Y-90960908D01*
X139927990Y-90940014D01*
X139940166Y-90927718D01*
X139951632Y-90921466D01*
X139961042Y-90918574D01*
X139986147Y-90918425D01*
X140013290Y-90933768D01*
X140014590Y-90934753D01*
X140036674Y-90957388D01*
X140047723Y-90979613D01*
X140047769Y-90980253D01*
X140043228Y-90997915D01*
X140030364Y-91032481D01*
X140010605Y-91080826D01*
X139985381Y-91139825D01*
X139956119Y-91206355D01*
X139924250Y-91277291D01*
X139891201Y-91349507D01*
X139858401Y-91419880D01*
X139827280Y-91485285D01*
X139799265Y-91542597D01*
X139775786Y-91588692D01*
X139758272Y-91620446D01*
X139748151Y-91634733D01*
X139713743Y-91648102D01*
X139672046Y-91641741D01*
X139666681Y-91637044D01*
X139650852Y-91614893D01*
X139628650Y-91578132D01*
X139602233Y-91530415D01*
X139573760Y-91475393D01*
X139493986Y-91316150D01*
X139420799Y-91462742D01*
X139411103Y-91482032D01*
X139384125Y-91534380D01*
X139360096Y-91579170D01*
X139341332Y-91612154D01*
X139330146Y-91629089D01*
X139329000Y-91630332D01*
X139300879Y-91645619D01*
X139265817Y-91647302D01*
X139234776Y-91634733D01*
X139232350Y-91631884D01*
X139220090Y-91611259D01*
X139200352Y-91573708D01*
X139174448Y-91521880D01*
X139143685Y-91458423D01*
X139109375Y-91385985D01*
X139072825Y-91307216D01*
X139052585Y-91263093D01*
X139015812Y-91182365D01*
X138987355Y-91118687D01*
X138966331Y-91069752D01*
X138951854Y-91033257D01*
X138943039Y-91006895D01*
X138939004Y-90988361D01*
X138938862Y-90975352D01*
X138941730Y-90965561D01*
X138956387Y-90944678D01*
X138982990Y-90924377D01*
X138983745Y-90924035D01*
X139003335Y-90917034D01*
X139020790Y-90916504D01*
X139037702Y-90924478D01*
G36*
X149024059Y-86889011D02*
G01*
X149024362Y-87036216D01*
X149024548Y-87200349D01*
X149024642Y-87382352D01*
X149024671Y-87583165D01*
X149024661Y-87803732D01*
X149024636Y-88044992D01*
X149024622Y-88307889D01*
X149024622Y-88350040D01*
X149024646Y-88610668D01*
X149024685Y-88849796D01*
X149024708Y-89068360D01*
X149024687Y-89267295D01*
X149024593Y-89447535D01*
X149024395Y-89610015D01*
X149024063Y-89755670D01*
X149023569Y-89885434D01*
X149022883Y-90000243D01*
X149021976Y-90101030D01*
X149020817Y-90188730D01*
X149019378Y-90264279D01*
X149017629Y-90328611D01*
X149015540Y-90382661D01*
X149013083Y-90427363D01*
X149010227Y-90463652D01*
X149006943Y-90492463D01*
X149003202Y-90514731D01*
X148998974Y-90531390D01*
X148994229Y-90543375D01*
X148988939Y-90551621D01*
X148983073Y-90557062D01*
X148976602Y-90560634D01*
X148969497Y-90563270D01*
X148961728Y-90565906D01*
X148953266Y-90569477D01*
X148948908Y-90571145D01*
X148940395Y-90573111D01*
X148927694Y-90574911D01*
X148909885Y-90576555D01*
X148886049Y-90578047D01*
X148855266Y-90579397D01*
X148816617Y-90580611D01*
X148769182Y-90581697D01*
X148712043Y-90582661D01*
X148644279Y-90583511D01*
X148564971Y-90584253D01*
X148473199Y-90584897D01*
X148368044Y-90585447D01*
X148248587Y-90585913D01*
X148113908Y-90586300D01*
X147963088Y-90586616D01*
X147795206Y-90586869D01*
X147609345Y-90587066D01*
X147404583Y-90587213D01*
X147180002Y-90587318D01*
X146934682Y-90587389D01*
X146667704Y-90587432D01*
X146629321Y-90587437D01*
X146363922Y-90587480D01*
X146120050Y-90587525D01*
X145896783Y-90587548D01*
X145693196Y-90587524D01*
X145508367Y-90587430D01*
X145341373Y-90587243D01*
X145191290Y-90586939D01*
X145057196Y-90586494D01*
X144938166Y-90585885D01*
X144833279Y-90585089D01*
X144741610Y-90584080D01*
X144662237Y-90582837D01*
X144594237Y-90581335D01*
X144536686Y-90579551D01*
X144488662Y-90577461D01*
X144449240Y-90575042D01*
X144417499Y-90572270D01*
X144392514Y-90569121D01*
X144373364Y-90565572D01*
X144359123Y-90561598D01*
X144348871Y-90557178D01*
X144341682Y-90552286D01*
X144336635Y-90546900D01*
X144332805Y-90540996D01*
X144329271Y-90534549D01*
X144325108Y-90527537D01*
X144324025Y-90525687D01*
X144321813Y-90520180D01*
X144319786Y-90511868D01*
X144317938Y-90499809D01*
X144316261Y-90483063D01*
X144314745Y-90460687D01*
X144313383Y-90431740D01*
X144312167Y-90395280D01*
X144311089Y-90350367D01*
X144310140Y-90296057D01*
X144309312Y-90231410D01*
X144308597Y-90155484D01*
X144307987Y-90067338D01*
X144307942Y-90058493D01*
X144599378Y-90058493D01*
X144603260Y-90059765D01*
X144626520Y-90061791D01*
X144668874Y-90063626D01*
X144728132Y-90065227D01*
X144802107Y-90066549D01*
X144888610Y-90067548D01*
X144985452Y-90068180D01*
X145090445Y-90068400D01*
X145788651Y-90068400D01*
X146943090Y-90068400D01*
X146942456Y-89992200D01*
X146943574Y-89950160D01*
X146949304Y-89914334D01*
X146961890Y-89876772D01*
X146983568Y-89828577D01*
X146986789Y-89821897D01*
X147012188Y-89772359D01*
X147038996Y-89724369D01*
X147061917Y-89687466D01*
X147066485Y-89680834D01*
X147088516Y-89649593D01*
X147120693Y-89604654D01*
X147161457Y-89548147D01*
X147209245Y-89482204D01*
X147262498Y-89408957D01*
X147319655Y-89330536D01*
X147379155Y-89249072D01*
X147439437Y-89166698D01*
X147498940Y-89085544D01*
X147556105Y-89007742D01*
X147609370Y-88935423D01*
X147657174Y-88870718D01*
X147697957Y-88815759D01*
X147730158Y-88772676D01*
X147752216Y-88743602D01*
X147762571Y-88730667D01*
X147767044Y-88726351D01*
X147771236Y-88724312D01*
X147774643Y-88726926D01*
X147777325Y-88735986D01*
X147779341Y-88753285D01*
X147780748Y-88780614D01*
X147781605Y-88819765D01*
X147781970Y-88872533D01*
X147781903Y-88940707D01*
X147781460Y-89026082D01*
X147780702Y-89130449D01*
X147779685Y-89255600D01*
X147779308Y-89300300D01*
X147778169Y-89421395D01*
X147776972Y-89522688D01*
X147775636Y-89606262D01*
X147774077Y-89674204D01*
X147772215Y-89728599D01*
X147769966Y-89771532D01*
X147767248Y-89805089D01*
X147763979Y-89831355D01*
X147760078Y-89852416D01*
X147755461Y-89870357D01*
X147747192Y-89896770D01*
X147723583Y-89958772D01*
X147697685Y-90011573D01*
X147672535Y-90048645D01*
X147671339Y-90050075D01*
X147669168Y-90054424D01*
X147671328Y-90058026D01*
X147679644Y-90060951D01*
X147695940Y-90063269D01*
X147722041Y-90065051D01*
X147759771Y-90066367D01*
X147810956Y-90067286D01*
X147877420Y-90067878D01*
X147960987Y-90068215D01*
X148063483Y-90068365D01*
X148186732Y-90068400D01*
X148718296Y-90068400D01*
X148679523Y-90010783D01*
X148673432Y-90001893D01*
X148662976Y-89987069D01*
X148653579Y-89973422D01*
X148645183Y-89959765D01*
X148637733Y-89944911D01*
X148631173Y-89927670D01*
X148625446Y-89906855D01*
X148620495Y-89881280D01*
X148616266Y-89849755D01*
X148612701Y-89811093D01*
X148609744Y-89764107D01*
X148607340Y-89707608D01*
X148605431Y-89640409D01*
X148603962Y-89561322D01*
X148602876Y-89469160D01*
X148602118Y-89362734D01*
X148601630Y-89240857D01*
X148601358Y-89102341D01*
X148601243Y-88945999D01*
X148601231Y-88770642D01*
X148601265Y-88575082D01*
X148601289Y-88358133D01*
X148601280Y-88235513D01*
X148601243Y-88030447D01*
X148601227Y-87846116D01*
X148601288Y-87681334D01*
X148601484Y-87534916D01*
X148601870Y-87405674D01*
X148602505Y-87292422D01*
X148603444Y-87193975D01*
X148604745Y-87109144D01*
X148606464Y-87036744D01*
X148608659Y-86975589D01*
X148611385Y-86924492D01*
X148614701Y-86882267D01*
X148618662Y-86847727D01*
X148623325Y-86819686D01*
X148628747Y-86796958D01*
X148634986Y-86778356D01*
X148642097Y-86762693D01*
X148650138Y-86748784D01*
X148659166Y-86735441D01*
X148669236Y-86721479D01*
X148680407Y-86705711D01*
X148720197Y-86647867D01*
X147660314Y-86647867D01*
X147698311Y-86710966D01*
X147712993Y-86736005D01*
X147727531Y-86763586D01*
X147739627Y-86791700D01*
X147749532Y-86822551D01*
X147757494Y-86858344D01*
X147763761Y-86901283D01*
X147768582Y-86953574D01*
X147772206Y-87017419D01*
X147774881Y-87095025D01*
X147776857Y-87188594D01*
X147778382Y-87300333D01*
X147779704Y-87432445D01*
X147780613Y-87552434D01*
X147781020Y-87669063D01*
X147780767Y-87764531D01*
X147779857Y-87838556D01*
X147778293Y-87890855D01*
X147776079Y-87921149D01*
X147773220Y-87929156D01*
X147770161Y-87925858D01*
X147752006Y-87904408D01*
X147722275Y-87867889D01*
X147682639Y-87818442D01*
X147634771Y-87758207D01*
X147580343Y-87689327D01*
X147521027Y-87613943D01*
X147458495Y-87534196D01*
X147394421Y-87452228D01*
X147330475Y-87370180D01*
X147268331Y-87290194D01*
X147209661Y-87214411D01*
X147156137Y-87144973D01*
X147109430Y-87084021D01*
X147071214Y-87033696D01*
X147043161Y-86996140D01*
X147026943Y-86973495D01*
X146981635Y-86901212D01*
X146941661Y-86821463D01*
X146920130Y-86753188D01*
X146916827Y-86695844D01*
X146922116Y-86647867D01*
X145790356Y-86648117D01*
X145829867Y-86678722D01*
X145839248Y-86686089D01*
X145902183Y-86740438D01*
X145970997Y-86808259D01*
X146047596Y-86891516D01*
X146133888Y-86992178D01*
X146151052Y-87012847D01*
X146191833Y-87062409D01*
X146241588Y-87123326D01*
X146298955Y-87193898D01*
X146362569Y-87272424D01*
X146431069Y-87357204D01*
X146503090Y-87446537D01*
X146577270Y-87538722D01*
X146592517Y-87557702D01*
X146652246Y-87632060D01*
X146726653Y-87724848D01*
X146799131Y-87815388D01*
X146868314Y-87901978D01*
X146932841Y-87982918D01*
X146991347Y-88056506D01*
X147042470Y-88121044D01*
X147084847Y-88174829D01*
X147117115Y-88216162D01*
X147137910Y-88243342D01*
X147145869Y-88254668D01*
X147144111Y-88258771D01*
X147131230Y-88279334D01*
X147106885Y-88315561D01*
X147072247Y-88365824D01*
X147028486Y-88428492D01*
X146976775Y-88501936D01*
X146918284Y-88584527D01*
X146854184Y-88674636D01*
X146785646Y-88770631D01*
X146713843Y-88870885D01*
X146639944Y-88973768D01*
X146565121Y-89077650D01*
X146490545Y-89180901D01*
X146417387Y-89281892D01*
X146346819Y-89378994D01*
X146280011Y-89470577D01*
X146218135Y-89555011D01*
X146162361Y-89630667D01*
X146113862Y-89695916D01*
X146073807Y-89749128D01*
X146043369Y-89788673D01*
X146022944Y-89814026D01*
X145976899Y-89868295D01*
X145926612Y-89924775D01*
X145879815Y-89974669D01*
X145788651Y-90068400D01*
X145090445Y-90068400D01*
X145159356Y-90068349D01*
X145257607Y-90068091D01*
X145347030Y-90067637D01*
X145425333Y-90067010D01*
X145490223Y-90066235D01*
X145539411Y-90065335D01*
X145570604Y-90064334D01*
X145581511Y-90063257D01*
X145580322Y-90060037D01*
X145570176Y-90042452D01*
X145553040Y-90016158D01*
X145544540Y-90003691D01*
X145535329Y-89989622D01*
X145527233Y-89975351D01*
X145520185Y-89959479D01*
X145514117Y-89940609D01*
X145508961Y-89917341D01*
X145504651Y-89888278D01*
X145501119Y-89852021D01*
X145498297Y-89807170D01*
X145496118Y-89752328D01*
X145494514Y-89686097D01*
X145493419Y-89607077D01*
X145492765Y-89513871D01*
X145492484Y-89405079D01*
X145492509Y-89279303D01*
X145492772Y-89135145D01*
X145493206Y-88971207D01*
X145493745Y-88786089D01*
X145494279Y-88607232D01*
X145494805Y-88448374D01*
X145495350Y-88309316D01*
X145495945Y-88188665D01*
X145496619Y-88085028D01*
X145497403Y-87997011D01*
X145498326Y-87923223D01*
X145499419Y-87862269D01*
X145500712Y-87812757D01*
X145502235Y-87773293D01*
X145504019Y-87742484D01*
X145506092Y-87718938D01*
X145508486Y-87701260D01*
X145511230Y-87688059D01*
X145514356Y-87677940D01*
X145517892Y-87669511D01*
X145521791Y-87661375D01*
X145541438Y-87624544D01*
X145560225Y-87594391D01*
X145561272Y-87592908D01*
X145575602Y-87570659D01*
X145581511Y-87557702D01*
X145580504Y-87557249D01*
X145563305Y-87555803D01*
X145526656Y-87554480D01*
X145472962Y-87553316D01*
X145404630Y-87552347D01*
X145324064Y-87551611D01*
X145233670Y-87551142D01*
X145135853Y-87550978D01*
X144690195Y-87550978D01*
X144687120Y-88727845D01*
X144684045Y-89904711D01*
X144657407Y-89963622D01*
X144645485Y-89988183D01*
X144628246Y-90018434D01*
X144615074Y-90035560D01*
X144607076Y-90043591D01*
X144599378Y-90058493D01*
X144307942Y-90058493D01*
X144307474Y-89966029D01*
X144307050Y-89850617D01*
X144306706Y-89720160D01*
X144306434Y-89573716D01*
X144306227Y-89410344D01*
X144306076Y-89229101D01*
X144305972Y-89029048D01*
X144305908Y-88809241D01*
X144305876Y-88568739D01*
X144305867Y-88306602D01*
X144305867Y-86115031D01*
X144344249Y-86076649D01*
X144371355Y-86052911D01*
X144398253Y-86041111D01*
X144434560Y-86038267D01*
X144486489Y-86038267D01*
X144486489Y-86126206D01*
X144488427Y-86176102D01*
X144507199Y-86286523D01*
X144544217Y-86387987D01*
X144597369Y-86479152D01*
X144664546Y-86558673D01*
X144743638Y-86625205D01*
X144832534Y-86677406D01*
X144929125Y-86713930D01*
X145031300Y-86733434D01*
X145136950Y-86734573D01*
X145243964Y-86716005D01*
X145350232Y-86676384D01*
X145447219Y-86618516D01*
X145532293Y-86543684D01*
X145601015Y-86455615D01*
X145651918Y-86356616D01*
X145683535Y-86248993D01*
X145694400Y-86135054D01*
X145694400Y-86038267D01*
X147314753Y-86038267D01*
X147525897Y-86038280D01*
X147730020Y-86038330D01*
X147913686Y-86038430D01*
X148077991Y-86038592D01*
X148224029Y-86038829D01*
X148352894Y-86039153D01*
X148465683Y-86039575D01*
X148563488Y-86040109D01*
X148647404Y-86040767D01*
X148718527Y-86041561D01*
X148777950Y-86042504D01*
X148826768Y-86043608D01*
X148866077Y-86044884D01*
X148896969Y-86046347D01*
X148920541Y-86048007D01*
X148937886Y-86049878D01*
X148950099Y-86051972D01*
X148958275Y-86054300D01*
X148963508Y-86056876D01*
X148969504Y-86060445D01*
X148976279Y-86063978D01*
X148982478Y-86067488D01*
X148988126Y-86071918D01*
X148993247Y-86078208D01*
X148997869Y-86087301D01*
X149002015Y-86100139D01*
X149005713Y-86117662D01*
X149008987Y-86140813D01*
X149011863Y-86170534D01*
X149014367Y-86207765D01*
X149016524Y-86253449D01*
X149018360Y-86308527D01*
X149019900Y-86373941D01*
X149021170Y-86450633D01*
X149022195Y-86539544D01*
X149023001Y-86641617D01*
X149023034Y-86647867D01*
X149023614Y-86757792D01*
X149024059Y-86889011D01*
G37*
X149024059Y-86889011D02*
X149024362Y-87036216D01*
X149024548Y-87200349D01*
X149024642Y-87382352D01*
X149024671Y-87583165D01*
X149024661Y-87803732D01*
X149024636Y-88044992D01*
X149024622Y-88307889D01*
X149024622Y-88350040D01*
X149024646Y-88610668D01*
X149024685Y-88849796D01*
X149024708Y-89068360D01*
X149024687Y-89267295D01*
X149024593Y-89447535D01*
X149024395Y-89610015D01*
X149024063Y-89755670D01*
X149023569Y-89885434D01*
X149022883Y-90000243D01*
X149021976Y-90101030D01*
X149020817Y-90188730D01*
X149019378Y-90264279D01*
X149017629Y-90328611D01*
X149015540Y-90382661D01*
X149013083Y-90427363D01*
X149010227Y-90463652D01*
X149006943Y-90492463D01*
X149003202Y-90514731D01*
X148998974Y-90531390D01*
X148994229Y-90543375D01*
X148988939Y-90551621D01*
X148983073Y-90557062D01*
X148976602Y-90560634D01*
X148969497Y-90563270D01*
X148961728Y-90565906D01*
X148953266Y-90569477D01*
X148948908Y-90571145D01*
X148940395Y-90573111D01*
X148927694Y-90574911D01*
X148909885Y-90576555D01*
X148886049Y-90578047D01*
X148855266Y-90579397D01*
X148816617Y-90580611D01*
X148769182Y-90581697D01*
X148712043Y-90582661D01*
X148644279Y-90583511D01*
X148564971Y-90584253D01*
X148473199Y-90584897D01*
X148368044Y-90585447D01*
X148248587Y-90585913D01*
X148113908Y-90586300D01*
X147963088Y-90586616D01*
X147795206Y-90586869D01*
X147609345Y-90587066D01*
X147404583Y-90587213D01*
X147180002Y-90587318D01*
X146934682Y-90587389D01*
X146667704Y-90587432D01*
X146629321Y-90587437D01*
X146363922Y-90587480D01*
X146120050Y-90587525D01*
X145896783Y-90587548D01*
X145693196Y-90587524D01*
X145508367Y-90587430D01*
X145341373Y-90587243D01*
X145191290Y-90586939D01*
X145057196Y-90586494D01*
X144938166Y-90585885D01*
X144833279Y-90585089D01*
X144741610Y-90584080D01*
X144662237Y-90582837D01*
X144594237Y-90581335D01*
X144536686Y-90579551D01*
X144488662Y-90577461D01*
X144449240Y-90575042D01*
X144417499Y-90572270D01*
X144392514Y-90569121D01*
X144373364Y-90565572D01*
X144359123Y-90561598D01*
X144348871Y-90557178D01*
X144341682Y-90552286D01*
X144336635Y-90546900D01*
X144332805Y-90540996D01*
X144329271Y-90534549D01*
X144325108Y-90527537D01*
X144324025Y-90525687D01*
X144321813Y-90520180D01*
X144319786Y-90511868D01*
X144317938Y-90499809D01*
X144316261Y-90483063D01*
X144314745Y-90460687D01*
X144313383Y-90431740D01*
X144312167Y-90395280D01*
X144311089Y-90350367D01*
X144310140Y-90296057D01*
X144309312Y-90231410D01*
X144308597Y-90155484D01*
X144307987Y-90067338D01*
X144307942Y-90058493D01*
X144599378Y-90058493D01*
X144603260Y-90059765D01*
X144626520Y-90061791D01*
X144668874Y-90063626D01*
X144728132Y-90065227D01*
X144802107Y-90066549D01*
X144888610Y-90067548D01*
X144985452Y-90068180D01*
X145090445Y-90068400D01*
X145788651Y-90068400D01*
X146943090Y-90068400D01*
X146942456Y-89992200D01*
X146943574Y-89950160D01*
X146949304Y-89914334D01*
X146961890Y-89876772D01*
X146983568Y-89828577D01*
X146986789Y-89821897D01*
X147012188Y-89772359D01*
X147038996Y-89724369D01*
X147061917Y-89687466D01*
X147066485Y-89680834D01*
X147088516Y-89649593D01*
X147120693Y-89604654D01*
X147161457Y-89548147D01*
X147209245Y-89482204D01*
X147262498Y-89408957D01*
X147319655Y-89330536D01*
X147379155Y-89249072D01*
X147439437Y-89166698D01*
X147498940Y-89085544D01*
X147556105Y-89007742D01*
X147609370Y-88935423D01*
X147657174Y-88870718D01*
X147697957Y-88815759D01*
X147730158Y-88772676D01*
X147752216Y-88743602D01*
X147762571Y-88730667D01*
X147767044Y-88726351D01*
X147771236Y-88724312D01*
X147774643Y-88726926D01*
X147777325Y-88735986D01*
X147779341Y-88753285D01*
X147780748Y-88780614D01*
X147781605Y-88819765D01*
X147781970Y-88872533D01*
X147781903Y-88940707D01*
X147781460Y-89026082D01*
X147780702Y-89130449D01*
X147779685Y-89255600D01*
X147779308Y-89300300D01*
X147778169Y-89421395D01*
X147776972Y-89522688D01*
X147775636Y-89606262D01*
X147774077Y-89674204D01*
X147772215Y-89728599D01*
X147769966Y-89771532D01*
X147767248Y-89805089D01*
X147763979Y-89831355D01*
X147760078Y-89852416D01*
X147755461Y-89870357D01*
X147747192Y-89896770D01*
X147723583Y-89958772D01*
X147697685Y-90011573D01*
X147672535Y-90048645D01*
X147671339Y-90050075D01*
X147669168Y-90054424D01*
X147671328Y-90058026D01*
X147679644Y-90060951D01*
X147695940Y-90063269D01*
X147722041Y-90065051D01*
X147759771Y-90066367D01*
X147810956Y-90067286D01*
X147877420Y-90067878D01*
X147960987Y-90068215D01*
X148063483Y-90068365D01*
X148186732Y-90068400D01*
X148718296Y-90068400D01*
X148679523Y-90010783D01*
X148673432Y-90001893D01*
X148662976Y-89987069D01*
X148653579Y-89973422D01*
X148645183Y-89959765D01*
X148637733Y-89944911D01*
X148631173Y-89927670D01*
X148625446Y-89906855D01*
X148620495Y-89881280D01*
X148616266Y-89849755D01*
X148612701Y-89811093D01*
X148609744Y-89764107D01*
X148607340Y-89707608D01*
X148605431Y-89640409D01*
X148603962Y-89561322D01*
X148602876Y-89469160D01*
X148602118Y-89362734D01*
X148601630Y-89240857D01*
X148601358Y-89102341D01*
X148601243Y-88945999D01*
X148601231Y-88770642D01*
X148601265Y-88575082D01*
X148601289Y-88358133D01*
X148601280Y-88235513D01*
X148601243Y-88030447D01*
X148601227Y-87846116D01*
X148601288Y-87681334D01*
X148601484Y-87534916D01*
X148601870Y-87405674D01*
X148602505Y-87292422D01*
X148603444Y-87193975D01*
X148604745Y-87109144D01*
X148606464Y-87036744D01*
X148608659Y-86975589D01*
X148611385Y-86924492D01*
X148614701Y-86882267D01*
X148618662Y-86847727D01*
X148623325Y-86819686D01*
X148628747Y-86796958D01*
X148634986Y-86778356D01*
X148642097Y-86762693D01*
X148650138Y-86748784D01*
X148659166Y-86735441D01*
X148669236Y-86721479D01*
X148680407Y-86705711D01*
X148720197Y-86647867D01*
X147660314Y-86647867D01*
X147698311Y-86710966D01*
X147712993Y-86736005D01*
X147727531Y-86763586D01*
X147739627Y-86791700D01*
X147749532Y-86822551D01*
X147757494Y-86858344D01*
X147763761Y-86901283D01*
X147768582Y-86953574D01*
X147772206Y-87017419D01*
X147774881Y-87095025D01*
X147776857Y-87188594D01*
X147778382Y-87300333D01*
X147779704Y-87432445D01*
X147780613Y-87552434D01*
X147781020Y-87669063D01*
X147780767Y-87764531D01*
X147779857Y-87838556D01*
X147778293Y-87890855D01*
X147776079Y-87921149D01*
X147773220Y-87929156D01*
X147770161Y-87925858D01*
X147752006Y-87904408D01*
X147722275Y-87867889D01*
X147682639Y-87818442D01*
X147634771Y-87758207D01*
X147580343Y-87689327D01*
X147521027Y-87613943D01*
X147458495Y-87534196D01*
X147394421Y-87452228D01*
X147330475Y-87370180D01*
X147268331Y-87290194D01*
X147209661Y-87214411D01*
X147156137Y-87144973D01*
X147109430Y-87084021D01*
X147071214Y-87033696D01*
X147043161Y-86996140D01*
X147026943Y-86973495D01*
X146981635Y-86901212D01*
X146941661Y-86821463D01*
X146920130Y-86753188D01*
X146916827Y-86695844D01*
X146922116Y-86647867D01*
X145790356Y-86648117D01*
X145829867Y-86678722D01*
X145839248Y-86686089D01*
X145902183Y-86740438D01*
X145970997Y-86808259D01*
X146047596Y-86891516D01*
X146133888Y-86992178D01*
X146151052Y-87012847D01*
X146191833Y-87062409D01*
X146241588Y-87123326D01*
X146298955Y-87193898D01*
X146362569Y-87272424D01*
X146431069Y-87357204D01*
X146503090Y-87446537D01*
X146577270Y-87538722D01*
X146592517Y-87557702D01*
X146652246Y-87632060D01*
X146726653Y-87724848D01*
X146799131Y-87815388D01*
X146868314Y-87901978D01*
X146932841Y-87982918D01*
X146991347Y-88056506D01*
X147042470Y-88121044D01*
X147084847Y-88174829D01*
X147117115Y-88216162D01*
X147137910Y-88243342D01*
X147145869Y-88254668D01*
X147144111Y-88258771D01*
X147131230Y-88279334D01*
X147106885Y-88315561D01*
X147072247Y-88365824D01*
X147028486Y-88428492D01*
X146976775Y-88501936D01*
X146918284Y-88584527D01*
X146854184Y-88674636D01*
X146785646Y-88770631D01*
X146713843Y-88870885D01*
X146639944Y-88973768D01*
X146565121Y-89077650D01*
X146490545Y-89180901D01*
X146417387Y-89281892D01*
X146346819Y-89378994D01*
X146280011Y-89470577D01*
X146218135Y-89555011D01*
X146162361Y-89630667D01*
X146113862Y-89695916D01*
X146073807Y-89749128D01*
X146043369Y-89788673D01*
X146022944Y-89814026D01*
X145976899Y-89868295D01*
X145926612Y-89924775D01*
X145879815Y-89974669D01*
X145788651Y-90068400D01*
X145090445Y-90068400D01*
X145159356Y-90068349D01*
X145257607Y-90068091D01*
X145347030Y-90067637D01*
X145425333Y-90067010D01*
X145490223Y-90066235D01*
X145539411Y-90065335D01*
X145570604Y-90064334D01*
X145581511Y-90063257D01*
X145580322Y-90060037D01*
X145570176Y-90042452D01*
X145553040Y-90016158D01*
X145544540Y-90003691D01*
X145535329Y-89989622D01*
X145527233Y-89975351D01*
X145520185Y-89959479D01*
X145514117Y-89940609D01*
X145508961Y-89917341D01*
X145504651Y-89888278D01*
X145501119Y-89852021D01*
X145498297Y-89807170D01*
X145496118Y-89752328D01*
X145494514Y-89686097D01*
X145493419Y-89607077D01*
X145492765Y-89513871D01*
X145492484Y-89405079D01*
X145492509Y-89279303D01*
X145492772Y-89135145D01*
X145493206Y-88971207D01*
X145493745Y-88786089D01*
X145494279Y-88607232D01*
X145494805Y-88448374D01*
X145495350Y-88309316D01*
X145495945Y-88188665D01*
X145496619Y-88085028D01*
X145497403Y-87997011D01*
X145498326Y-87923223D01*
X145499419Y-87862269D01*
X145500712Y-87812757D01*
X145502235Y-87773293D01*
X145504019Y-87742484D01*
X145506092Y-87718938D01*
X145508486Y-87701260D01*
X145511230Y-87688059D01*
X145514356Y-87677940D01*
X145517892Y-87669511D01*
X145521791Y-87661375D01*
X145541438Y-87624544D01*
X145560225Y-87594391D01*
X145561272Y-87592908D01*
X145575602Y-87570659D01*
X145581511Y-87557702D01*
X145580504Y-87557249D01*
X145563305Y-87555803D01*
X145526656Y-87554480D01*
X145472962Y-87553316D01*
X145404630Y-87552347D01*
X145324064Y-87551611D01*
X145233670Y-87551142D01*
X145135853Y-87550978D01*
X144690195Y-87550978D01*
X144687120Y-88727845D01*
X144684045Y-89904711D01*
X144657407Y-89963622D01*
X144645485Y-89988183D01*
X144628246Y-90018434D01*
X144615074Y-90035560D01*
X144607076Y-90043591D01*
X144599378Y-90058493D01*
X144307942Y-90058493D01*
X144307474Y-89966029D01*
X144307050Y-89850617D01*
X144306706Y-89720160D01*
X144306434Y-89573716D01*
X144306227Y-89410344D01*
X144306076Y-89229101D01*
X144305972Y-89029048D01*
X144305908Y-88809241D01*
X144305876Y-88568739D01*
X144305867Y-88306602D01*
X144305867Y-86115031D01*
X144344249Y-86076649D01*
X144371355Y-86052911D01*
X144398253Y-86041111D01*
X144434560Y-86038267D01*
X144486489Y-86038267D01*
X144486489Y-86126206D01*
X144488427Y-86176102D01*
X144507199Y-86286523D01*
X144544217Y-86387987D01*
X144597369Y-86479152D01*
X144664546Y-86558673D01*
X144743638Y-86625205D01*
X144832534Y-86677406D01*
X144929125Y-86713930D01*
X145031300Y-86733434D01*
X145136950Y-86734573D01*
X145243964Y-86716005D01*
X145350232Y-86676384D01*
X145447219Y-86618516D01*
X145532293Y-86543684D01*
X145601015Y-86455615D01*
X145651918Y-86356616D01*
X145683535Y-86248993D01*
X145694400Y-86135054D01*
X145694400Y-86038267D01*
X147314753Y-86038267D01*
X147525897Y-86038280D01*
X147730020Y-86038330D01*
X147913686Y-86038430D01*
X148077991Y-86038592D01*
X148224029Y-86038829D01*
X148352894Y-86039153D01*
X148465683Y-86039575D01*
X148563488Y-86040109D01*
X148647404Y-86040767D01*
X148718527Y-86041561D01*
X148777950Y-86042504D01*
X148826768Y-86043608D01*
X148866077Y-86044884D01*
X148896969Y-86046347D01*
X148920541Y-86048007D01*
X148937886Y-86049878D01*
X148950099Y-86051972D01*
X148958275Y-86054300D01*
X148963508Y-86056876D01*
X148969504Y-86060445D01*
X148976279Y-86063978D01*
X148982478Y-86067488D01*
X148988126Y-86071918D01*
X148993247Y-86078208D01*
X148997869Y-86087301D01*
X149002015Y-86100139D01*
X149005713Y-86117662D01*
X149008987Y-86140813D01*
X149011863Y-86170534D01*
X149014367Y-86207765D01*
X149016524Y-86253449D01*
X149018360Y-86308527D01*
X149019900Y-86373941D01*
X149021170Y-86450633D01*
X149022195Y-86539544D01*
X149023001Y-86641617D01*
X149023034Y-86647867D01*
X149023614Y-86757792D01*
X149024059Y-86889011D01*
G36*
X145202562Y-85678850D02*
G01*
X145285313Y-85706053D01*
X145360406Y-85751484D01*
X145432298Y-85817302D01*
X145470846Y-85861567D01*
X145510256Y-85919961D01*
X145535446Y-85980586D01*
X145548861Y-86049865D01*
X145552948Y-86134222D01*
X145552669Y-86180307D01*
X145550460Y-86221450D01*
X145544894Y-86253582D01*
X145534586Y-86284122D01*
X145518148Y-86320489D01*
X145504200Y-86347728D01*
X145445665Y-86433429D01*
X145373619Y-86502617D01*
X145289947Y-86553741D01*
X145196531Y-86585250D01*
X145163434Y-86592225D01*
X145122960Y-86599094D01*
X145089999Y-86600919D01*
X145055698Y-86597947D01*
X145011200Y-86590426D01*
X144959934Y-86578002D01*
X144869434Y-86540112D01*
X144790345Y-86485836D01*
X144724528Y-86417770D01*
X144673840Y-86338511D01*
X144640140Y-86250654D01*
X144625286Y-86156795D01*
X144631136Y-86059530D01*
X144657399Y-85963220D01*
X144702418Y-85874494D01*
X144763373Y-85799419D01*
X144838184Y-85739641D01*
X144924768Y-85696809D01*
X145021043Y-85672571D01*
X145124928Y-85668576D01*
X145202562Y-85678850D01*
G37*
X145202562Y-85678850D02*
X145285313Y-85706053D01*
X145360406Y-85751484D01*
X145432298Y-85817302D01*
X145470846Y-85861567D01*
X145510256Y-85919961D01*
X145535446Y-85980586D01*
X145548861Y-86049865D01*
X145552948Y-86134222D01*
X145552669Y-86180307D01*
X145550460Y-86221450D01*
X145544894Y-86253582D01*
X145534586Y-86284122D01*
X145518148Y-86320489D01*
X145504200Y-86347728D01*
X145445665Y-86433429D01*
X145373619Y-86502617D01*
X145289947Y-86553741D01*
X145196531Y-86585250D01*
X145163434Y-86592225D01*
X145122960Y-86599094D01*
X145089999Y-86600919D01*
X145055698Y-86597947D01*
X145011200Y-86590426D01*
X144959934Y-86578002D01*
X144869434Y-86540112D01*
X144790345Y-86485836D01*
X144724528Y-86417770D01*
X144673840Y-86338511D01*
X144640140Y-86250654D01*
X144625286Y-86156795D01*
X144631136Y-86059530D01*
X144657399Y-85963220D01*
X144702418Y-85874494D01*
X144763373Y-85799419D01*
X144838184Y-85739641D01*
X144924768Y-85696809D01*
X145021043Y-85672571D01*
X145124928Y-85668576D01*
X145202562Y-85678850D01*
G36*
X144079893Y-90913892D02*
G01*
X144091301Y-90920029D01*
X144101850Y-90930691D01*
X144113136Y-90944811D01*
X144117589Y-90950772D01*
X144123588Y-90961268D01*
X144128167Y-90975093D01*
X144131519Y-90994998D01*
X144133833Y-91023732D01*
X144135301Y-91064045D01*
X144136113Y-91118687D01*
X144136460Y-91190407D01*
X144136534Y-91281956D01*
X144136511Y-91340486D01*
X144136292Y-91419573D01*
X144135683Y-91480516D01*
X144134492Y-91526062D01*
X144132529Y-91558963D01*
X144129603Y-91581968D01*
X144125523Y-91597826D01*
X144120097Y-91609286D01*
X144113136Y-91619100D01*
X144082708Y-91643493D01*
X144047765Y-91646372D01*
X144010784Y-91627282D01*
X144006600Y-91623807D01*
X143998424Y-91615279D01*
X143992364Y-91603728D01*
X143987981Y-91585896D01*
X143984839Y-91558524D01*
X143982502Y-91518354D01*
X143980531Y-91462128D01*
X143978489Y-91386589D01*
X143972845Y-91167458D01*
X143707556Y-91408099D01*
X143633722Y-91474875D01*
X143568542Y-91532991D01*
X143516348Y-91577949D01*
X143475273Y-91610871D01*
X143443455Y-91632879D01*
X143419026Y-91645094D01*
X143400124Y-91648639D01*
X143384883Y-91644636D01*
X143371439Y-91634207D01*
X143357927Y-91618474D01*
X143351682Y-91609991D01*
X143346050Y-91599413D01*
X143341839Y-91585255D01*
X143338887Y-91564803D01*
X143337032Y-91535342D01*
X143336113Y-91494161D01*
X143335968Y-91438544D01*
X143336435Y-91365779D01*
X143337352Y-91273151D01*
X143340667Y-90958199D01*
X143367318Y-90936633D01*
X143393383Y-90920441D01*
X143426241Y-90917670D01*
X143460772Y-90936623D01*
X143465084Y-90940208D01*
X143473216Y-90948737D01*
X143479245Y-90960329D01*
X143483606Y-90978235D01*
X143486734Y-91005706D01*
X143489063Y-91045994D01*
X143491029Y-91102351D01*
X143493067Y-91178029D01*
X143498711Y-91397878D01*
X143679334Y-91234084D01*
X143766072Y-91155451D01*
X143841843Y-91087058D01*
X143903980Y-91031708D01*
X143954078Y-90988338D01*
X143993735Y-90955881D01*
X144024548Y-90933273D01*
X144048114Y-90919448D01*
X144066030Y-90913343D01*
X144079893Y-90913892D01*
G37*
X144079893Y-90913892D02*
X144091301Y-90920029D01*
X144101850Y-90930691D01*
X144113136Y-90944811D01*
X144117589Y-90950772D01*
X144123588Y-90961268D01*
X144128167Y-90975093D01*
X144131519Y-90994998D01*
X144133833Y-91023732D01*
X144135301Y-91064045D01*
X144136113Y-91118687D01*
X144136460Y-91190407D01*
X144136534Y-91281956D01*
X144136511Y-91340486D01*
X144136292Y-91419573D01*
X144135683Y-91480516D01*
X144134492Y-91526062D01*
X144132529Y-91558963D01*
X144129603Y-91581968D01*
X144125523Y-91597826D01*
X144120097Y-91609286D01*
X144113136Y-91619100D01*
X144082708Y-91643493D01*
X144047765Y-91646372D01*
X144010784Y-91627282D01*
X144006600Y-91623807D01*
X143998424Y-91615279D01*
X143992364Y-91603728D01*
X143987981Y-91585896D01*
X143984839Y-91558524D01*
X143982502Y-91518354D01*
X143980531Y-91462128D01*
X143978489Y-91386589D01*
X143972845Y-91167458D01*
X143707556Y-91408099D01*
X143633722Y-91474875D01*
X143568542Y-91532991D01*
X143516348Y-91577949D01*
X143475273Y-91610871D01*
X143443455Y-91632879D01*
X143419026Y-91645094D01*
X143400124Y-91648639D01*
X143384883Y-91644636D01*
X143371439Y-91634207D01*
X143357927Y-91618474D01*
X143351682Y-91609991D01*
X143346050Y-91599413D01*
X143341839Y-91585255D01*
X143338887Y-91564803D01*
X143337032Y-91535342D01*
X143336113Y-91494161D01*
X143335968Y-91438544D01*
X143336435Y-91365779D01*
X143337352Y-91273151D01*
X143340667Y-90958199D01*
X143367318Y-90936633D01*
X143393383Y-90920441D01*
X143426241Y-90917670D01*
X143460772Y-90936623D01*
X143465084Y-90940208D01*
X143473216Y-90948737D01*
X143479245Y-90960329D01*
X143483606Y-90978235D01*
X143486734Y-91005706D01*
X143489063Y-91045994D01*
X143491029Y-91102351D01*
X143493067Y-91178029D01*
X143498711Y-91397878D01*
X143679334Y-91234084D01*
X143766072Y-91155451D01*
X143841843Y-91087058D01*
X143903980Y-91031708D01*
X143954078Y-90988338D01*
X143993735Y-90955881D01*
X144024548Y-90933273D01*
X144048114Y-90919448D01*
X144066030Y-90913343D01*
X144079893Y-90913892D01*
G36*
X147604734Y-90915083D02*
G01*
X147681831Y-90915275D01*
X147740777Y-90915860D01*
X147784364Y-90917051D01*
X147815383Y-90919064D01*
X147836625Y-90922112D01*
X147850882Y-90926409D01*
X147860945Y-90932172D01*
X147869606Y-90939612D01*
X147871391Y-90941293D01*
X147878635Y-90948832D01*
X147884277Y-90957850D01*
X147888517Y-90970984D01*
X147891556Y-90990872D01*
X147893594Y-91020151D01*
X147894830Y-91061458D01*
X147895465Y-91117431D01*
X147895700Y-91190707D01*
X147895734Y-91283923D01*
X147895697Y-91356713D01*
X147895448Y-91434889D01*
X147894812Y-91495103D01*
X147893615Y-91539982D01*
X147891684Y-91572152D01*
X147888846Y-91594239D01*
X147884927Y-91608870D01*
X147879755Y-91618670D01*
X147873156Y-91626267D01*
X147869822Y-91629444D01*
X147861300Y-91635554D01*
X147849298Y-91640229D01*
X147831087Y-91643659D01*
X147803940Y-91646036D01*
X147765129Y-91647552D01*
X147711924Y-91648398D01*
X147641598Y-91648765D01*
X147551422Y-91648845D01*
X147509314Y-91648833D01*
X147428167Y-91648651D01*
X147365675Y-91648098D01*
X147319109Y-91646982D01*
X147285741Y-91645113D01*
X147262844Y-91642298D01*
X147247688Y-91638346D01*
X147237546Y-91633066D01*
X147229689Y-91626267D01*
X147214963Y-91604667D01*
X147207111Y-91575467D01*
X147212610Y-91551560D01*
X147229689Y-91524667D01*
X147234668Y-91520059D01*
X147244443Y-91513772D01*
X147258559Y-91509146D01*
X147280054Y-91505930D01*
X147311968Y-91503870D01*
X147357342Y-91502712D01*
X147419213Y-91502202D01*
X147500622Y-91502089D01*
X147748978Y-91502089D01*
X147748978Y-91344045D01*
X147587801Y-91344045D01*
X147551983Y-91343899D01*
X147486359Y-91342176D01*
X147439118Y-91337741D01*
X147407383Y-91329637D01*
X147388277Y-91316906D01*
X147378923Y-91298592D01*
X147376445Y-91273738D01*
X147377242Y-91253482D01*
X147382494Y-91231656D01*
X147395288Y-91216304D01*
X147418628Y-91206309D01*
X147455517Y-91200553D01*
X147508959Y-91197919D01*
X147581958Y-91197289D01*
X147750105Y-91197289D01*
X147746719Y-91132378D01*
X147743334Y-91067467D01*
X147495617Y-91064418D01*
X147433026Y-91063539D01*
X147364565Y-91062095D01*
X147313661Y-91060164D01*
X147277408Y-91057514D01*
X147252901Y-91053910D01*
X147237235Y-91049121D01*
X147227506Y-91042913D01*
X147221491Y-91036510D01*
X147208482Y-91004828D01*
X147212043Y-90969142D01*
X147231818Y-90938084D01*
X147235069Y-90935161D01*
X147244049Y-90928810D01*
X147256153Y-90923957D01*
X147274159Y-90920403D01*
X147300847Y-90917946D01*
X147338997Y-90916385D01*
X147391386Y-90915518D01*
X147460794Y-90915146D01*
X147550001Y-90915067D01*
X147604734Y-90915083D01*
G37*
X147604734Y-90915083D02*
X147681831Y-90915275D01*
X147740777Y-90915860D01*
X147784364Y-90917051D01*
X147815383Y-90919064D01*
X147836625Y-90922112D01*
X147850882Y-90926409D01*
X147860945Y-90932172D01*
X147869606Y-90939612D01*
X147871391Y-90941293D01*
X147878635Y-90948832D01*
X147884277Y-90957850D01*
X147888517Y-90970984D01*
X147891556Y-90990872D01*
X147893594Y-91020151D01*
X147894830Y-91061458D01*
X147895465Y-91117431D01*
X147895700Y-91190707D01*
X147895734Y-91283923D01*
X147895697Y-91356713D01*
X147895448Y-91434889D01*
X147894812Y-91495103D01*
X147893615Y-91539982D01*
X147891684Y-91572152D01*
X147888846Y-91594239D01*
X147884927Y-91608870D01*
X147879755Y-91618670D01*
X147873156Y-91626267D01*
X147869822Y-91629444D01*
X147861300Y-91635554D01*
X147849298Y-91640229D01*
X147831087Y-91643659D01*
X147803940Y-91646036D01*
X147765129Y-91647552D01*
X147711924Y-91648398D01*
X147641598Y-91648765D01*
X147551422Y-91648845D01*
X147509314Y-91648833D01*
X147428167Y-91648651D01*
X147365675Y-91648098D01*
X147319109Y-91646982D01*
X147285741Y-91645113D01*
X147262844Y-91642298D01*
X147247688Y-91638346D01*
X147237546Y-91633066D01*
X147229689Y-91626267D01*
X147214963Y-91604667D01*
X147207111Y-91575467D01*
X147212610Y-91551560D01*
X147229689Y-91524667D01*
X147234668Y-91520059D01*
X147244443Y-91513772D01*
X147258559Y-91509146D01*
X147280054Y-91505930D01*
X147311968Y-91503870D01*
X147357342Y-91502712D01*
X147419213Y-91502202D01*
X147500622Y-91502089D01*
X147748978Y-91502089D01*
X147748978Y-91344045D01*
X147587801Y-91344045D01*
X147551983Y-91343899D01*
X147486359Y-91342176D01*
X147439118Y-91337741D01*
X147407383Y-91329637D01*
X147388277Y-91316906D01*
X147378923Y-91298592D01*
X147376445Y-91273738D01*
X147377242Y-91253482D01*
X147382494Y-91231656D01*
X147395288Y-91216304D01*
X147418628Y-91206309D01*
X147455517Y-91200553D01*
X147508959Y-91197919D01*
X147581958Y-91197289D01*
X147750105Y-91197289D01*
X147746719Y-91132378D01*
X147743334Y-91067467D01*
X147495617Y-91064418D01*
X147433026Y-91063539D01*
X147364565Y-91062095D01*
X147313661Y-91060164D01*
X147277408Y-91057514D01*
X147252901Y-91053910D01*
X147237235Y-91049121D01*
X147227506Y-91042913D01*
X147221491Y-91036510D01*
X147208482Y-91004828D01*
X147212043Y-90969142D01*
X147231818Y-90938084D01*
X147235069Y-90935161D01*
X147244049Y-90928810D01*
X147256153Y-90923957D01*
X147274159Y-90920403D01*
X147300847Y-90917946D01*
X147338997Y-90916385D01*
X147391386Y-90915518D01*
X147460794Y-90915146D01*
X147550001Y-90915067D01*
X147604734Y-90915083D01*
G36*
X142927803Y-90944811D02*
G01*
X142932752Y-90951495D01*
X142938596Y-90962066D01*
X142943057Y-90976153D01*
X142946321Y-90996478D01*
X142948574Y-91025765D01*
X142950002Y-91066737D01*
X142950792Y-91122117D01*
X142951129Y-91194628D01*
X142951200Y-91286994D01*
X142951171Y-91352911D01*
X142950939Y-91431228D01*
X142950319Y-91491496D01*
X142949126Y-91536393D01*
X142947179Y-91568602D01*
X142944294Y-91590800D01*
X142940288Y-91605669D01*
X142934979Y-91615889D01*
X142928183Y-91624138D01*
X142923668Y-91628795D01*
X142915438Y-91635282D01*
X142904078Y-91640194D01*
X142886810Y-91643749D01*
X142860855Y-91646167D01*
X142823436Y-91647667D01*
X142771773Y-91648467D01*
X142703089Y-91648787D01*
X142614606Y-91648845D01*
X142594931Y-91648838D01*
X142507906Y-91648572D01*
X142440254Y-91647806D01*
X142389299Y-91646392D01*
X142352367Y-91644180D01*
X142326783Y-91641022D01*
X142309871Y-91636769D01*
X142298957Y-91631271D01*
X142288464Y-91621285D01*
X142275203Y-91590168D01*
X142276386Y-91554280D01*
X142292550Y-91522733D01*
X142294739Y-91520457D01*
X142303427Y-91514189D01*
X142316769Y-91509523D01*
X142337752Y-91506227D01*
X142369363Y-91504068D01*
X142414590Y-91502814D01*
X142476420Y-91502231D01*
X142557839Y-91502089D01*
X142804445Y-91502089D01*
X142804445Y-91344045D01*
X142642006Y-91344045D01*
X142606338Y-91343964D01*
X142550568Y-91343167D01*
X142511430Y-91341162D01*
X142484976Y-91337521D01*
X142467259Y-91331812D01*
X142454329Y-91323607D01*
X142450686Y-91320423D01*
X142432278Y-91289448D01*
X142431644Y-91253112D01*
X142449183Y-91219493D01*
X142449245Y-91219424D01*
X142458916Y-91210798D01*
X142472209Y-91204742D01*
X142492917Y-91200811D01*
X142524828Y-91198556D01*
X142571734Y-91197531D01*
X142637424Y-91197289D01*
X142805571Y-91197289D01*
X142802186Y-91132378D01*
X142798800Y-91067467D01*
X142556723Y-91064414D01*
X142531707Y-91064086D01*
X142450087Y-91062606D01*
X142387768Y-91060222D01*
X142342154Y-91056227D01*
X142310652Y-91049913D01*
X142290667Y-91040574D01*
X142279604Y-91027503D01*
X142274869Y-91009992D01*
X142273867Y-90987335D01*
X142273873Y-90984970D01*
X142275027Y-90964939D01*
X142279824Y-90949146D01*
X142290632Y-90937090D01*
X142309817Y-90928267D01*
X142339745Y-90922175D01*
X142382783Y-90918311D01*
X142441299Y-90916174D01*
X142517657Y-90915260D01*
X142614226Y-90915067D01*
X142904406Y-90915067D01*
X142927803Y-90944811D01*
G37*
X142927803Y-90944811D02*
X142932752Y-90951495D01*
X142938596Y-90962066D01*
X142943057Y-90976153D01*
X142946321Y-90996478D01*
X142948574Y-91025765D01*
X142950002Y-91066737D01*
X142950792Y-91122117D01*
X142951129Y-91194628D01*
X142951200Y-91286994D01*
X142951171Y-91352911D01*
X142950939Y-91431228D01*
X142950319Y-91491496D01*
X142949126Y-91536393D01*
X142947179Y-91568602D01*
X142944294Y-91590800D01*
X142940288Y-91605669D01*
X142934979Y-91615889D01*
X142928183Y-91624138D01*
X142923668Y-91628795D01*
X142915438Y-91635282D01*
X142904078Y-91640194D01*
X142886810Y-91643749D01*
X142860855Y-91646167D01*
X142823436Y-91647667D01*
X142771773Y-91648467D01*
X142703089Y-91648787D01*
X142614606Y-91648845D01*
X142594931Y-91648838D01*
X142507906Y-91648572D01*
X142440254Y-91647806D01*
X142389299Y-91646392D01*
X142352367Y-91644180D01*
X142326783Y-91641022D01*
X142309871Y-91636769D01*
X142298957Y-91631271D01*
X142288464Y-91621285D01*
X142275203Y-91590168D01*
X142276386Y-91554280D01*
X142292550Y-91522733D01*
X142294739Y-91520457D01*
X142303427Y-91514189D01*
X142316769Y-91509523D01*
X142337752Y-91506227D01*
X142369363Y-91504068D01*
X142414590Y-91502814D01*
X142476420Y-91502231D01*
X142557839Y-91502089D01*
X142804445Y-91502089D01*
X142804445Y-91344045D01*
X142642006Y-91344045D01*
X142606338Y-91343964D01*
X142550568Y-91343167D01*
X142511430Y-91341162D01*
X142484976Y-91337521D01*
X142467259Y-91331812D01*
X142454329Y-91323607D01*
X142450686Y-91320423D01*
X142432278Y-91289448D01*
X142431644Y-91253112D01*
X142449183Y-91219493D01*
X142449245Y-91219424D01*
X142458916Y-91210798D01*
X142472209Y-91204742D01*
X142492917Y-91200811D01*
X142524828Y-91198556D01*
X142571734Y-91197531D01*
X142637424Y-91197289D01*
X142805571Y-91197289D01*
X142802186Y-91132378D01*
X142798800Y-91067467D01*
X142556723Y-91064414D01*
X142531707Y-91064086D01*
X142450087Y-91062606D01*
X142387768Y-91060222D01*
X142342154Y-91056227D01*
X142310652Y-91049913D01*
X142290667Y-91040574D01*
X142279604Y-91027503D01*
X142274869Y-91009992D01*
X142273867Y-90987335D01*
X142273873Y-90984970D01*
X142275027Y-90964939D01*
X142279824Y-90949146D01*
X142290632Y-90937090D01*
X142309817Y-90928267D01*
X142339745Y-90922175D01*
X142382783Y-90918311D01*
X142441299Y-90916174D01*
X142517657Y-90915260D01*
X142614226Y-90915067D01*
X142904406Y-90915067D01*
X142927803Y-90944811D01*
G36*
X138603406Y-90920949D02*
G01*
X138629127Y-90936647D01*
X138655778Y-90958227D01*
X138655778Y-91605684D01*
X138629127Y-91627264D01*
X138597767Y-91644739D01*
X138561966Y-91645575D01*
X138530528Y-91625082D01*
X138526652Y-91620416D01*
X138521186Y-91610949D01*
X138516979Y-91597267D01*
X138513867Y-91576748D01*
X138511687Y-91546768D01*
X138510276Y-91504704D01*
X138509471Y-91447932D01*
X138509107Y-91373830D01*
X138509022Y-91279773D01*
X138509022Y-90958227D01*
X138535673Y-90936647D01*
X138559386Y-90921877D01*
X138582400Y-90915067D01*
X138603406Y-90920949D01*
G37*
X138603406Y-90920949D02*
X138629127Y-90936647D01*
X138655778Y-90958227D01*
X138655778Y-91605684D01*
X138629127Y-91627264D01*
X138597767Y-91644739D01*
X138561966Y-91645575D01*
X138530528Y-91625082D01*
X138526652Y-91620416D01*
X138521186Y-91610949D01*
X138516979Y-91597267D01*
X138513867Y-91576748D01*
X138511687Y-91546768D01*
X138510276Y-91504704D01*
X138509471Y-91447932D01*
X138509107Y-91373830D01*
X138509022Y-91279773D01*
X138509022Y-90958227D01*
X138535673Y-90936647D01*
X138559386Y-90921877D01*
X138582400Y-90915067D01*
X138603406Y-90920949D01*
G36*
X137227734Y-90937645D02*
G01*
X137233366Y-90943835D01*
X137238456Y-90952041D01*
X137242543Y-90963817D01*
X137245721Y-90981276D01*
X137248087Y-91006530D01*
X137249738Y-91041690D01*
X137250769Y-91088869D01*
X137251277Y-91150177D01*
X137251359Y-91227727D01*
X137251109Y-91323631D01*
X137250625Y-91440000D01*
X137250557Y-91454175D01*
X137249971Y-91515937D01*
X137248648Y-91559620D01*
X137246103Y-91589001D01*
X137241848Y-91607855D01*
X137235396Y-91619959D01*
X137226262Y-91629089D01*
X137192804Y-91646506D01*
X137157856Y-91643604D01*
X137126953Y-91619100D01*
X137117944Y-91605897D01*
X137110492Y-91587361D01*
X137106124Y-91561333D01*
X137104069Y-91522787D01*
X137103556Y-91466700D01*
X137103556Y-91344045D01*
X136606845Y-91344045D01*
X136606845Y-91478871D01*
X136606772Y-91514662D01*
X136606009Y-91560992D01*
X136603833Y-91591526D01*
X136599536Y-91610557D01*
X136592412Y-91622374D01*
X136581755Y-91631271D01*
X136549504Y-91646341D01*
X136514217Y-91643673D01*
X136483486Y-91619100D01*
X136478831Y-91612845D01*
X136472895Y-91602321D01*
X136468364Y-91588391D01*
X136465048Y-91568317D01*
X136462759Y-91539360D01*
X136461308Y-91498780D01*
X136460505Y-91443840D01*
X136460162Y-91371799D01*
X136460089Y-91279920D01*
X136460089Y-90970485D01*
X136487798Y-90942776D01*
X136519177Y-90920533D01*
X136552406Y-90917844D01*
X136584267Y-90937645D01*
X136592553Y-90947415D01*
X136599965Y-90963307D01*
X136604302Y-90987275D01*
X136606338Y-91024148D01*
X136606845Y-91078756D01*
X136606845Y-91197289D01*
X137103556Y-91197289D01*
X137103556Y-91081776D01*
X137103994Y-91030078D01*
X137105958Y-90995554D01*
X137110474Y-90972978D01*
X137118567Y-90957126D01*
X137131265Y-90942776D01*
X137162643Y-90920533D01*
X137195872Y-90917844D01*
X137227734Y-90937645D01*
G37*
X137227734Y-90937645D02*
X137233366Y-90943835D01*
X137238456Y-90952041D01*
X137242543Y-90963817D01*
X137245721Y-90981276D01*
X137248087Y-91006530D01*
X137249738Y-91041690D01*
X137250769Y-91088869D01*
X137251277Y-91150177D01*
X137251359Y-91227727D01*
X137251109Y-91323631D01*
X137250625Y-91440000D01*
X137250557Y-91454175D01*
X137249971Y-91515937D01*
X137248648Y-91559620D01*
X137246103Y-91589001D01*
X137241848Y-91607855D01*
X137235396Y-91619959D01*
X137226262Y-91629089D01*
X137192804Y-91646506D01*
X137157856Y-91643604D01*
X137126953Y-91619100D01*
X137117944Y-91605897D01*
X137110492Y-91587361D01*
X137106124Y-91561333D01*
X137104069Y-91522787D01*
X137103556Y-91466700D01*
X137103556Y-91344045D01*
X136606845Y-91344045D01*
X136606845Y-91478871D01*
X136606772Y-91514662D01*
X136606009Y-91560992D01*
X136603833Y-91591526D01*
X136599536Y-91610557D01*
X136592412Y-91622374D01*
X136581755Y-91631271D01*
X136549504Y-91646341D01*
X136514217Y-91643673D01*
X136483486Y-91619100D01*
X136478831Y-91612845D01*
X136472895Y-91602321D01*
X136468364Y-91588391D01*
X136465048Y-91568317D01*
X136462759Y-91539360D01*
X136461308Y-91498780D01*
X136460505Y-91443840D01*
X136460162Y-91371799D01*
X136460089Y-91279920D01*
X136460089Y-90970485D01*
X136487798Y-90942776D01*
X136519177Y-90920533D01*
X136552406Y-90917844D01*
X136584267Y-90937645D01*
X136592553Y-90947415D01*
X136599965Y-90963307D01*
X136604302Y-90987275D01*
X136606338Y-91024148D01*
X136606845Y-91078756D01*
X136606845Y-91197289D01*
X137103556Y-91197289D01*
X137103556Y-91081776D01*
X137103994Y-91030078D01*
X137105958Y-90995554D01*
X137110474Y-90972978D01*
X137118567Y-90957126D01*
X137131265Y-90942776D01*
X137162643Y-90920533D01*
X137195872Y-90917844D01*
X137227734Y-90937645D01*
G36*
X144877150Y-90920179D02*
G01*
X144983157Y-90936494D01*
X145076969Y-90964545D01*
X145155765Y-91003452D01*
X145216719Y-91052334D01*
X145242789Y-91085195D01*
X145272297Y-91134394D01*
X145297568Y-91188252D01*
X145315218Y-91239419D01*
X145321858Y-91280544D01*
X145320298Y-91300259D01*
X145307357Y-91351592D01*
X145284194Y-91408118D01*
X145254302Y-91462035D01*
X145221173Y-91505539D01*
X145210977Y-91515887D01*
X145143892Y-91567662D01*
X145063766Y-91607554D01*
X144977556Y-91631956D01*
X144922592Y-91640068D01*
X144829139Y-91646673D01*
X144739358Y-91644586D01*
X144656869Y-91634340D01*
X144585286Y-91616470D01*
X144528228Y-91591508D01*
X144489311Y-91559988D01*
X144487936Y-91558012D01*
X144480848Y-91532786D01*
X144476609Y-91485535D01*
X144475200Y-91416071D01*
X144476060Y-91353838D01*
X144480780Y-91306456D01*
X144492470Y-91274353D01*
X144514239Y-91254800D01*
X144549198Y-91245070D01*
X144600456Y-91242433D01*
X144671123Y-91244161D01*
X144719743Y-91247173D01*
X144769939Y-91255366D01*
X144802433Y-91269419D01*
X144819892Y-91290654D01*
X144824983Y-91320394D01*
X144824877Y-91324936D01*
X144816175Y-91359730D01*
X144792165Y-91383147D01*
X144750900Y-91396347D01*
X144690431Y-91400489D01*
X144621956Y-91400489D01*
X144621956Y-91438841D01*
X144622006Y-91447976D01*
X144624227Y-91465227D01*
X144633494Y-91475521D01*
X144654875Y-91482459D01*
X144693436Y-91489641D01*
X144698910Y-91490575D01*
X144795860Y-91500478D01*
X144885852Y-91497559D01*
X144966760Y-91482829D01*
X145036459Y-91457299D01*
X145092824Y-91421978D01*
X145133729Y-91377879D01*
X145157051Y-91326012D01*
X145160663Y-91267388D01*
X145155145Y-91238494D01*
X145128461Y-91182604D01*
X145082273Y-91136945D01*
X145017291Y-91102108D01*
X144934229Y-91078690D01*
X144909555Y-91074241D01*
X144820226Y-91063742D01*
X144740419Y-91064971D01*
X144662326Y-91077906D01*
X144627183Y-91084696D01*
X144581745Y-91085713D01*
X144550430Y-91073182D01*
X144530277Y-91046395D01*
X144523893Y-91018148D01*
X144533379Y-90986924D01*
X144542708Y-90973499D01*
X144576943Y-90949967D01*
X144629565Y-90932095D01*
X144698081Y-90920599D01*
X144780000Y-90916192D01*
X144877150Y-90920179D01*
G37*
X144877150Y-90920179D02*
X144983157Y-90936494D01*
X145076969Y-90964545D01*
X145155765Y-91003452D01*
X145216719Y-91052334D01*
X145242789Y-91085195D01*
X145272297Y-91134394D01*
X145297568Y-91188252D01*
X145315218Y-91239419D01*
X145321858Y-91280544D01*
X145320298Y-91300259D01*
X145307357Y-91351592D01*
X145284194Y-91408118D01*
X145254302Y-91462035D01*
X145221173Y-91505539D01*
X145210977Y-91515887D01*
X145143892Y-91567662D01*
X145063766Y-91607554D01*
X144977556Y-91631956D01*
X144922592Y-91640068D01*
X144829139Y-91646673D01*
X144739358Y-91644586D01*
X144656869Y-91634340D01*
X144585286Y-91616470D01*
X144528228Y-91591508D01*
X144489311Y-91559988D01*
X144487936Y-91558012D01*
X144480848Y-91532786D01*
X144476609Y-91485535D01*
X144475200Y-91416071D01*
X144476060Y-91353838D01*
X144480780Y-91306456D01*
X144492470Y-91274353D01*
X144514239Y-91254800D01*
X144549198Y-91245070D01*
X144600456Y-91242433D01*
X144671123Y-91244161D01*
X144719743Y-91247173D01*
X144769939Y-91255366D01*
X144802433Y-91269419D01*
X144819892Y-91290654D01*
X144824983Y-91320394D01*
X144824877Y-91324936D01*
X144816175Y-91359730D01*
X144792165Y-91383147D01*
X144750900Y-91396347D01*
X144690431Y-91400489D01*
X144621956Y-91400489D01*
X144621956Y-91438841D01*
X144622006Y-91447976D01*
X144624227Y-91465227D01*
X144633494Y-91475521D01*
X144654875Y-91482459D01*
X144693436Y-91489641D01*
X144698910Y-91490575D01*
X144795860Y-91500478D01*
X144885852Y-91497559D01*
X144966760Y-91482829D01*
X145036459Y-91457299D01*
X145092824Y-91421978D01*
X145133729Y-91377879D01*
X145157051Y-91326012D01*
X145160663Y-91267388D01*
X145155145Y-91238494D01*
X145128461Y-91182604D01*
X145082273Y-91136945D01*
X145017291Y-91102108D01*
X144934229Y-91078690D01*
X144909555Y-91074241D01*
X144820226Y-91063742D01*
X144740419Y-91064971D01*
X144662326Y-91077906D01*
X144627183Y-91084696D01*
X144581745Y-91085713D01*
X144550430Y-91073182D01*
X144530277Y-91046395D01*
X144523893Y-91018148D01*
X144533379Y-90986924D01*
X144542708Y-90973499D01*
X144576943Y-90949967D01*
X144629565Y-90932095D01*
X144698081Y-90920599D01*
X144780000Y-90916192D01*
X144877150Y-90920179D01*
G36*
X141931163Y-91559175D02*
G01*
X141928235Y-91582095D01*
X141924158Y-91597897D01*
X141918743Y-91609319D01*
X141911803Y-91619100D01*
X141888406Y-91648845D01*
X141722714Y-91648251D01*
X141687918Y-91647953D01*
X141589435Y-91644522D01*
X141508473Y-91636839D01*
X141441379Y-91624282D01*
X141384496Y-91606227D01*
X141334169Y-91582052D01*
X141330810Y-91580135D01*
X141272998Y-91543417D01*
X141230644Y-91506451D01*
X141197828Y-91462966D01*
X141168628Y-91406689D01*
X141164346Y-91397073D01*
X141141769Y-91333887D01*
X141136034Y-91288333D01*
X141285279Y-91288333D01*
X141290892Y-91313061D01*
X141296618Y-91328939D01*
X141329548Y-91388847D01*
X141376886Y-91434600D01*
X141440652Y-91467736D01*
X141522861Y-91489790D01*
X141525655Y-91490292D01*
X141571940Y-91496255D01*
X141628336Y-91500483D01*
X141683274Y-91502089D01*
X141777156Y-91502089D01*
X141777156Y-91061822D01*
X141689667Y-91062270D01*
X141622747Y-91064746D01*
X141530349Y-91075998D01*
X141451034Y-91095537D01*
X141389060Y-91122511D01*
X141358120Y-91143240D01*
X141330000Y-91173006D01*
X141306660Y-91215434D01*
X141299533Y-91231400D01*
X141287709Y-91263902D01*
X141285279Y-91288333D01*
X141136034Y-91288333D01*
X141134797Y-91278509D01*
X141143399Y-91223483D01*
X141167541Y-91161351D01*
X141168337Y-91159658D01*
X141208788Y-91090236D01*
X141259473Y-91033638D01*
X141322198Y-90989070D01*
X141398774Y-90955741D01*
X141491009Y-90932861D01*
X141600712Y-90919636D01*
X141729691Y-90915275D01*
X141733263Y-90915270D01*
X141793283Y-90915410D01*
X141835214Y-90916446D01*
X141863328Y-90919040D01*
X141881897Y-90923853D01*
X141895194Y-90931544D01*
X141907491Y-90942776D01*
X141935200Y-90970485D01*
X141935200Y-91279920D01*
X141935175Y-91341526D01*
X141934950Y-91420311D01*
X141934332Y-91481021D01*
X141933775Y-91502089D01*
X141933133Y-91526396D01*
X141931163Y-91559175D01*
G37*
X141931163Y-91559175D02*
X141928235Y-91582095D01*
X141924158Y-91597897D01*
X141918743Y-91609319D01*
X141911803Y-91619100D01*
X141888406Y-91648845D01*
X141722714Y-91648251D01*
X141687918Y-91647953D01*
X141589435Y-91644522D01*
X141508473Y-91636839D01*
X141441379Y-91624282D01*
X141384496Y-91606227D01*
X141334169Y-91582052D01*
X141330810Y-91580135D01*
X141272998Y-91543417D01*
X141230644Y-91506451D01*
X141197828Y-91462966D01*
X141168628Y-91406689D01*
X141164346Y-91397073D01*
X141141769Y-91333887D01*
X141136034Y-91288333D01*
X141285279Y-91288333D01*
X141290892Y-91313061D01*
X141296618Y-91328939D01*
X141329548Y-91388847D01*
X141376886Y-91434600D01*
X141440652Y-91467736D01*
X141522861Y-91489790D01*
X141525655Y-91490292D01*
X141571940Y-91496255D01*
X141628336Y-91500483D01*
X141683274Y-91502089D01*
X141777156Y-91502089D01*
X141777156Y-91061822D01*
X141689667Y-91062270D01*
X141622747Y-91064746D01*
X141530349Y-91075998D01*
X141451034Y-91095537D01*
X141389060Y-91122511D01*
X141358120Y-91143240D01*
X141330000Y-91173006D01*
X141306660Y-91215434D01*
X141299533Y-91231400D01*
X141287709Y-91263902D01*
X141285279Y-91288333D01*
X141136034Y-91288333D01*
X141134797Y-91278509D01*
X141143399Y-91223483D01*
X141167541Y-91161351D01*
X141168337Y-91159658D01*
X141208788Y-91090236D01*
X141259473Y-91033638D01*
X141322198Y-90989070D01*
X141398774Y-90955741D01*
X141491009Y-90932861D01*
X141600712Y-90919636D01*
X141729691Y-90915275D01*
X141733263Y-90915270D01*
X141793283Y-90915410D01*
X141835214Y-90916446D01*
X141863328Y-90919040D01*
X141881897Y-90923853D01*
X141895194Y-90931544D01*
X141907491Y-90942776D01*
X141935200Y-90970485D01*
X141935200Y-91279920D01*
X141935175Y-91341526D01*
X141934950Y-91420311D01*
X141934332Y-91481021D01*
X141933775Y-91502089D01*
X141933133Y-91526396D01*
X141931163Y-91559175D01*
G36*
X142736711Y-86608033D02*
G01*
X142832268Y-86625523D01*
X142996558Y-86670564D01*
X143150589Y-86733656D01*
X143296509Y-86815915D01*
X143436466Y-86918457D01*
X143572608Y-87042399D01*
X143616473Y-87087661D01*
X143728758Y-87219865D01*
X143821972Y-87357832D01*
X143898719Y-87505750D01*
X143961603Y-87667803D01*
X143965420Y-87679391D01*
X144015507Y-87865392D01*
X144048899Y-88061521D01*
X144065584Y-88263568D01*
X144065551Y-88467325D01*
X144048791Y-88668581D01*
X144015292Y-88863128D01*
X143965044Y-89046756D01*
X143921190Y-89164053D01*
X143843348Y-89326951D01*
X143749828Y-89480866D01*
X143642822Y-89622671D01*
X143524519Y-89749239D01*
X143397111Y-89857441D01*
X143319606Y-89910120D01*
X143192725Y-89979750D01*
X143055243Y-90038468D01*
X142913716Y-90083587D01*
X142774702Y-90112422D01*
X142760597Y-90114106D01*
X142717153Y-90117434D01*
X142659723Y-90120275D01*
X142594122Y-90122373D01*
X142526167Y-90123468D01*
X142399378Y-90121140D01*
X142251673Y-90108136D01*
X142113779Y-90083133D01*
X141980014Y-90045318D01*
X141956562Y-90036889D01*
X141908612Y-90017408D01*
X141852140Y-89992473D01*
X141790379Y-89963722D01*
X141726563Y-89932790D01*
X141663926Y-89901315D01*
X141605703Y-89870934D01*
X141555127Y-89843283D01*
X141515433Y-89819999D01*
X141489854Y-89802718D01*
X141481625Y-89793079D01*
X141483076Y-89789984D01*
X141494250Y-89770079D01*
X141515134Y-89734420D01*
X141544265Y-89685459D01*
X141580181Y-89625646D01*
X141621420Y-89557433D01*
X141666517Y-89483271D01*
X141847785Y-89186008D01*
X141894315Y-89230539D01*
X141985723Y-89308865D01*
X142099334Y-89383439D01*
X142217122Y-89437474D01*
X142337559Y-89470290D01*
X142459117Y-89481211D01*
X142500585Y-89479868D01*
X142618080Y-89461612D01*
X142728089Y-89422617D01*
X142829430Y-89363670D01*
X142920921Y-89285557D01*
X143001380Y-89189064D01*
X143069627Y-89074978D01*
X143085908Y-89040724D01*
X143131982Y-88917240D01*
X143167106Y-88778918D01*
X143191197Y-88629561D01*
X143204173Y-88472973D01*
X143205949Y-88312956D01*
X143196443Y-88153314D01*
X143175572Y-87997850D01*
X143143252Y-87850366D01*
X143099399Y-87714667D01*
X143061982Y-87628076D01*
X142997185Y-87514688D01*
X142921772Y-87421070D01*
X142835418Y-87346959D01*
X142737795Y-87292094D01*
X142628577Y-87256212D01*
X142507439Y-87239051D01*
X142438038Y-87237880D01*
X142315168Y-87252141D01*
X142199664Y-87287241D01*
X142092953Y-87342682D01*
X141996464Y-87417964D01*
X141980720Y-87432440D01*
X141950150Y-87458962D01*
X141927809Y-87476138D01*
X141917691Y-87480787D01*
X141915706Y-87478597D01*
X141901241Y-87459721D01*
X141877400Y-87426397D01*
X141846029Y-87381380D01*
X141808974Y-87327425D01*
X141768083Y-87267285D01*
X141725202Y-87203718D01*
X141682178Y-87139476D01*
X141640857Y-87077315D01*
X141603086Y-87019991D01*
X141570712Y-86970257D01*
X141545582Y-86930868D01*
X141529542Y-86904580D01*
X141524439Y-86894147D01*
X141529050Y-86889941D01*
X141548267Y-86884933D01*
X141557838Y-86882386D01*
X141585809Y-86871249D01*
X141627448Y-86852802D01*
X141678995Y-86828725D01*
X141736690Y-86800699D01*
X141747957Y-86795154D01*
X141925687Y-86715889D01*
X142095490Y-86656385D01*
X142259430Y-86616245D01*
X142419571Y-86595071D01*
X142577977Y-86592466D01*
X142736711Y-86608033D01*
G37*
X142736711Y-86608033D02*
X142832268Y-86625523D01*
X142996558Y-86670564D01*
X143150589Y-86733656D01*
X143296509Y-86815915D01*
X143436466Y-86918457D01*
X143572608Y-87042399D01*
X143616473Y-87087661D01*
X143728758Y-87219865D01*
X143821972Y-87357832D01*
X143898719Y-87505750D01*
X143961603Y-87667803D01*
X143965420Y-87679391D01*
X144015507Y-87865392D01*
X144048899Y-88061521D01*
X144065584Y-88263568D01*
X144065551Y-88467325D01*
X144048791Y-88668581D01*
X144015292Y-88863128D01*
X143965044Y-89046756D01*
X143921190Y-89164053D01*
X143843348Y-89326951D01*
X143749828Y-89480866D01*
X143642822Y-89622671D01*
X143524519Y-89749239D01*
X143397111Y-89857441D01*
X143319606Y-89910120D01*
X143192725Y-89979750D01*
X143055243Y-90038468D01*
X142913716Y-90083587D01*
X142774702Y-90112422D01*
X142760597Y-90114106D01*
X142717153Y-90117434D01*
X142659723Y-90120275D01*
X142594122Y-90122373D01*
X142526167Y-90123468D01*
X142399378Y-90121140D01*
X142251673Y-90108136D01*
X142113779Y-90083133D01*
X141980014Y-90045318D01*
X141956562Y-90036889D01*
X141908612Y-90017408D01*
X141852140Y-89992473D01*
X141790379Y-89963722D01*
X141726563Y-89932790D01*
X141663926Y-89901315D01*
X141605703Y-89870934D01*
X141555127Y-89843283D01*
X141515433Y-89819999D01*
X141489854Y-89802718D01*
X141481625Y-89793079D01*
X141483076Y-89789984D01*
X141494250Y-89770079D01*
X141515134Y-89734420D01*
X141544265Y-89685459D01*
X141580181Y-89625646D01*
X141621420Y-89557433D01*
X141666517Y-89483271D01*
X141847785Y-89186008D01*
X141894315Y-89230539D01*
X141985723Y-89308865D01*
X142099334Y-89383439D01*
X142217122Y-89437474D01*
X142337559Y-89470290D01*
X142459117Y-89481211D01*
X142500585Y-89479868D01*
X142618080Y-89461612D01*
X142728089Y-89422617D01*
X142829430Y-89363670D01*
X142920921Y-89285557D01*
X143001380Y-89189064D01*
X143069627Y-89074978D01*
X143085908Y-89040724D01*
X143131982Y-88917240D01*
X143167106Y-88778918D01*
X143191197Y-88629561D01*
X143204173Y-88472973D01*
X143205949Y-88312956D01*
X143196443Y-88153314D01*
X143175572Y-87997850D01*
X143143252Y-87850366D01*
X143099399Y-87714667D01*
X143061982Y-87628076D01*
X142997185Y-87514688D01*
X142921772Y-87421070D01*
X142835418Y-87346959D01*
X142737795Y-87292094D01*
X142628577Y-87256212D01*
X142507439Y-87239051D01*
X142438038Y-87237880D01*
X142315168Y-87252141D01*
X142199664Y-87287241D01*
X142092953Y-87342682D01*
X141996464Y-87417964D01*
X141980720Y-87432440D01*
X141950150Y-87458962D01*
X141927809Y-87476138D01*
X141917691Y-87480787D01*
X141915706Y-87478597D01*
X141901241Y-87459721D01*
X141877400Y-87426397D01*
X141846029Y-87381380D01*
X141808974Y-87327425D01*
X141768083Y-87267285D01*
X141725202Y-87203718D01*
X141682178Y-87139476D01*
X141640857Y-87077315D01*
X141603086Y-87019991D01*
X141570712Y-86970257D01*
X141545582Y-86930868D01*
X141529542Y-86904580D01*
X141524439Y-86894147D01*
X141529050Y-86889941D01*
X141548267Y-86884933D01*
X141557838Y-86882386D01*
X141585809Y-86871249D01*
X141627448Y-86852802D01*
X141678995Y-86828725D01*
X141736690Y-86800699D01*
X141747957Y-86795154D01*
X141925687Y-86715889D01*
X142095490Y-86656385D01*
X142259430Y-86616245D01*
X142419571Y-86595071D01*
X142577977Y-86592466D01*
X142736711Y-86608033D01*
G36*
X145734137Y-90919463D02*
G01*
X145768291Y-90942776D01*
X145796000Y-90970485D01*
X145796000Y-91283537D01*
X145795959Y-91367567D01*
X145795701Y-91441789D01*
X145795030Y-91498541D01*
X145793752Y-91540512D01*
X145791673Y-91570389D01*
X145788599Y-91590861D01*
X145784334Y-91604614D01*
X145778684Y-91614337D01*
X145771455Y-91622717D01*
X145739991Y-91644181D01*
X145704826Y-91645947D01*
X145671822Y-91626267D01*
X145666516Y-91620398D01*
X145661066Y-91611314D01*
X145656900Y-91597973D01*
X145653846Y-91577757D01*
X145651732Y-91548049D01*
X145650386Y-91506232D01*
X145649638Y-91449689D01*
X145649314Y-91375802D01*
X145649245Y-91281956D01*
X145649284Y-91206294D01*
X145649539Y-91128385D01*
X145650183Y-91068375D01*
X145651387Y-91023648D01*
X145653324Y-90991585D01*
X145656164Y-90969571D01*
X145660079Y-90954987D01*
X145665242Y-90945218D01*
X145671822Y-90937645D01*
X145701006Y-90918623D01*
X145734137Y-90919463D01*
G37*
X145734137Y-90919463D02*
X145768291Y-90942776D01*
X145796000Y-90970485D01*
X145796000Y-91283537D01*
X145795959Y-91367567D01*
X145795701Y-91441789D01*
X145795030Y-91498541D01*
X145793752Y-91540512D01*
X145791673Y-91570389D01*
X145788599Y-91590861D01*
X145784334Y-91604614D01*
X145778684Y-91614337D01*
X145771455Y-91622717D01*
X145739991Y-91644181D01*
X145704826Y-91645947D01*
X145671822Y-91626267D01*
X145666516Y-91620398D01*
X145661066Y-91611314D01*
X145656900Y-91597973D01*
X145653846Y-91577757D01*
X145651732Y-91548049D01*
X145650386Y-91506232D01*
X145649638Y-91449689D01*
X145649314Y-91375802D01*
X145649245Y-91281956D01*
X145649284Y-91206294D01*
X145649539Y-91128385D01*
X145650183Y-91068375D01*
X145651387Y-91023648D01*
X145653324Y-90991585D01*
X145656164Y-90969571D01*
X145660079Y-90954987D01*
X145665242Y-90945218D01*
X145671822Y-90937645D01*
X145701006Y-90918623D01*
X145734137Y-90919463D01*
G36*
X141475261Y-89323363D02*
G01*
X141471632Y-89398202D01*
X141464022Y-89460401D01*
X141451688Y-89516984D01*
X141407313Y-89643076D01*
X141344400Y-89757679D01*
X141264238Y-89858568D01*
X141167740Y-89944924D01*
X141055822Y-90015932D01*
X140929397Y-90070776D01*
X140789378Y-90108638D01*
X140753149Y-90114351D01*
X140674155Y-90120313D01*
X140585841Y-90120646D01*
X140496075Y-90115659D01*
X140412722Y-90105666D01*
X140343651Y-90090978D01*
X140257187Y-90060749D01*
X140147286Y-90006057D01*
X140049956Y-89938543D01*
X139987867Y-89887556D01*
X139984605Y-89983622D01*
X139981343Y-90079689D01*
X139558450Y-90079689D01*
X139547543Y-90079686D01*
X139453056Y-90079380D01*
X139366331Y-90078616D01*
X139289837Y-90077451D01*
X139226043Y-90075942D01*
X139177418Y-90074147D01*
X139146433Y-90072121D01*
X139135556Y-90069922D01*
X139135578Y-90069463D01*
X139142614Y-90053910D01*
X139158434Y-90031071D01*
X139162734Y-90025638D01*
X139173777Y-90011606D01*
X139183311Y-89998186D01*
X139191461Y-89983722D01*
X139198352Y-89966556D01*
X139204111Y-89945034D01*
X139208862Y-89917498D01*
X139212731Y-89882292D01*
X139215844Y-89837760D01*
X139218325Y-89782246D01*
X139220300Y-89714093D01*
X139221894Y-89631645D01*
X139223234Y-89533246D01*
X139224444Y-89417239D01*
X139224896Y-89366462D01*
X140027378Y-89366462D01*
X140072048Y-89422973D01*
X140084785Y-89438212D01*
X140131604Y-89480844D01*
X140192255Y-89516672D01*
X140202897Y-89521850D01*
X140241676Y-89538745D01*
X140276692Y-89548909D01*
X140316722Y-89554325D01*
X140370541Y-89556978D01*
X140388648Y-89557383D01*
X140464011Y-89554540D01*
X140524743Y-89542620D01*
X140576452Y-89520037D01*
X140624746Y-89485211D01*
X140629803Y-89480798D01*
X140678272Y-89425160D01*
X140706459Y-89361333D01*
X140715752Y-89286282D01*
X140708520Y-89214693D01*
X140683796Y-89151645D01*
X140639249Y-89093758D01*
X140584319Y-89046808D01*
X140511894Y-89006961D01*
X140425340Y-88979263D01*
X140322670Y-88963096D01*
X140201894Y-88957842D01*
X140193007Y-88957857D01*
X140137660Y-88958655D01*
X140090736Y-88960488D01*
X140056953Y-88963111D01*
X140041028Y-88966274D01*
X140036943Y-88972741D01*
X140032572Y-88994875D01*
X140029604Y-89033988D01*
X140027914Y-89091939D01*
X140027378Y-89170586D01*
X140027378Y-89366462D01*
X139224896Y-89366462D01*
X139225649Y-89281968D01*
X139226975Y-89125778D01*
X139228228Y-88983012D01*
X139229651Y-88837942D01*
X139231176Y-88712027D01*
X139232933Y-88603436D01*
X139235051Y-88510334D01*
X139237660Y-88430891D01*
X139240890Y-88363273D01*
X139244869Y-88305649D01*
X139249728Y-88256185D01*
X139255597Y-88213050D01*
X139262604Y-88174410D01*
X139270880Y-88138434D01*
X139280554Y-88103289D01*
X139291756Y-88067142D01*
X139304616Y-88028161D01*
X139320090Y-87985091D01*
X139362994Y-87892871D01*
X139416735Y-87813099D01*
X139485576Y-87738965D01*
X139563185Y-87675405D01*
X139667761Y-87613725D01*
X139787244Y-87566202D01*
X139922508Y-87532567D01*
X140074426Y-87512552D01*
X140243872Y-87505889D01*
X140301890Y-87506287D01*
X140367398Y-87508335D01*
X140428693Y-87512704D01*
X140490097Y-87520035D01*
X140555932Y-87530969D01*
X140630520Y-87546147D01*
X140718184Y-87566209D01*
X140823245Y-87591797D01*
X140851806Y-87598820D01*
X140927054Y-87616776D01*
X140997388Y-87632820D01*
X141058567Y-87646028D01*
X141106354Y-87655474D01*
X141136511Y-87660231D01*
X141164783Y-87663910D01*
X141191060Y-87669187D01*
X141201059Y-87673942D01*
X141197952Y-87682781D01*
X141187194Y-87710072D01*
X141169864Y-87752906D01*
X141147126Y-87808425D01*
X141120147Y-87873772D01*
X141090090Y-87946089D01*
X141083493Y-87961879D01*
X141044907Y-88052484D01*
X141013768Y-88122217D01*
X140989917Y-88171405D01*
X140973198Y-88200374D01*
X140963454Y-88209452D01*
X140955766Y-88207405D01*
X140929415Y-88197760D01*
X140890982Y-88182190D01*
X140845822Y-88162815D01*
X140751293Y-88124814D01*
X140614480Y-88083780D01*
X140473289Y-88058612D01*
X140435314Y-88054611D01*
X140332059Y-88052447D01*
X140244952Y-88065622D01*
X140173129Y-88094756D01*
X140115731Y-88140466D01*
X140071896Y-88203372D01*
X140040762Y-88284092D01*
X140021470Y-88383245D01*
X140014050Y-88442224D01*
X140175936Y-88435445D01*
X140302495Y-88433813D01*
X140453951Y-88440194D01*
X140602396Y-88454777D01*
X140738578Y-88476882D01*
X140803245Y-88491821D01*
X140935490Y-88534741D01*
X141057762Y-88591340D01*
X141167685Y-88660017D01*
X141262883Y-88739170D01*
X141340980Y-88827196D01*
X141399599Y-88922493D01*
X141423595Y-88974864D01*
X141449232Y-89045590D01*
X141465478Y-89116812D01*
X141473822Y-89195712D01*
X141475690Y-89286282D01*
X141475755Y-89289467D01*
X141475261Y-89323363D01*
G37*
X141475261Y-89323363D02*
X141471632Y-89398202D01*
X141464022Y-89460401D01*
X141451688Y-89516984D01*
X141407313Y-89643076D01*
X141344400Y-89757679D01*
X141264238Y-89858568D01*
X141167740Y-89944924D01*
X141055822Y-90015932D01*
X140929397Y-90070776D01*
X140789378Y-90108638D01*
X140753149Y-90114351D01*
X140674155Y-90120313D01*
X140585841Y-90120646D01*
X140496075Y-90115659D01*
X140412722Y-90105666D01*
X140343651Y-90090978D01*
X140257187Y-90060749D01*
X140147286Y-90006057D01*
X140049956Y-89938543D01*
X139987867Y-89887556D01*
X139984605Y-89983622D01*
X139981343Y-90079689D01*
X139558450Y-90079689D01*
X139547543Y-90079686D01*
X139453056Y-90079380D01*
X139366331Y-90078616D01*
X139289837Y-90077451D01*
X139226043Y-90075942D01*
X139177418Y-90074147D01*
X139146433Y-90072121D01*
X139135556Y-90069922D01*
X139135578Y-90069463D01*
X139142614Y-90053910D01*
X139158434Y-90031071D01*
X139162734Y-90025638D01*
X139173777Y-90011606D01*
X139183311Y-89998186D01*
X139191461Y-89983722D01*
X139198352Y-89966556D01*
X139204111Y-89945034D01*
X139208862Y-89917498D01*
X139212731Y-89882292D01*
X139215844Y-89837760D01*
X139218325Y-89782246D01*
X139220300Y-89714093D01*
X139221894Y-89631645D01*
X139223234Y-89533246D01*
X139224444Y-89417239D01*
X139224896Y-89366462D01*
X140027378Y-89366462D01*
X140072048Y-89422973D01*
X140084785Y-89438212D01*
X140131604Y-89480844D01*
X140192255Y-89516672D01*
X140202897Y-89521850D01*
X140241676Y-89538745D01*
X140276692Y-89548909D01*
X140316722Y-89554325D01*
X140370541Y-89556978D01*
X140388648Y-89557383D01*
X140464011Y-89554540D01*
X140524743Y-89542620D01*
X140576452Y-89520037D01*
X140624746Y-89485211D01*
X140629803Y-89480798D01*
X140678272Y-89425160D01*
X140706459Y-89361333D01*
X140715752Y-89286282D01*
X140708520Y-89214693D01*
X140683796Y-89151645D01*
X140639249Y-89093758D01*
X140584319Y-89046808D01*
X140511894Y-89006961D01*
X140425340Y-88979263D01*
X140322670Y-88963096D01*
X140201894Y-88957842D01*
X140193007Y-88957857D01*
X140137660Y-88958655D01*
X140090736Y-88960488D01*
X140056953Y-88963111D01*
X140041028Y-88966274D01*
X140036943Y-88972741D01*
X140032572Y-88994875D01*
X140029604Y-89033988D01*
X140027914Y-89091939D01*
X140027378Y-89170586D01*
X140027378Y-89366462D01*
X139224896Y-89366462D01*
X139225649Y-89281968D01*
X139226975Y-89125778D01*
X139228228Y-88983012D01*
X139229651Y-88837942D01*
X139231176Y-88712027D01*
X139232933Y-88603436D01*
X139235051Y-88510334D01*
X139237660Y-88430891D01*
X139240890Y-88363273D01*
X139244869Y-88305649D01*
X139249728Y-88256185D01*
X139255597Y-88213050D01*
X139262604Y-88174410D01*
X139270880Y-88138434D01*
X139280554Y-88103289D01*
X139291756Y-88067142D01*
X139304616Y-88028161D01*
X139320090Y-87985091D01*
X139362994Y-87892871D01*
X139416735Y-87813099D01*
X139485576Y-87738965D01*
X139563185Y-87675405D01*
X139667761Y-87613725D01*
X139787244Y-87566202D01*
X139922508Y-87532567D01*
X140074426Y-87512552D01*
X140243872Y-87505889D01*
X140301890Y-87506287D01*
X140367398Y-87508335D01*
X140428693Y-87512704D01*
X140490097Y-87520035D01*
X140555932Y-87530969D01*
X140630520Y-87546147D01*
X140718184Y-87566209D01*
X140823245Y-87591797D01*
X140851806Y-87598820D01*
X140927054Y-87616776D01*
X140997388Y-87632820D01*
X141058567Y-87646028D01*
X141106354Y-87655474D01*
X141136511Y-87660231D01*
X141164783Y-87663910D01*
X141191060Y-87669187D01*
X141201059Y-87673942D01*
X141197952Y-87682781D01*
X141187194Y-87710072D01*
X141169864Y-87752906D01*
X141147126Y-87808425D01*
X141120147Y-87873772D01*
X141090090Y-87946089D01*
X141083493Y-87961879D01*
X141044907Y-88052484D01*
X141013768Y-88122217D01*
X140989917Y-88171405D01*
X140973198Y-88200374D01*
X140963454Y-88209452D01*
X140955766Y-88207405D01*
X140929415Y-88197760D01*
X140890982Y-88182190D01*
X140845822Y-88162815D01*
X140751293Y-88124814D01*
X140614480Y-88083780D01*
X140473289Y-88058612D01*
X140435314Y-88054611D01*
X140332059Y-88052447D01*
X140244952Y-88065622D01*
X140173129Y-88094756D01*
X140115731Y-88140466D01*
X140071896Y-88203372D01*
X140040762Y-88284092D01*
X140021470Y-88383245D01*
X140014050Y-88442224D01*
X140175936Y-88435445D01*
X140302495Y-88433813D01*
X140453951Y-88440194D01*
X140602396Y-88454777D01*
X140738578Y-88476882D01*
X140803245Y-88491821D01*
X140935490Y-88534741D01*
X141057762Y-88591340D01*
X141167685Y-88660017D01*
X141262883Y-88739170D01*
X141340980Y-88827196D01*
X141399599Y-88922493D01*
X141423595Y-88974864D01*
X141449232Y-89045590D01*
X141465478Y-89116812D01*
X141473822Y-89195712D01*
X141475690Y-89286282D01*
X141475755Y-89289467D01*
X141475261Y-89323363D01*
G36*
X146588853Y-90915936D02*
G01*
X146655100Y-90921366D01*
X146710400Y-90930964D01*
X146761283Y-90945825D01*
X146832595Y-90978958D01*
X146883752Y-91021640D01*
X146914575Y-91073705D01*
X146924889Y-91134983D01*
X146923952Y-91166232D01*
X146918160Y-91191029D01*
X146903353Y-91212699D01*
X146875380Y-91240049D01*
X146867402Y-91247378D01*
X146843692Y-91268281D01*
X146821298Y-91285251D01*
X146797265Y-91299205D01*
X146768637Y-91311056D01*
X146732460Y-91321720D01*
X146685780Y-91332111D01*
X146625641Y-91343146D01*
X146549090Y-91355738D01*
X146453171Y-91370804D01*
X146434808Y-91373838D01*
X146372478Y-91387458D01*
X146327260Y-91403192D01*
X146300976Y-91420263D01*
X146295447Y-91437897D01*
X146298068Y-91442168D01*
X146316000Y-91457233D01*
X146344126Y-91473867D01*
X146356926Y-91479857D01*
X146378224Y-91487050D01*
X146404610Y-91491827D01*
X146440454Y-91494646D01*
X146490128Y-91495964D01*
X146558000Y-91496237D01*
X146575785Y-91496164D01*
X146643406Y-91495053D01*
X146708345Y-91492828D01*
X146763970Y-91489762D01*
X146803651Y-91486127D01*
X146839162Y-91482059D01*
X146868415Y-91481276D01*
X146887315Y-91485876D01*
X146902429Y-91496551D01*
X146906085Y-91500144D01*
X146922427Y-91531918D01*
X146921107Y-91567572D01*
X146902150Y-91598190D01*
X146881780Y-91609796D01*
X146845796Y-91622491D01*
X146803372Y-91632541D01*
X146799922Y-91633140D01*
X146757252Y-91638356D01*
X146699866Y-91642730D01*
X146634849Y-91645818D01*
X146569289Y-91647177D01*
X146553057Y-91647218D01*
X146454744Y-91644741D01*
X146374692Y-91636735D01*
X146309513Y-91622203D01*
X146255817Y-91600149D01*
X146210216Y-91569576D01*
X146169323Y-91529486D01*
X146149202Y-91503259D01*
X146137576Y-91473712D01*
X146134667Y-91433995D01*
X146134808Y-91422026D01*
X146138681Y-91389345D01*
X146151065Y-91362819D01*
X146176230Y-91331971D01*
X146197442Y-91309831D01*
X146223838Y-91287285D01*
X146253555Y-91268917D01*
X146289785Y-91253661D01*
X146335717Y-91240449D01*
X146394544Y-91228214D01*
X146469456Y-91215889D01*
X146563645Y-91202406D01*
X146608957Y-91195396D01*
X146676911Y-91180837D01*
X146726047Y-91164337D01*
X146755614Y-91146439D01*
X146764864Y-91127685D01*
X146753048Y-91108615D01*
X146719416Y-91089771D01*
X146716370Y-91088557D01*
X146670011Y-91076479D01*
X146607361Y-91068279D01*
X146533927Y-91064119D01*
X146455217Y-91064161D01*
X146376739Y-91068569D01*
X146304000Y-91077505D01*
X146300073Y-91078154D01*
X146251257Y-91085861D01*
X146219005Y-91089473D01*
X146198008Y-91088876D01*
X146182954Y-91083954D01*
X146168534Y-91074596D01*
X146167364Y-91073725D01*
X146142847Y-91043351D01*
X146138054Y-91007850D01*
X146153860Y-90973269D01*
X146158406Y-90968813D01*
X146188020Y-90953673D01*
X146235002Y-90940550D01*
X146295306Y-90929750D01*
X146364888Y-90921581D01*
X146439703Y-90916351D01*
X146515706Y-90914367D01*
X146588853Y-90915936D01*
G37*
X146588853Y-90915936D02*
X146655100Y-90921366D01*
X146710400Y-90930964D01*
X146761283Y-90945825D01*
X146832595Y-90978958D01*
X146883752Y-91021640D01*
X146914575Y-91073705D01*
X146924889Y-91134983D01*
X146923952Y-91166232D01*
X146918160Y-91191029D01*
X146903353Y-91212699D01*
X146875380Y-91240049D01*
X146867402Y-91247378D01*
X146843692Y-91268281D01*
X146821298Y-91285251D01*
X146797265Y-91299205D01*
X146768637Y-91311056D01*
X146732460Y-91321720D01*
X146685780Y-91332111D01*
X146625641Y-91343146D01*
X146549090Y-91355738D01*
X146453171Y-91370804D01*
X146434808Y-91373838D01*
X146372478Y-91387458D01*
X146327260Y-91403192D01*
X146300976Y-91420263D01*
X146295447Y-91437897D01*
X146298068Y-91442168D01*
X146316000Y-91457233D01*
X146344126Y-91473867D01*
X146356926Y-91479857D01*
X146378224Y-91487050D01*
X146404610Y-91491827D01*
X146440454Y-91494646D01*
X146490128Y-91495964D01*
X146558000Y-91496237D01*
X146575785Y-91496164D01*
X146643406Y-91495053D01*
X146708345Y-91492828D01*
X146763970Y-91489762D01*
X146803651Y-91486127D01*
X146839162Y-91482059D01*
X146868415Y-91481276D01*
X146887315Y-91485876D01*
X146902429Y-91496551D01*
X146906085Y-91500144D01*
X146922427Y-91531918D01*
X146921107Y-91567572D01*
X146902150Y-91598190D01*
X146881780Y-91609796D01*
X146845796Y-91622491D01*
X146803372Y-91632541D01*
X146799922Y-91633140D01*
X146757252Y-91638356D01*
X146699866Y-91642730D01*
X146634849Y-91645818D01*
X146569289Y-91647177D01*
X146553057Y-91647218D01*
X146454744Y-91644741D01*
X146374692Y-91636735D01*
X146309513Y-91622203D01*
X146255817Y-91600149D01*
X146210216Y-91569576D01*
X146169323Y-91529486D01*
X146149202Y-91503259D01*
X146137576Y-91473712D01*
X146134667Y-91433995D01*
X146134808Y-91422026D01*
X146138681Y-91389345D01*
X146151065Y-91362819D01*
X146176230Y-91331971D01*
X146197442Y-91309831D01*
X146223838Y-91287285D01*
X146253555Y-91268917D01*
X146289785Y-91253661D01*
X146335717Y-91240449D01*
X146394544Y-91228214D01*
X146469456Y-91215889D01*
X146563645Y-91202406D01*
X146608957Y-91195396D01*
X146676911Y-91180837D01*
X146726047Y-91164337D01*
X146755614Y-91146439D01*
X146764864Y-91127685D01*
X146753048Y-91108615D01*
X146719416Y-91089771D01*
X146716370Y-91088557D01*
X146670011Y-91076479D01*
X146607361Y-91068279D01*
X146533927Y-91064119D01*
X146455217Y-91064161D01*
X146376739Y-91068569D01*
X146304000Y-91077505D01*
X146300073Y-91078154D01*
X146251257Y-91085861D01*
X146219005Y-91089473D01*
X146198008Y-91088876D01*
X146182954Y-91083954D01*
X146168534Y-91074596D01*
X146167364Y-91073725D01*
X146142847Y-91043351D01*
X146138054Y-91007850D01*
X146153860Y-90973269D01*
X146158406Y-90968813D01*
X146188020Y-90953673D01*
X146235002Y-90940550D01*
X146295306Y-90929750D01*
X146364888Y-90921581D01*
X146439703Y-90916351D01*
X146515706Y-90914367D01*
X146588853Y-90915936D01*
D13*
X116643000Y-84258000D02*
X116643000Y-81858000D01*
X114243000Y-81858000D02*
X114243000Y-84258000D01*
X116643000Y-81858000D02*
X114243000Y-81858000D01*
X114243000Y-84258000D02*
X116643000Y-84258000D01*
X114243000Y-78810000D02*
X114243000Y-81210000D01*
X116643000Y-78810000D02*
X114243000Y-78810000D01*
X114243000Y-81210000D02*
X116643000Y-81210000D01*
X116643000Y-81210000D02*
X116643000Y-78810000D01*
%LPC*%
D14*
X109025000Y-90482500D03*
D15*
X103025000Y-90482500D03*
D16*
X106025000Y-95182500D03*
D17*
X144700000Y-69342000D03*
D18*
X144700000Y-79502000D03*
D14*
X167990000Y-112717500D03*
D19*
X173990000Y-112717500D03*
D20*
X170990000Y-108017500D03*
D21*
X166624000Y-101854000D03*
D22*
X164124000Y-101854000D03*
D23*
X98472000Y-123524000D03*
D16*
X106025000Y-79942500D03*
D15*
X103025000Y-75242500D03*
D14*
X109025000Y-75242500D03*
D24*
X159645000Y-120140000D03*
D25*
X154645000Y-120140000D03*
D22*
X166624000Y-94996000D03*
X164124000Y-94996000D03*
D26*
X115733700Y-106462700D03*
X115733700Y-89317700D03*
X155205300Y-89317700D03*
X155205300Y-106488100D03*
D27*
X156210000Y-75934447D03*
D28*
X156210000Y-70934447D03*
D23*
X178388000Y-123524000D03*
X178388000Y-63420000D03*
D29*
X101870000Y-111280000D03*
D30*
X101870000Y-106280000D03*
D31*
X146050000Y-119888000D03*
D32*
X146050000Y-114808000D03*
D14*
X167990000Y-74617500D03*
D19*
X173990000Y-74617500D03*
D20*
X170990000Y-69917500D03*
D23*
X98472000Y-63420000D03*
D22*
X166624000Y-89916000D03*
X164124000Y-89916000D03*
D33*
X138910000Y-74422000D03*
X124710000Y-80422000D03*
X124710000Y-68422000D03*
X136910000Y-68422000D03*
X136910000Y-80422000D03*
D34*
X172283000Y-89916000D03*
D35*
X172283000Y-92456000D03*
X172283000Y-94996000D03*
D27*
X115443000Y-83058000D03*
X115443000Y-80010000D03*
M02*
