M48
; DRILL file {KiCad 7.0.2-6a45011f42~172~ubuntu22.04.1} date Wed 19 Apr 2023 09:38:49 PM IST
; FORMAT={-:-/ absolute / metric / decimal}
; #@! TF.CreationDate,2023-04-19T21:38:49+05:30
; #@! TF.GenerationSoftware,Kicad,Pcbnew,7.0.2-6a45011f42~172~ubuntu22.04.1
; #@! TF.FileFunction,Plated,1,2,PTH
FMAT,2
METRIC
; #@! TA.AperFunction,Plated,PTH,ViaDrill
T1C0.400
; #@! TA.AperFunction,Plated,PTH,ComponentDrill
T2C0.800
; #@! TA.AperFunction,Plated,PTH,ComponentDrill
T3C1.000
; #@! TA.AperFunction,Plated,PTH,ComponentDrill
T4C1.100
; #@! TA.AperFunction,Plated,PTH,ComponentDrill
T5C1.300
; #@! TA.AperFunction,Plated,PTH,ComponentDrill
T6C1.320
; #@! TA.AperFunction,Plated,PTH,ComponentDrill
T7C1.600
%
G90
G05
T1
X112.903Y-83.058
X115.443Y-77.343
T2
X164.124Y-89.916
X164.124Y-94.996
X164.124Y-101.854
X166.624Y-89.916
X166.624Y-94.996
X166.624Y-101.854
T3
X115.734Y-89.318
X115.734Y-106.463
X155.205Y-89.318
X155.205Y-106.488
X156.21Y-70.934
X156.21Y-75.934
T4
X172.283Y-89.916
X172.283Y-92.456
X172.283Y-94.996
T5
X146.05Y-114.808
X146.05Y-119.888
T6
X101.87Y-106.28
X101.87Y-111.28
X154.645Y-120.14
X159.645Y-120.14
T7
X125.73Y-69.85
X125.73Y-79.375
X140.97Y-69.85
X140.97Y-79.375
T3
X103.025Y-74.242G85X103.025Y-76.242
G05
X103.025Y-89.483G85X103.025Y-91.483
G05
X105.025Y-79.942G85X107.025Y-79.942
G05
X105.025Y-95.182G85X107.025Y-95.182
G05
X109.025Y-74.242G85X109.025Y-76.242
G05
X109.025Y-89.483G85X109.025Y-91.483
G05
X167.99Y-75.617G85X167.99Y-73.617
G05
X167.99Y-113.718G85X167.99Y-111.718
G05
X171.99Y-69.917G85X169.99Y-69.917
G05
X171.99Y-108.017G85X169.99Y-108.017
G05
X173.99Y-75.617G85X173.99Y-73.617
G05
X173.99Y-113.718G85X173.99Y-111.718
G05
T0
M30
