%TF.GenerationSoftware,KiCad,Pcbnew,7.0.2-6a45011f42~172~ubuntu22.04.1*%
%TF.CreationDate,2023-04-19T21:38:03+05:30*%
%TF.ProjectId,UPS_for_router,5550535f-666f-4725-9f72-6f757465722e,2*%
%TF.SameCoordinates,Original*%
%TF.FileFunction,Copper,L1,Top*%
%TF.FilePolarity,Positive*%
%FSLAX46Y46*%
G04 Gerber Fmt 4.6, Leading zero omitted, Abs format (unit mm)*
G04 Created by KiCad (PCBNEW 7.0.2-6a45011f42~172~ubuntu22.04.1) date 2023-04-19 21:38:03*
%MOMM*%
%LPD*%
G01*
G04 APERTURE LIST*
G04 Aperture macros list*
%AMRoundRect*
0 Rectangle with rounded corners*
0 $1 Rounding radius*
0 $2 $3 $4 $5 $6 $7 $8 $9 X,Y pos of 4 corners*
0 Add a 4 corners polygon primitive as box body*
4,1,4,$2,$3,$4,$5,$6,$7,$8,$9,$2,$3,0*
0 Add four circle primitives for the rounded corners*
1,1,$1+$1,$2,$3*
1,1,$1+$1,$4,$5*
1,1,$1+$1,$6,$7*
1,1,$1+$1,$8,$9*
0 Add four rect primitives between the rounded corners*
20,1,$1+$1,$2,$3,$4,$5,0*
20,1,$1+$1,$4,$5,$6,$7,0*
20,1,$1+$1,$6,$7,$8,$9,0*
20,1,$1+$1,$8,$9,$2,$3,0*%
G04 Aperture macros list end*
%TA.AperFunction,ComponentPad*%
%ADD10R,3.200000X3.200000*%
%TD*%
%TA.AperFunction,ComponentPad*%
%ADD11O,3.200000X3.200000*%
%TD*%
%TA.AperFunction,ComponentPad*%
%ADD12R,3.500000X3.500000*%
%TD*%
%TA.AperFunction,ComponentPad*%
%ADD13RoundRect,0.750000X-0.750000X-1.000000X0.750000X-1.000000X0.750000X1.000000X-0.750000X1.000000X0*%
%TD*%
%TA.AperFunction,ComponentPad*%
%ADD14RoundRect,0.875000X-0.875000X-0.875000X0.875000X-0.875000X0.875000X0.875000X-0.875000X0.875000X0*%
%TD*%
%TA.AperFunction,ComponentPad*%
%ADD15RoundRect,0.750000X0.750000X1.000000X-0.750000X1.000000X-0.750000X-1.000000X0.750000X-1.000000X0*%
%TD*%
%TA.AperFunction,ComponentPad*%
%ADD16RoundRect,0.875000X0.875000X0.875000X-0.875000X0.875000X-0.875000X-0.875000X0.875000X-0.875000X0*%
%TD*%
%TA.AperFunction,ComponentPad*%
%ADD17R,1.600000X1.600000*%
%TD*%
%TA.AperFunction,ComponentPad*%
%ADD18C,1.600000*%
%TD*%
%TA.AperFunction,ComponentPad*%
%ADD19R,1.980000X3.960000*%
%TD*%
%TA.AperFunction,ComponentPad*%
%ADD20O,1.980000X3.960000*%
%TD*%
%TA.AperFunction,ComponentPad*%
%ADD21R,2.000000X2.000000*%
%TD*%
%TA.AperFunction,ComponentPad*%
%ADD22C,2.000000*%
%TD*%
%TA.AperFunction,ComponentPad*%
%ADD23R,3.960000X1.980000*%
%TD*%
%TA.AperFunction,ComponentPad*%
%ADD24O,3.960000X1.980000*%
%TD*%
%TA.AperFunction,ComponentPad*%
%ADD25RoundRect,0.650000X0.650000X-0.650000X0.650000X0.650000X-0.650000X0.650000X-0.650000X-0.650000X0*%
%TD*%
%TA.AperFunction,ComponentPad*%
%ADD26C,2.600000*%
%TD*%
%TA.AperFunction,ComponentPad*%
%ADD27R,1.524000X1.524000*%
%TD*%
%TA.AperFunction,ComponentPad*%
%ADD28R,2.000000X1.905000*%
%TD*%
%TA.AperFunction,ComponentPad*%
%ADD29O,2.000000X1.905000*%
%TD*%
%TA.AperFunction,ViaPad*%
%ADD30C,0.800000*%
%TD*%
%TA.AperFunction,Conductor*%
%ADD31C,0.800000*%
%TD*%
G04 APERTURE END LIST*
D10*
X140970000Y-79375000D03*
D11*
X125730000Y-79375000D03*
D12*
X109025000Y-90482500D03*
D13*
X103025000Y-90482500D03*
D14*
X106025000Y-95182500D03*
D10*
X140970000Y-69850000D03*
D11*
X125730000Y-69850000D03*
D12*
X167990000Y-112717500D03*
D15*
X173990000Y-112717500D03*
D16*
X170990000Y-108017500D03*
D17*
X166624000Y-101854000D03*
D18*
X164124000Y-101854000D03*
D12*
X109025000Y-75242500D03*
D13*
X103025000Y-75242500D03*
D14*
X106025000Y-79942500D03*
D19*
X159645000Y-120140000D03*
D20*
X154645000Y-120140000D03*
D18*
X166624000Y-94996000D03*
X164124000Y-94996000D03*
D21*
X156210000Y-75934447D03*
D22*
X156210000Y-70934447D03*
D23*
X101870000Y-111280000D03*
D24*
X101870000Y-106280000D03*
D25*
X146050000Y-119888000D03*
D26*
X146050000Y-114808000D03*
D12*
X167990000Y-74617500D03*
D15*
X173990000Y-74617500D03*
D16*
X170990000Y-69917500D03*
D27*
X155205300Y-106488100D03*
X155205300Y-89317700D03*
X115733700Y-89317700D03*
X115733700Y-106462700D03*
D18*
X166624000Y-89916000D03*
X164124000Y-89916000D03*
D28*
X172283000Y-89916000D03*
D29*
X172283000Y-92456000D03*
X172283000Y-94996000D03*
D30*
X115443000Y-77343000D03*
X112903000Y-83058000D03*
D31*
X146050000Y-119888000D02*
X146302000Y-120140000D01*
%TA.AperFunction,Conductor*%
G36*
X113608039Y-81807685D02*
G01*
X113653794Y-81860489D01*
X113665000Y-81912000D01*
X113665000Y-86490000D01*
X113645315Y-86557039D01*
X113592511Y-86602794D01*
X113541000Y-86614000D01*
X112268000Y-86614000D01*
X112268000Y-98237583D01*
X112248315Y-98304622D01*
X112220422Y-98335234D01*
X106426000Y-102869999D01*
X106426000Y-108080000D01*
X106406315Y-108147039D01*
X106353511Y-108192794D01*
X106302000Y-108204000D01*
X99184000Y-108204000D01*
X99116961Y-108184315D01*
X99071206Y-108131511D01*
X99060000Y-108080000D01*
X99060000Y-106029999D01*
X99411114Y-106029999D01*
X99411116Y-106030000D01*
X101255832Y-106030000D01*
X101248357Y-106044242D01*
X101210000Y-106199862D01*
X101210000Y-106360138D01*
X101248357Y-106515758D01*
X101255832Y-106530000D01*
X99411115Y-106530000D01*
X99430643Y-106647028D01*
X99510819Y-106880573D01*
X99628348Y-107097746D01*
X99780014Y-107292608D01*
X99961687Y-107459849D01*
X100168407Y-107594906D01*
X100394536Y-107694096D01*
X100633913Y-107754715D01*
X100815821Y-107769788D01*
X100820937Y-107770000D01*
X101620000Y-107770000D01*
X101620000Y-106891057D01*
X101710892Y-106925528D01*
X101830081Y-106940000D01*
X101909919Y-106940000D01*
X102029108Y-106925528D01*
X102120000Y-106891057D01*
X102120000Y-107770000D01*
X102919063Y-107770000D01*
X102924178Y-107769788D01*
X103106086Y-107754715D01*
X103345463Y-107694096D01*
X103571592Y-107594906D01*
X103778312Y-107459849D01*
X103959985Y-107292608D01*
X104111651Y-107097746D01*
X104229180Y-106880573D01*
X104309356Y-106647028D01*
X104328885Y-106530000D01*
X102484168Y-106530000D01*
X102491643Y-106515758D01*
X102530000Y-106360138D01*
X102530000Y-106199862D01*
X102491643Y-106044242D01*
X102484168Y-106030000D01*
X104328884Y-106030000D01*
X104328885Y-106029999D01*
X104309356Y-105912971D01*
X104229180Y-105679426D01*
X104111651Y-105462253D01*
X103959985Y-105267391D01*
X103778312Y-105100150D01*
X103571592Y-104965093D01*
X103345463Y-104865903D01*
X103106086Y-104805284D01*
X102924178Y-104790211D01*
X102919063Y-104790000D01*
X102120000Y-104790000D01*
X102120000Y-105668942D01*
X102029108Y-105634472D01*
X101909919Y-105620000D01*
X101830081Y-105620000D01*
X101710892Y-105634472D01*
X101620000Y-105668942D01*
X101620000Y-104790000D01*
X100820937Y-104790000D01*
X100815821Y-104790211D01*
X100633913Y-104805284D01*
X100394536Y-104865903D01*
X100168407Y-104965093D01*
X99961687Y-105100150D01*
X99780014Y-105267391D01*
X99628348Y-105462253D01*
X99510819Y-105679426D01*
X99430643Y-105912971D01*
X99411114Y-106029999D01*
X99060000Y-106029999D01*
X99060000Y-102680365D01*
X99079685Y-102613326D01*
X99112636Y-102578959D01*
X105918000Y-97790000D01*
X105918000Y-97356999D01*
X105937685Y-97289961D01*
X105990489Y-97244206D01*
X106042000Y-97233000D01*
X106970412Y-97233000D01*
X106972552Y-97233000D01*
X107063099Y-97226715D01*
X107169131Y-97201776D01*
X107275165Y-97176838D01*
X107474454Y-97088843D01*
X107474454Y-97088842D01*
X107654182Y-96965726D01*
X107808226Y-96811682D01*
X107931343Y-96631954D01*
X108019338Y-96432664D01*
X108069215Y-96220599D01*
X108075500Y-96130052D01*
X108075500Y-94234948D01*
X108069215Y-94144401D01*
X108019338Y-93932336D01*
X108019338Y-93932334D01*
X107931343Y-93733045D01*
X107808226Y-93553318D01*
X107654181Y-93399273D01*
X107474454Y-93276156D01*
X107275165Y-93188161D01*
X107063098Y-93138284D01*
X106974694Y-93132148D01*
X106974674Y-93132147D01*
X106972552Y-93132000D01*
X106042000Y-93132000D01*
X105974961Y-93112315D01*
X105929206Y-93059511D01*
X105918000Y-93008000D01*
X105918000Y-92277018D01*
X106775000Y-92277018D01*
X106775354Y-92283632D01*
X106781400Y-92339871D01*
X106831647Y-92474589D01*
X106917811Y-92589688D01*
X107032910Y-92675852D01*
X107167628Y-92726099D01*
X107223867Y-92732145D01*
X107230482Y-92732500D01*
X108775000Y-92732500D01*
X108775000Y-91916186D01*
X108815156Y-91941993D01*
X108953111Y-91982500D01*
X109096889Y-91982500D01*
X109234844Y-91941993D01*
X109275000Y-91916186D01*
X109275000Y-92732500D01*
X110819518Y-92732500D01*
X110826132Y-92732145D01*
X110882371Y-92726099D01*
X111017089Y-92675852D01*
X111132188Y-92589688D01*
X111218352Y-92474589D01*
X111268599Y-92339871D01*
X111274645Y-92283632D01*
X111275000Y-92277018D01*
X111275000Y-90732500D01*
X109525000Y-90732500D01*
X109525000Y-90232500D01*
X111275000Y-90232500D01*
X111275000Y-88687981D01*
X111274645Y-88681367D01*
X111268599Y-88625128D01*
X111218352Y-88490410D01*
X111132188Y-88375311D01*
X111017089Y-88289147D01*
X110882371Y-88238900D01*
X110826132Y-88232854D01*
X110819518Y-88232500D01*
X109275000Y-88232500D01*
X109275000Y-89048813D01*
X109234844Y-89023007D01*
X109096889Y-88982500D01*
X108953111Y-88982500D01*
X108815156Y-89023007D01*
X108775000Y-89048813D01*
X108775000Y-88232500D01*
X107230482Y-88232500D01*
X107223867Y-88232854D01*
X107167628Y-88238900D01*
X107032910Y-88289147D01*
X106917811Y-88375311D01*
X106831647Y-88490410D01*
X106781400Y-88625128D01*
X106775354Y-88681367D01*
X106775000Y-88687981D01*
X106775000Y-90232500D01*
X108525000Y-90232500D01*
X108525000Y-90732500D01*
X106775000Y-90732500D01*
X106775000Y-92277018D01*
X105918000Y-92277018D01*
X105918000Y-84402863D01*
X105937685Y-84335824D01*
X105984247Y-84293133D01*
X110716887Y-81802270D01*
X110774640Y-81788000D01*
X113541000Y-81788000D01*
X113608039Y-81807685D01*
G37*
%TD.AperFunction*%
%TA.AperFunction,Conductor*%
G36*
X157423039Y-104159685D02*
G01*
X157468794Y-104212489D01*
X157480000Y-104264000D01*
X157480000Y-109096854D01*
X157460315Y-109163893D01*
X157407511Y-109209648D01*
X157356858Y-109220851D01*
X153659041Y-109246431D01*
X153659040Y-109246431D01*
X149341045Y-112549809D01*
X149351598Y-116971056D01*
X149332073Y-117038142D01*
X149279379Y-117084023D01*
X149227571Y-117095352D01*
X143125866Y-117094026D01*
X143058831Y-117074327D01*
X143013087Y-117021513D01*
X143001893Y-116970024D01*
X143001901Y-116567791D01*
X143001935Y-114807999D01*
X144244952Y-114807999D01*
X144265113Y-115077026D01*
X144325146Y-115340049D01*
X144423708Y-115591178D01*
X144558598Y-115824816D01*
X144612295Y-115892150D01*
X145447452Y-115056992D01*
X145457188Y-115086956D01*
X145545186Y-115225619D01*
X145664903Y-115338040D01*
X145799510Y-115412041D01*
X144964848Y-116246702D01*
X145147479Y-116371217D01*
X145390542Y-116488270D01*
X145648339Y-116567791D01*
X145915109Y-116608000D01*
X146184891Y-116608000D01*
X146451660Y-116567791D01*
X146709460Y-116488270D01*
X146952523Y-116371217D01*
X147135150Y-116246702D01*
X146297534Y-115409086D01*
X146365629Y-115382126D01*
X146498492Y-115285595D01*
X146603175Y-115159055D01*
X146651631Y-115056079D01*
X147487703Y-115892151D01*
X147487704Y-115892150D01*
X147541400Y-115824818D01*
X147676291Y-115591178D01*
X147774853Y-115340049D01*
X147834886Y-115077026D01*
X147855047Y-114807999D01*
X147834886Y-114538973D01*
X147774853Y-114275950D01*
X147676291Y-114024821D01*
X147541398Y-113791178D01*
X147487704Y-113723847D01*
X146652546Y-114559004D01*
X146642812Y-114529044D01*
X146554814Y-114390381D01*
X146435097Y-114277960D01*
X146300489Y-114203958D01*
X147135150Y-113369296D01*
X146952519Y-113244780D01*
X146709460Y-113127729D01*
X146451660Y-113048208D01*
X146184891Y-113008000D01*
X145915109Y-113008000D01*
X145648339Y-113048208D01*
X145390542Y-113127729D01*
X145147476Y-113244783D01*
X144964848Y-113369296D01*
X145802465Y-114206913D01*
X145734371Y-114233874D01*
X145601508Y-114330405D01*
X145496825Y-114456945D01*
X145448368Y-114559921D01*
X144612295Y-113723848D01*
X144558598Y-113791182D01*
X144423708Y-114024821D01*
X144325146Y-114275950D01*
X144265113Y-114538973D01*
X144244952Y-114807999D01*
X143001935Y-114807999D01*
X143001998Y-111568314D01*
X143021684Y-111501278D01*
X143052003Y-111468818D01*
X148665582Y-107294618D01*
X153943300Y-107294618D01*
X153943654Y-107301232D01*
X153949700Y-107357471D01*
X153999947Y-107492189D01*
X154086111Y-107607288D01*
X154201210Y-107693452D01*
X154335928Y-107743699D01*
X154392167Y-107749745D01*
X154398782Y-107750100D01*
X154955300Y-107750100D01*
X154955300Y-106923601D01*
X155062985Y-106972780D01*
X155169537Y-106988100D01*
X155241063Y-106988100D01*
X155347615Y-106972780D01*
X155455300Y-106923601D01*
X155455300Y-107750100D01*
X156011818Y-107750100D01*
X156018432Y-107749745D01*
X156074671Y-107743699D01*
X156209389Y-107693452D01*
X156324488Y-107607288D01*
X156410652Y-107492189D01*
X156460899Y-107357471D01*
X156466945Y-107301232D01*
X156467300Y-107294618D01*
X156467300Y-106738100D01*
X155638986Y-106738100D01*
X155664793Y-106697944D01*
X155705300Y-106559989D01*
X155705300Y-106416211D01*
X155664793Y-106278256D01*
X155638986Y-106238100D01*
X156467300Y-106238100D01*
X156467300Y-105681581D01*
X156466945Y-105674967D01*
X156460899Y-105618728D01*
X156410652Y-105484010D01*
X156324488Y-105368911D01*
X156209389Y-105282747D01*
X156074671Y-105232500D01*
X156018432Y-105226454D01*
X156011818Y-105226100D01*
X155455300Y-105226100D01*
X155455300Y-106052598D01*
X155347615Y-106003420D01*
X155241063Y-105988100D01*
X155169537Y-105988100D01*
X155062985Y-106003420D01*
X154955300Y-106052598D01*
X154955300Y-105226100D01*
X154398782Y-105226100D01*
X154392167Y-105226454D01*
X154335928Y-105232500D01*
X154201210Y-105282747D01*
X154086111Y-105368911D01*
X153999947Y-105484010D01*
X153949700Y-105618728D01*
X153943654Y-105674967D01*
X153943300Y-105681581D01*
X153943300Y-106238100D01*
X154771614Y-106238100D01*
X154745807Y-106278256D01*
X154705300Y-106416211D01*
X154705300Y-106559989D01*
X154745807Y-106697944D01*
X154771614Y-106738100D01*
X153943300Y-106738100D01*
X153943300Y-107294618D01*
X148665582Y-107294618D01*
X152875058Y-104164494D01*
X152940600Y-104140288D01*
X152949049Y-104140000D01*
X157356000Y-104140000D01*
X157423039Y-104159685D01*
G37*
%TD.AperFunction*%
%TA.AperFunction,Conductor*%
G36*
X128721039Y-75838685D02*
G01*
X128766794Y-75891489D01*
X128778000Y-75943000D01*
X128778000Y-87601036D01*
X128765169Y-87655967D01*
X118144128Y-109150931D01*
X118096783Y-109202313D01*
X118032959Y-109220000D01*
X113154000Y-109220000D01*
X113086961Y-109200315D01*
X113041206Y-109147511D01*
X113030000Y-109096000D01*
X113030000Y-107269218D01*
X114471700Y-107269218D01*
X114472054Y-107275832D01*
X114478100Y-107332071D01*
X114528347Y-107466789D01*
X114614511Y-107581888D01*
X114729610Y-107668052D01*
X114864328Y-107718299D01*
X114920567Y-107724345D01*
X114927182Y-107724700D01*
X115483699Y-107724700D01*
X115483699Y-106898201D01*
X115591385Y-106947380D01*
X115697937Y-106962700D01*
X115769463Y-106962700D01*
X115876015Y-106947380D01*
X115983699Y-106898201D01*
X115983699Y-107724700D01*
X116540218Y-107724700D01*
X116546832Y-107724345D01*
X116603071Y-107718299D01*
X116737789Y-107668052D01*
X116852888Y-107581888D01*
X116939052Y-107466789D01*
X116989299Y-107332071D01*
X116995345Y-107275832D01*
X116995700Y-107269218D01*
X116995700Y-106712700D01*
X116167386Y-106712700D01*
X116193193Y-106672544D01*
X116233700Y-106534589D01*
X116233700Y-106390811D01*
X116193193Y-106252856D01*
X116167386Y-106212700D01*
X116995700Y-106212700D01*
X116995700Y-105656181D01*
X116995345Y-105649567D01*
X116989299Y-105593328D01*
X116939052Y-105458610D01*
X116852888Y-105343511D01*
X116737789Y-105257347D01*
X116603071Y-105207100D01*
X116546832Y-105201054D01*
X116540218Y-105200700D01*
X115983700Y-105200700D01*
X115983699Y-106027198D01*
X115876015Y-105978020D01*
X115769463Y-105962700D01*
X115697937Y-105962700D01*
X115591385Y-105978020D01*
X115483699Y-106027198D01*
X115483700Y-105200700D01*
X114927182Y-105200700D01*
X114920567Y-105201054D01*
X114864328Y-105207100D01*
X114729610Y-105257347D01*
X114614511Y-105343511D01*
X114528347Y-105458610D01*
X114478100Y-105593328D01*
X114472054Y-105649567D01*
X114471700Y-105656181D01*
X114471700Y-106212700D01*
X115300014Y-106212700D01*
X115274207Y-106252856D01*
X115233700Y-106390811D01*
X115233700Y-106534589D01*
X115274207Y-106672544D01*
X115300014Y-106712700D01*
X114471700Y-106712700D01*
X114471700Y-107269218D01*
X113030000Y-107269218D01*
X113030000Y-104424969D01*
X113044563Y-104366668D01*
X122301000Y-86995000D01*
X122301000Y-79625000D01*
X123642193Y-79625000D01*
X123644409Y-79657399D01*
X123645559Y-79665761D01*
X123702285Y-79938740D01*
X123704570Y-79946897D01*
X123797935Y-80209600D01*
X123801305Y-80217359D01*
X123929577Y-80464913D01*
X123933973Y-80472141D01*
X124094752Y-80699913D01*
X124100095Y-80706481D01*
X124290398Y-80910246D01*
X124296573Y-80916014D01*
X124512850Y-81091967D01*
X124519768Y-81096851D01*
X124757987Y-81241715D01*
X124765489Y-81245602D01*
X125021228Y-81356686D01*
X125029181Y-81359512D01*
X125297669Y-81434739D01*
X125305938Y-81436457D01*
X125479999Y-81460380D01*
X125480000Y-81460380D01*
X125480000Y-80135083D01*
X125550857Y-80159877D01*
X125685074Y-80175000D01*
X125774926Y-80175000D01*
X125909143Y-80159877D01*
X125980000Y-80135083D01*
X125980000Y-81460380D01*
X126154061Y-81436457D01*
X126162330Y-81434739D01*
X126430818Y-81359512D01*
X126438771Y-81356686D01*
X126694510Y-81245602D01*
X126702012Y-81241715D01*
X126940231Y-81096851D01*
X126947149Y-81091967D01*
X127163426Y-80916014D01*
X127169601Y-80910246D01*
X127359904Y-80706481D01*
X127365247Y-80699913D01*
X127526026Y-80472141D01*
X127530422Y-80464913D01*
X127658694Y-80217359D01*
X127662064Y-80209600D01*
X127755429Y-79946897D01*
X127757714Y-79938740D01*
X127814440Y-79665761D01*
X127815590Y-79657399D01*
X127817807Y-79625000D01*
X126490083Y-79625000D01*
X126514877Y-79554143D01*
X126535062Y-79375000D01*
X126514877Y-79195857D01*
X126490083Y-79125000D01*
X127817807Y-79125000D01*
X127817806Y-79124999D01*
X127815590Y-79092600D01*
X127814440Y-79084238D01*
X127757714Y-78811259D01*
X127755429Y-78803102D01*
X127662064Y-78540399D01*
X127658694Y-78532640D01*
X127530422Y-78285086D01*
X127526026Y-78277858D01*
X127365247Y-78050086D01*
X127359904Y-78043518D01*
X127169601Y-77839753D01*
X127163426Y-77833985D01*
X126947149Y-77658032D01*
X126940231Y-77653148D01*
X126702012Y-77508284D01*
X126694510Y-77504397D01*
X126438771Y-77393313D01*
X126430818Y-77390487D01*
X126162335Y-77315261D01*
X126154057Y-77313541D01*
X125980000Y-77289618D01*
X125979999Y-78614916D01*
X125909143Y-78590123D01*
X125774926Y-78575000D01*
X125685074Y-78575000D01*
X125550857Y-78590123D01*
X125480000Y-78614916D01*
X125480000Y-77289618D01*
X125305942Y-77313541D01*
X125297664Y-77315261D01*
X125029181Y-77390487D01*
X125021228Y-77393313D01*
X124765489Y-77504397D01*
X124757987Y-77508284D01*
X124519768Y-77653148D01*
X124512850Y-77658032D01*
X124296573Y-77833985D01*
X124290398Y-77839753D01*
X124100095Y-78043518D01*
X124094752Y-78050086D01*
X123933973Y-78277858D01*
X123929577Y-78285086D01*
X123801305Y-78532640D01*
X123797935Y-78540399D01*
X123704570Y-78803102D01*
X123702285Y-78811259D01*
X123645559Y-79084238D01*
X123644409Y-79092600D01*
X123642193Y-79124999D01*
X123642193Y-79125000D01*
X124969917Y-79125000D01*
X124945123Y-79195857D01*
X124924938Y-79375000D01*
X124945123Y-79554143D01*
X124969917Y-79625000D01*
X123642193Y-79625000D01*
X122301000Y-79625000D01*
X122301000Y-75942999D01*
X122320685Y-75875961D01*
X122373489Y-75830206D01*
X122425000Y-75819000D01*
X128654000Y-75819000D01*
X128721039Y-75838685D01*
G37*
%TD.AperFunction*%
%TA.AperFunction,Conductor*%
G36*
X156915039Y-116859685D02*
G01*
X156960794Y-116912489D01*
X156972000Y-116964000D01*
X156972000Y-123066000D01*
X156952315Y-123133039D01*
X156899511Y-123178794D01*
X156848000Y-123190000D01*
X143126000Y-123190000D01*
X143058961Y-123170315D01*
X143013206Y-123117511D01*
X143002000Y-123066000D01*
X143002000Y-119638000D01*
X144250000Y-119638000D01*
X145449272Y-119638000D01*
X145426900Y-119685543D01*
X145396127Y-119846862D01*
X145406439Y-120010766D01*
X145447780Y-120138000D01*
X144250001Y-120138000D01*
X144250001Y-120606842D01*
X144250148Y-120611100D01*
X144256148Y-120697566D01*
X144304943Y-120905026D01*
X144391028Y-121099988D01*
X144511477Y-121275823D01*
X144662176Y-121426522D01*
X144838011Y-121546971D01*
X145032973Y-121633056D01*
X145240439Y-121681852D01*
X145326872Y-121687851D01*
X145331154Y-121687999D01*
X145799999Y-121687999D01*
X145800000Y-121687998D01*
X145800000Y-120492310D01*
X145808817Y-120497158D01*
X145967886Y-120538000D01*
X146090894Y-120538000D01*
X146212933Y-120522583D01*
X146300000Y-120488110D01*
X146300000Y-121687999D01*
X146768843Y-121687999D01*
X146773100Y-121687851D01*
X146859566Y-121681851D01*
X147067026Y-121633056D01*
X147261988Y-121546971D01*
X147437823Y-121426522D01*
X147588522Y-121275823D01*
X147708971Y-121099988D01*
X147795056Y-120905026D01*
X147843852Y-120697560D01*
X147849851Y-120611127D01*
X147850000Y-120606844D01*
X147850000Y-120138000D01*
X146650728Y-120138000D01*
X146673100Y-120090457D01*
X146703873Y-119929138D01*
X146701411Y-119889999D01*
X153154999Y-119889999D01*
X153155000Y-119890000D01*
X154030832Y-119890000D01*
X154023357Y-119904242D01*
X153985000Y-120059862D01*
X153985000Y-120220138D01*
X154023357Y-120375758D01*
X154030832Y-120390000D01*
X153155000Y-120390000D01*
X153155000Y-121189063D01*
X153155211Y-121194178D01*
X153170284Y-121376086D01*
X153230903Y-121615463D01*
X153330093Y-121841592D01*
X153465150Y-122048312D01*
X153632391Y-122229985D01*
X153827253Y-122381651D01*
X154044426Y-122499180D01*
X154277971Y-122579356D01*
X154394999Y-122598885D01*
X154395000Y-122598884D01*
X154395000Y-120751057D01*
X154485892Y-120785528D01*
X154605081Y-120800000D01*
X154684919Y-120800000D01*
X154804108Y-120785528D01*
X154895000Y-120751057D01*
X154895000Y-122598885D01*
X155012028Y-122579356D01*
X155245573Y-122499180D01*
X155462746Y-122381651D01*
X155657608Y-122229985D01*
X155824849Y-122048312D01*
X155959906Y-121841592D01*
X156059096Y-121615463D01*
X156119715Y-121376086D01*
X156134788Y-121194178D01*
X156135000Y-121189063D01*
X156135000Y-120390000D01*
X155259168Y-120390000D01*
X155266643Y-120375758D01*
X155305000Y-120220138D01*
X155305000Y-120059862D01*
X155266643Y-119904242D01*
X155259168Y-119890000D01*
X156135000Y-119890000D01*
X156135000Y-119090936D01*
X156134788Y-119085821D01*
X156119715Y-118903913D01*
X156059096Y-118664536D01*
X155959906Y-118438407D01*
X155824849Y-118231687D01*
X155657608Y-118050014D01*
X155462746Y-117898348D01*
X155245573Y-117780819D01*
X155012030Y-117700643D01*
X154895000Y-117681114D01*
X154895000Y-119528942D01*
X154804108Y-119494472D01*
X154684919Y-119480000D01*
X154605081Y-119480000D01*
X154485892Y-119494472D01*
X154395000Y-119528942D01*
X154395000Y-117681114D01*
X154394999Y-117681114D01*
X154277969Y-117700643D01*
X154044426Y-117780819D01*
X153827253Y-117898348D01*
X153632391Y-118050014D01*
X153465150Y-118231687D01*
X153330093Y-118438407D01*
X153230903Y-118664536D01*
X153170284Y-118903913D01*
X153155211Y-119085821D01*
X153155000Y-119090936D01*
X153154999Y-119889999D01*
X146701411Y-119889999D01*
X146693561Y-119765234D01*
X146652220Y-119638000D01*
X147849999Y-119638000D01*
X147849999Y-119169157D01*
X147849851Y-119164899D01*
X147843851Y-119078433D01*
X147795056Y-118870973D01*
X147708971Y-118676011D01*
X147588522Y-118500176D01*
X147437823Y-118349477D01*
X147261988Y-118229028D01*
X147067026Y-118142943D01*
X146859560Y-118094147D01*
X146773127Y-118088148D01*
X146768845Y-118088000D01*
X146300000Y-118088000D01*
X146300000Y-119283689D01*
X146291183Y-119278842D01*
X146132114Y-119238000D01*
X146009106Y-119238000D01*
X145887067Y-119253417D01*
X145800000Y-119287889D01*
X145800000Y-118088000D01*
X145331157Y-118088000D01*
X145326899Y-118088148D01*
X145240433Y-118094148D01*
X145032973Y-118142943D01*
X144838011Y-118229028D01*
X144662176Y-118349477D01*
X144511477Y-118500176D01*
X144391028Y-118676011D01*
X144304943Y-118870973D01*
X144256147Y-119078439D01*
X144250148Y-119164872D01*
X144250000Y-119169155D01*
X144250000Y-119638000D01*
X143002000Y-119638000D01*
X143002000Y-117726000D01*
X143021685Y-117658961D01*
X143074489Y-117613206D01*
X143126000Y-117602000D01*
X150622000Y-117602000D01*
X150622000Y-116964000D01*
X150641685Y-116896961D01*
X150694489Y-116851206D01*
X150746000Y-116840000D01*
X156848000Y-116840000D01*
X156915039Y-116859685D01*
G37*
%TD.AperFunction*%
%TA.AperFunction,Conductor*%
G36*
X145739039Y-66059685D02*
G01*
X145784794Y-66112489D01*
X145796000Y-66164000D01*
X145796000Y-73406000D01*
X163068000Y-73406000D01*
X165616000Y-73406000D01*
X165683039Y-73425685D01*
X165728794Y-73478489D01*
X165740000Y-73530000D01*
X165740000Y-74367500D01*
X167490000Y-74367500D01*
X167490000Y-74867500D01*
X165740000Y-74867500D01*
X165740000Y-76412018D01*
X165740354Y-76418632D01*
X165746400Y-76474871D01*
X165796647Y-76609589D01*
X165882811Y-76724688D01*
X165997910Y-76810852D01*
X166132628Y-76861099D01*
X166188867Y-76867145D01*
X166195482Y-76867500D01*
X167740000Y-76867500D01*
X167740000Y-76051186D01*
X167780156Y-76076993D01*
X167918111Y-76117500D01*
X168061889Y-76117500D01*
X168199844Y-76076993D01*
X168240000Y-76051186D01*
X168240000Y-76867500D01*
X169784518Y-76867500D01*
X169791132Y-76867145D01*
X169847371Y-76861099D01*
X169982089Y-76810852D01*
X170097188Y-76724688D01*
X170183352Y-76609589D01*
X170233599Y-76474871D01*
X170239645Y-76418632D01*
X170240000Y-76412018D01*
X170240000Y-74867500D01*
X168490000Y-74867500D01*
X168490000Y-74367500D01*
X170240000Y-74367500D01*
X170240000Y-73530000D01*
X170259685Y-73462961D01*
X170312489Y-73417206D01*
X170364000Y-73406000D01*
X171326000Y-73406000D01*
X171393039Y-73425685D01*
X171438794Y-73478489D01*
X171450000Y-73530000D01*
X171450000Y-80010000D01*
X172464677Y-81468599D01*
X175514000Y-85852000D01*
X176406000Y-85852000D01*
X176473039Y-85871685D01*
X176518794Y-85924489D01*
X176530000Y-85976000D01*
X176530000Y-91062000D01*
X176510315Y-91129039D01*
X176457511Y-91174794D01*
X176406000Y-91186000D01*
X173876820Y-91186000D01*
X173809781Y-91166315D01*
X173764026Y-91113511D01*
X173754082Y-91044353D01*
X173760638Y-91018667D01*
X173776599Y-90975873D01*
X173782645Y-90919632D01*
X173783000Y-90913018D01*
X173783000Y-90166000D01*
X172777852Y-90166000D01*
X172826559Y-90028953D01*
X172836877Y-89878114D01*
X172806116Y-89730085D01*
X172772910Y-89666000D01*
X173783000Y-89666000D01*
X173783000Y-88918981D01*
X173782645Y-88912367D01*
X173776599Y-88856128D01*
X173726352Y-88721410D01*
X173640188Y-88606311D01*
X173525089Y-88520147D01*
X173390371Y-88469900D01*
X173334132Y-88463854D01*
X173327518Y-88463500D01*
X172533000Y-88463500D01*
X172533000Y-89424316D01*
X172504181Y-89406791D01*
X172358596Y-89366000D01*
X172245378Y-89366000D01*
X172133217Y-89381416D01*
X172033000Y-89424946D01*
X172033000Y-88463500D01*
X171238482Y-88463500D01*
X171231867Y-88463854D01*
X171175628Y-88469900D01*
X171040910Y-88520147D01*
X170925811Y-88606311D01*
X170839647Y-88721410D01*
X170789400Y-88856128D01*
X170783354Y-88912367D01*
X170783000Y-88918981D01*
X170783000Y-89666000D01*
X171788148Y-89666000D01*
X171739441Y-89803047D01*
X171729123Y-89953886D01*
X171759884Y-90101915D01*
X171793090Y-90166000D01*
X170783000Y-90166000D01*
X170783000Y-90913018D01*
X170783354Y-90919632D01*
X170789400Y-90975873D01*
X170805362Y-91018667D01*
X170810346Y-91088358D01*
X170776861Y-91149681D01*
X170715538Y-91183166D01*
X170689180Y-91186000D01*
X170180000Y-91186000D01*
X170180000Y-91570000D01*
X170160315Y-91637039D01*
X170107511Y-91682794D01*
X170056000Y-91694000D01*
X165478000Y-91694000D01*
X165410961Y-91674315D01*
X165365206Y-91621511D01*
X165354000Y-91570000D01*
X165354000Y-90760085D01*
X165373685Y-90693046D01*
X165426489Y-90647291D01*
X165488809Y-90636557D01*
X165544974Y-90641471D01*
X166226046Y-89960399D01*
X166238835Y-90041148D01*
X166296359Y-90154045D01*
X166385955Y-90243641D01*
X166498852Y-90301165D01*
X166579599Y-90313953D01*
X165898526Y-90995025D01*
X165898526Y-90995026D01*
X165971515Y-91046133D01*
X166177673Y-91142266D01*
X166397397Y-91201141D01*
X166624000Y-91220966D01*
X166850602Y-91201141D01*
X167070326Y-91142266D01*
X167276480Y-91046134D01*
X167349472Y-90995025D01*
X166668401Y-90313953D01*
X166749148Y-90301165D01*
X166862045Y-90243641D01*
X166951641Y-90154045D01*
X167009165Y-90041148D01*
X167021953Y-89960400D01*
X167703025Y-90641472D01*
X167754134Y-90568480D01*
X167850266Y-90362326D01*
X167909141Y-90142602D01*
X167928966Y-89915999D01*
X167909141Y-89689397D01*
X167850266Y-89469673D01*
X167754133Y-89263515D01*
X167703025Y-89190526D01*
X167021953Y-89871598D01*
X167009165Y-89790852D01*
X166951641Y-89677955D01*
X166862045Y-89588359D01*
X166749148Y-89530835D01*
X166668400Y-89518046D01*
X167349472Y-88836974D01*
X167349471Y-88836972D01*
X167276484Y-88785866D01*
X167070326Y-88689733D01*
X166850602Y-88630858D01*
X166624000Y-88611033D01*
X166397397Y-88630858D01*
X166177672Y-88689733D01*
X165971516Y-88785865D01*
X165898527Y-88836973D01*
X165898526Y-88836973D01*
X166579600Y-89518046D01*
X166498852Y-89530835D01*
X166385955Y-89588359D01*
X166296359Y-89677955D01*
X166238835Y-89790852D01*
X166226046Y-89871599D01*
X165544973Y-89190526D01*
X165488808Y-89195441D01*
X165420308Y-89181675D01*
X165370125Y-89133060D01*
X165354000Y-89071913D01*
X165354000Y-78740000D01*
X145796000Y-78740000D01*
X145796000Y-82934000D01*
X145776315Y-83001039D01*
X145723511Y-83046794D01*
X145672000Y-83058000D01*
X138300000Y-83058000D01*
X138232961Y-83038315D01*
X138187206Y-82985511D01*
X138176000Y-82934000D01*
X138176000Y-81019518D01*
X138870000Y-81019518D01*
X138870354Y-81026132D01*
X138876400Y-81082371D01*
X138926647Y-81217089D01*
X139012811Y-81332188D01*
X139127910Y-81418352D01*
X139262628Y-81468599D01*
X139318867Y-81474645D01*
X139325482Y-81475000D01*
X140720000Y-81475000D01*
X140720000Y-80135083D01*
X140790857Y-80159877D01*
X140925074Y-80175000D01*
X141014926Y-80175000D01*
X141149143Y-80159877D01*
X141220000Y-80135083D01*
X141220000Y-81475000D01*
X142614518Y-81475000D01*
X142621132Y-81474645D01*
X142677371Y-81468599D01*
X142812089Y-81418352D01*
X142927188Y-81332188D01*
X143013352Y-81217089D01*
X143063599Y-81082371D01*
X143069645Y-81026132D01*
X143070000Y-81019518D01*
X143070000Y-79625000D01*
X141730083Y-79625000D01*
X141754877Y-79554143D01*
X141775062Y-79375000D01*
X141754877Y-79195857D01*
X141730083Y-79125000D01*
X143070000Y-79125000D01*
X143070000Y-77730481D01*
X143069645Y-77723867D01*
X143063599Y-77667628D01*
X143013352Y-77532910D01*
X142927188Y-77417811D01*
X142812089Y-77331647D01*
X142677371Y-77281400D01*
X142621132Y-77275354D01*
X142614518Y-77275000D01*
X141220000Y-77275000D01*
X141220000Y-78614916D01*
X141149143Y-78590123D01*
X141014926Y-78575000D01*
X140925074Y-78575000D01*
X140790857Y-78590123D01*
X140720000Y-78614916D01*
X140720000Y-77275000D01*
X139325482Y-77275000D01*
X139318867Y-77275354D01*
X139262628Y-77281400D01*
X139127910Y-77331647D01*
X139012811Y-77417811D01*
X138926647Y-77532910D01*
X138876400Y-77667628D01*
X138870354Y-77723867D01*
X138870000Y-77730481D01*
X138870000Y-79125000D01*
X140209917Y-79125000D01*
X140185123Y-79195857D01*
X140164938Y-79375000D01*
X140185123Y-79554143D01*
X140209917Y-79625000D01*
X138870000Y-79625000D01*
X138870000Y-81019518D01*
X138176000Y-81019518D01*
X138176000Y-76978965D01*
X154710000Y-76978965D01*
X154710354Y-76985579D01*
X154716400Y-77041818D01*
X154766647Y-77176536D01*
X154852811Y-77291635D01*
X154967910Y-77377799D01*
X155102628Y-77428046D01*
X155158867Y-77434092D01*
X155165482Y-77434447D01*
X155960000Y-77434447D01*
X155960000Y-76369948D01*
X156067685Y-76419127D01*
X156174237Y-76434447D01*
X156245763Y-76434447D01*
X156352315Y-76419127D01*
X156460000Y-76369948D01*
X156460000Y-77434447D01*
X157254518Y-77434447D01*
X157261132Y-77434092D01*
X157317371Y-77428046D01*
X157452089Y-77377799D01*
X157567188Y-77291635D01*
X157653352Y-77176536D01*
X157703599Y-77041818D01*
X157709645Y-76985579D01*
X157710000Y-76978965D01*
X157710000Y-76184447D01*
X156643686Y-76184447D01*
X156669493Y-76144291D01*
X156710000Y-76006336D01*
X156710000Y-75862558D01*
X156669493Y-75724603D01*
X156643686Y-75684447D01*
X157709999Y-75684447D01*
X157710000Y-74889928D01*
X157709645Y-74883314D01*
X157703599Y-74827075D01*
X157653352Y-74692357D01*
X157567188Y-74577258D01*
X157452089Y-74491094D01*
X157317371Y-74440847D01*
X157261132Y-74434801D01*
X157254518Y-74434447D01*
X156460000Y-74434447D01*
X156460000Y-75498945D01*
X156352315Y-75449767D01*
X156245763Y-75434447D01*
X156174237Y-75434447D01*
X156067685Y-75449767D01*
X155960000Y-75498945D01*
X155960000Y-74434447D01*
X155165482Y-74434447D01*
X155158867Y-74434801D01*
X155102628Y-74440847D01*
X154967910Y-74491094D01*
X154852811Y-74577258D01*
X154766647Y-74692357D01*
X154716400Y-74827075D01*
X154710354Y-74883314D01*
X154710000Y-74889928D01*
X154710000Y-75684447D01*
X155776314Y-75684447D01*
X155750507Y-75724603D01*
X155710000Y-75862558D01*
X155710000Y-76006336D01*
X155750507Y-76144291D01*
X155776314Y-76184447D01*
X154710000Y-76184447D01*
X154710000Y-76978965D01*
X138176000Y-76978965D01*
X138176000Y-71494518D01*
X138870000Y-71494518D01*
X138870354Y-71501132D01*
X138876400Y-71557371D01*
X138926647Y-71692089D01*
X139012811Y-71807188D01*
X139127910Y-71893352D01*
X139262628Y-71943599D01*
X139318867Y-71949645D01*
X139325482Y-71950000D01*
X140720000Y-71950000D01*
X140720000Y-70610083D01*
X140790857Y-70634877D01*
X140925074Y-70650000D01*
X141014926Y-70650000D01*
X141149143Y-70634877D01*
X141220000Y-70610083D01*
X141220000Y-71950000D01*
X142614518Y-71950000D01*
X142621132Y-71949645D01*
X142677371Y-71943599D01*
X142812089Y-71893352D01*
X142927188Y-71807188D01*
X143013352Y-71692089D01*
X143063599Y-71557371D01*
X143069645Y-71501132D01*
X143070000Y-71494518D01*
X143070000Y-70100000D01*
X141730083Y-70100000D01*
X141754877Y-70029143D01*
X141775062Y-69850000D01*
X141754877Y-69670857D01*
X141730083Y-69600000D01*
X143070000Y-69600000D01*
X143070000Y-68205481D01*
X143069645Y-68198867D01*
X143063599Y-68142628D01*
X143013352Y-68007910D01*
X142927188Y-67892811D01*
X142812089Y-67806647D01*
X142677371Y-67756400D01*
X142621132Y-67750354D01*
X142614518Y-67750000D01*
X141220000Y-67750000D01*
X141220000Y-69089916D01*
X141149143Y-69065123D01*
X141014926Y-69050000D01*
X140925074Y-69050000D01*
X140790857Y-69065123D01*
X140720000Y-69089916D01*
X140720000Y-67750000D01*
X139325482Y-67750000D01*
X139318867Y-67750354D01*
X139262628Y-67756400D01*
X139127910Y-67806647D01*
X139012811Y-67892811D01*
X138926647Y-68007910D01*
X138876400Y-68142628D01*
X138870354Y-68198867D01*
X138870000Y-68205481D01*
X138870000Y-69600000D01*
X140209917Y-69600000D01*
X140185123Y-69670857D01*
X140164938Y-69850000D01*
X140185123Y-70029143D01*
X140209917Y-70100000D01*
X138870000Y-70100000D01*
X138870000Y-71494518D01*
X138176000Y-71494518D01*
X138176000Y-66164000D01*
X138195685Y-66096961D01*
X138248489Y-66051206D01*
X138300000Y-66040000D01*
X145672000Y-66040000D01*
X145739039Y-66059685D01*
G37*
%TD.AperFunction*%
%TA.AperFunction,Conductor*%
G36*
X165846952Y-93745685D02*
G01*
X165892707Y-93798489D01*
X165903441Y-93860808D01*
X165898526Y-93916973D01*
X166579600Y-94598046D01*
X166498852Y-94610835D01*
X166385955Y-94668359D01*
X166296359Y-94757955D01*
X166238835Y-94870852D01*
X166226046Y-94951598D01*
X165544972Y-94270526D01*
X165488808Y-94275441D01*
X165420308Y-94261675D01*
X165370125Y-94213060D01*
X165354000Y-94151913D01*
X165354000Y-93850000D01*
X165373685Y-93782961D01*
X165426489Y-93737206D01*
X165478000Y-93726000D01*
X165779913Y-93726000D01*
X165846952Y-93745685D01*
G37*
%TD.AperFunction*%
%TA.AperFunction,Conductor*%
G36*
X171219739Y-93745685D02*
G01*
X171265494Y-93798489D01*
X171275438Y-93867647D01*
X171246413Y-93931203D01*
X171236683Y-93941229D01*
X171163201Y-94008873D01*
X171015348Y-94198835D01*
X170900780Y-94410539D01*
X170822619Y-94638207D01*
X170804633Y-94745999D01*
X170804634Y-94746000D01*
X171788148Y-94746000D01*
X171739441Y-94883047D01*
X171729123Y-95033886D01*
X171759884Y-95181915D01*
X171793090Y-95246000D01*
X170804633Y-95246000D01*
X170822619Y-95353792D01*
X170900780Y-95581460D01*
X171015348Y-95793164D01*
X171163201Y-95983126D01*
X171340292Y-96146151D01*
X171541819Y-96277815D01*
X171762255Y-96374506D01*
X171995606Y-96433599D01*
X172033000Y-96436697D01*
X172033000Y-95487683D01*
X172061819Y-95505209D01*
X172207404Y-95546000D01*
X172320622Y-95546000D01*
X172432783Y-95530584D01*
X172533000Y-95487053D01*
X172533000Y-96436696D01*
X172570393Y-96433599D01*
X172803744Y-96374506D01*
X173024180Y-96277815D01*
X173225707Y-96146151D01*
X173402798Y-95983126D01*
X173550651Y-95793164D01*
X173665219Y-95581460D01*
X173743380Y-95353792D01*
X173761367Y-95246000D01*
X172777852Y-95246000D01*
X172826559Y-95108953D01*
X172836877Y-94958114D01*
X172806116Y-94810085D01*
X172772910Y-94746000D01*
X173761366Y-94746000D01*
X173761366Y-94745999D01*
X173743380Y-94638207D01*
X173665219Y-94410539D01*
X173550651Y-94198835D01*
X173402798Y-94008873D01*
X173329317Y-93941229D01*
X173293326Y-93881342D01*
X173295427Y-93811504D01*
X173334951Y-93753888D01*
X173399351Y-93726787D01*
X173413300Y-93726000D01*
X175644000Y-93726000D01*
X175711039Y-93745685D01*
X175756794Y-93798489D01*
X175768000Y-93850000D01*
X175768000Y-99018666D01*
X175748315Y-99085705D01*
X175743200Y-99093066D01*
X171196000Y-105156000D01*
X171196000Y-105843000D01*
X171176315Y-105910039D01*
X171123511Y-105955794D01*
X171072000Y-105967000D01*
X170042448Y-105967000D01*
X170040326Y-105967147D01*
X170040305Y-105967148D01*
X169951901Y-105973284D01*
X169739834Y-106023161D01*
X169540545Y-106111156D01*
X169360818Y-106234273D01*
X169206773Y-106388318D01*
X169083656Y-106568045D01*
X168995661Y-106767334D01*
X168945784Y-106979401D01*
X168939648Y-107067805D01*
X168939647Y-107067826D01*
X168939500Y-107069948D01*
X168939500Y-108965052D01*
X168939647Y-108967174D01*
X168939648Y-108967194D01*
X168945784Y-109055598D01*
X168995661Y-109267665D01*
X169083656Y-109466954D01*
X169206773Y-109646681D01*
X169360818Y-109800726D01*
X169540545Y-109923843D01*
X169739834Y-110011838D01*
X169951901Y-110061714D01*
X169951901Y-110061715D01*
X170042448Y-110068000D01*
X170044588Y-110068000D01*
X171072000Y-110068000D01*
X171139039Y-110087685D01*
X171184794Y-110140489D01*
X171196000Y-110192000D01*
X171196000Y-115954000D01*
X171176315Y-116021039D01*
X171123511Y-116066794D01*
X171072000Y-116078000D01*
X165478000Y-116078000D01*
X165410961Y-116058315D01*
X165365206Y-116005511D01*
X165354000Y-115954000D01*
X165354000Y-114512018D01*
X165740000Y-114512018D01*
X165740354Y-114518632D01*
X165746400Y-114574871D01*
X165796647Y-114709589D01*
X165882811Y-114824688D01*
X165997910Y-114910852D01*
X166132628Y-114961099D01*
X166188867Y-114967145D01*
X166195482Y-114967500D01*
X167740000Y-114967500D01*
X167740000Y-114151186D01*
X167780156Y-114176993D01*
X167918111Y-114217500D01*
X168061889Y-114217500D01*
X168199844Y-114176993D01*
X168240000Y-114151186D01*
X168240000Y-114967500D01*
X169784518Y-114967500D01*
X169791132Y-114967145D01*
X169847371Y-114961099D01*
X169982089Y-114910852D01*
X170097188Y-114824688D01*
X170183352Y-114709589D01*
X170233599Y-114574871D01*
X170239645Y-114518632D01*
X170240000Y-114512018D01*
X170240000Y-112967500D01*
X168490000Y-112967500D01*
X168490000Y-112467500D01*
X170240000Y-112467500D01*
X170240000Y-110922981D01*
X170239645Y-110916367D01*
X170233599Y-110860128D01*
X170183352Y-110725410D01*
X170097188Y-110610311D01*
X169982089Y-110524147D01*
X169847371Y-110473900D01*
X169791132Y-110467854D01*
X169784518Y-110467500D01*
X168240000Y-110467500D01*
X168240000Y-111283813D01*
X168199844Y-111258007D01*
X168061889Y-111217500D01*
X167918111Y-111217500D01*
X167780156Y-111258007D01*
X167740000Y-111283813D01*
X167740000Y-110467500D01*
X166195482Y-110467500D01*
X166188867Y-110467854D01*
X166132628Y-110473900D01*
X165997910Y-110524147D01*
X165882811Y-110610311D01*
X165796647Y-110725410D01*
X165746400Y-110860128D01*
X165740354Y-110916367D01*
X165740000Y-110922981D01*
X165740000Y-112467500D01*
X167490000Y-112467500D01*
X167490000Y-112967500D01*
X165740000Y-112967500D01*
X165740000Y-114512018D01*
X165354000Y-114512018D01*
X165354000Y-103174460D01*
X165373685Y-103107421D01*
X165426489Y-103061666D01*
X165495647Y-103051722D01*
X165552312Y-103075194D01*
X165581911Y-103097352D01*
X165716628Y-103147599D01*
X165772867Y-103153645D01*
X165779482Y-103154000D01*
X166374000Y-103154000D01*
X166373999Y-102169685D01*
X166385955Y-102181641D01*
X166498852Y-102239165D01*
X166592519Y-102254000D01*
X166655481Y-102254000D01*
X166749148Y-102239165D01*
X166862045Y-102181641D01*
X166874000Y-102169685D01*
X166874000Y-103154000D01*
X167468518Y-103154000D01*
X167475132Y-103153645D01*
X167531371Y-103147599D01*
X167666089Y-103097352D01*
X167781188Y-103011188D01*
X167867352Y-102896089D01*
X167917599Y-102761371D01*
X167923645Y-102705132D01*
X167924000Y-102698518D01*
X167924000Y-102104000D01*
X166939686Y-102104000D01*
X166951641Y-102092045D01*
X167009165Y-101979148D01*
X167028986Y-101854000D01*
X167009165Y-101728852D01*
X166951641Y-101615955D01*
X166939686Y-101604000D01*
X167924000Y-101604000D01*
X167924000Y-101009481D01*
X167923645Y-101002867D01*
X167917599Y-100946628D01*
X167867352Y-100811910D01*
X167781188Y-100696811D01*
X167666089Y-100610647D01*
X167531371Y-100560400D01*
X167475132Y-100554354D01*
X167468518Y-100554000D01*
X166874000Y-100554000D01*
X166874000Y-101538314D01*
X166862045Y-101526359D01*
X166749148Y-101468835D01*
X166655481Y-101454000D01*
X166592519Y-101454000D01*
X166498852Y-101468835D01*
X166385955Y-101526359D01*
X166373999Y-101538314D01*
X166374000Y-100554000D01*
X165779482Y-100554000D01*
X165772867Y-100554354D01*
X165716628Y-100560400D01*
X165581910Y-100610647D01*
X165552311Y-100632806D01*
X165486846Y-100657223D01*
X165418573Y-100642371D01*
X165369168Y-100592966D01*
X165354000Y-100533539D01*
X165354000Y-95840085D01*
X165373685Y-95773046D01*
X165426489Y-95727291D01*
X165488809Y-95716557D01*
X165544974Y-95721471D01*
X166226045Y-95040399D01*
X166238835Y-95121148D01*
X166296359Y-95234045D01*
X166385955Y-95323641D01*
X166498852Y-95381165D01*
X166579599Y-95393953D01*
X165898526Y-96075025D01*
X165898526Y-96075026D01*
X165971515Y-96126133D01*
X166177673Y-96222266D01*
X166397397Y-96281141D01*
X166624000Y-96300966D01*
X166850602Y-96281141D01*
X167070326Y-96222266D01*
X167276480Y-96126134D01*
X167349472Y-96075025D01*
X166668401Y-95393953D01*
X166749148Y-95381165D01*
X166862045Y-95323641D01*
X166951641Y-95234045D01*
X167009165Y-95121148D01*
X167021953Y-95040400D01*
X167703025Y-95721472D01*
X167754134Y-95648480D01*
X167850266Y-95442326D01*
X167909141Y-95222602D01*
X167928966Y-94996000D01*
X167909141Y-94769397D01*
X167850266Y-94549673D01*
X167754133Y-94343515D01*
X167703025Y-94270526D01*
X167021953Y-94951598D01*
X167009165Y-94870852D01*
X166951641Y-94757955D01*
X166862045Y-94668359D01*
X166749148Y-94610835D01*
X166668400Y-94598046D01*
X167349472Y-93916973D01*
X167344558Y-93860808D01*
X167358324Y-93792308D01*
X167406939Y-93742125D01*
X167468086Y-93726000D01*
X171152700Y-93726000D01*
X171219739Y-93745685D01*
G37*
%TD.AperFunction*%
%TA.AperFunction,Conductor*%
G36*
X128721039Y-66059685D02*
G01*
X128766794Y-66112489D01*
X128778000Y-66164000D01*
X128778000Y-73282000D01*
X128758315Y-73349039D01*
X128705511Y-73394794D01*
X128654000Y-73406000D01*
X118364000Y-73406000D01*
X118364000Y-77854000D01*
X118344315Y-77921039D01*
X118291511Y-77966794D01*
X118240000Y-77978000D01*
X116332000Y-77978000D01*
X113792000Y-77978000D01*
X107368899Y-77978000D01*
X107318813Y-77967434D01*
X107275165Y-77948161D01*
X107063098Y-77898284D01*
X106974694Y-77892148D01*
X106974674Y-77892147D01*
X106972552Y-77892000D01*
X106042000Y-77892000D01*
X105974961Y-77872315D01*
X105929206Y-77819511D01*
X105918000Y-77768000D01*
X105918000Y-77037018D01*
X106775000Y-77037018D01*
X106775354Y-77043632D01*
X106781400Y-77099871D01*
X106831647Y-77234589D01*
X106917811Y-77349688D01*
X107032910Y-77435852D01*
X107167628Y-77486099D01*
X107223867Y-77492145D01*
X107230482Y-77492500D01*
X108775000Y-77492500D01*
X108775000Y-76676186D01*
X108815156Y-76701993D01*
X108953111Y-76742500D01*
X109096889Y-76742500D01*
X109234844Y-76701993D01*
X109275000Y-76676186D01*
X109275000Y-77492500D01*
X110819518Y-77492500D01*
X110826132Y-77492145D01*
X110882371Y-77486099D01*
X111017089Y-77435852D01*
X111132188Y-77349688D01*
X111218352Y-77234589D01*
X111268599Y-77099871D01*
X111274645Y-77043632D01*
X111275000Y-77037018D01*
X111275000Y-75492500D01*
X109525000Y-75492500D01*
X109525000Y-74992500D01*
X111275000Y-74992500D01*
X111275000Y-73447981D01*
X111274645Y-73441367D01*
X111268599Y-73385128D01*
X111218352Y-73250410D01*
X111132188Y-73135311D01*
X111017089Y-73049147D01*
X110882371Y-72998900D01*
X110826132Y-72992854D01*
X110819518Y-72992500D01*
X109275000Y-72992500D01*
X109275000Y-73808813D01*
X109234844Y-73783007D01*
X109096889Y-73742500D01*
X108953111Y-73742500D01*
X108815156Y-73783007D01*
X108775000Y-73808813D01*
X108775000Y-72992500D01*
X107230482Y-72992500D01*
X107223867Y-72992854D01*
X107167628Y-72998900D01*
X107032910Y-73049147D01*
X106917811Y-73135311D01*
X106831647Y-73250410D01*
X106781400Y-73385128D01*
X106775354Y-73441367D01*
X106775000Y-73447981D01*
X106775000Y-74992500D01*
X108525000Y-74992500D01*
X108525000Y-75492500D01*
X106775000Y-75492500D01*
X106775000Y-77037018D01*
X105918000Y-77037018D01*
X105918000Y-72219951D01*
X105937685Y-72152912D01*
X105990489Y-72107157D01*
X105995919Y-72104832D01*
X111007999Y-70100000D01*
X123642193Y-70100000D01*
X123644409Y-70132399D01*
X123645559Y-70140761D01*
X123702285Y-70413740D01*
X123704570Y-70421897D01*
X123797935Y-70684600D01*
X123801305Y-70692359D01*
X123929577Y-70939913D01*
X123933973Y-70947141D01*
X124094752Y-71174913D01*
X124100095Y-71181481D01*
X124290398Y-71385246D01*
X124296573Y-71391014D01*
X124512850Y-71566967D01*
X124519768Y-71571851D01*
X124757987Y-71716715D01*
X124765489Y-71720602D01*
X125021228Y-71831686D01*
X125029181Y-71834512D01*
X125297669Y-71909739D01*
X125305938Y-71911457D01*
X125479999Y-71935380D01*
X125480000Y-71935380D01*
X125480000Y-70610083D01*
X125550857Y-70634877D01*
X125685074Y-70650000D01*
X125774926Y-70650000D01*
X125909143Y-70634877D01*
X125980000Y-70610083D01*
X125980000Y-71935380D01*
X126154061Y-71911457D01*
X126162330Y-71909739D01*
X126430818Y-71834512D01*
X126438771Y-71831686D01*
X126694510Y-71720602D01*
X126702012Y-71716715D01*
X126940231Y-71571851D01*
X126947149Y-71566967D01*
X127163426Y-71391014D01*
X127169601Y-71385246D01*
X127359904Y-71181481D01*
X127365247Y-71174913D01*
X127526026Y-70947141D01*
X127530422Y-70939913D01*
X127658694Y-70692359D01*
X127662064Y-70684600D01*
X127755429Y-70421897D01*
X127757714Y-70413740D01*
X127814440Y-70140761D01*
X127815590Y-70132399D01*
X127817807Y-70100000D01*
X126490083Y-70100000D01*
X126514877Y-70029143D01*
X126535062Y-69850000D01*
X126514877Y-69670857D01*
X126490083Y-69600000D01*
X127817807Y-69600000D01*
X127817806Y-69599999D01*
X127815590Y-69567600D01*
X127814440Y-69559238D01*
X127757714Y-69286259D01*
X127755429Y-69278102D01*
X127662064Y-69015399D01*
X127658694Y-69007640D01*
X127530422Y-68760086D01*
X127526026Y-68752858D01*
X127365247Y-68525086D01*
X127359904Y-68518518D01*
X127169601Y-68314753D01*
X127163426Y-68308985D01*
X126947149Y-68133032D01*
X126940231Y-68128148D01*
X126702012Y-67983284D01*
X126694510Y-67979397D01*
X126438771Y-67868313D01*
X126430818Y-67865487D01*
X126162335Y-67790261D01*
X126154057Y-67788541D01*
X125980000Y-67764618D01*
X125979999Y-69089916D01*
X125909143Y-69065123D01*
X125774926Y-69050000D01*
X125685074Y-69050000D01*
X125550857Y-69065123D01*
X125480000Y-69089916D01*
X125480000Y-67764618D01*
X125305942Y-67788541D01*
X125297664Y-67790261D01*
X125029181Y-67865487D01*
X125021228Y-67868313D01*
X124765489Y-67979397D01*
X124757987Y-67983284D01*
X124519768Y-68128148D01*
X124512850Y-68133032D01*
X124296573Y-68308985D01*
X124290398Y-68314753D01*
X124100095Y-68518518D01*
X124094752Y-68525086D01*
X123933973Y-68752858D01*
X123929577Y-68760086D01*
X123801305Y-69007640D01*
X123797935Y-69015399D01*
X123704570Y-69278102D01*
X123702285Y-69286259D01*
X123645559Y-69559238D01*
X123644409Y-69567600D01*
X123642193Y-69599999D01*
X123642193Y-69600000D01*
X124969917Y-69600000D01*
X124945123Y-69670857D01*
X124924938Y-69850000D01*
X124945123Y-70029143D01*
X124969917Y-70100000D01*
X123642193Y-70100000D01*
X111007999Y-70100000D01*
X121135827Y-66048869D01*
X121181880Y-66040000D01*
X128654000Y-66040000D01*
X128721039Y-66059685D01*
G37*
%TD.AperFunction*%
M02*
