%TF.GenerationSoftware,KiCad,Pcbnew,7.0.2-6a45011f42~172~ubuntu22.04.1*%
%TF.CreationDate,2023-04-19T21:38:03+05:30*%
%TF.ProjectId,UPS_for_router,5550535f-666f-4725-9f72-6f757465722e,2*%
%TF.SameCoordinates,Original*%
%TF.FileFunction,Soldermask,Top*%
%TF.FilePolarity,Negative*%
%FSLAX46Y46*%
G04 Gerber Fmt 4.6, Leading zero omitted, Abs format (unit mm)*
G04 Created by KiCad (PCBNEW 7.0.2-6a45011f42~172~ubuntu22.04.1) date 2023-04-19 21:38:03*
%MOMM*%
%LPD*%
G01*
G04 APERTURE LIST*
G04 Aperture macros list*
%AMRoundRect*
0 Rectangle with rounded corners*
0 $1 Rounding radius*
0 $2 $3 $4 $5 $6 $7 $8 $9 X,Y pos of 4 corners*
0 Add a 4 corners polygon primitive as box body*
4,1,4,$2,$3,$4,$5,$6,$7,$8,$9,$2,$3,0*
0 Add four circle primitives for the rounded corners*
1,1,$1+$1,$2,$3*
1,1,$1+$1,$4,$5*
1,1,$1+$1,$6,$7*
1,1,$1+$1,$8,$9*
0 Add four rect primitives between the rounded corners*
20,1,$1+$1,$2,$3,$4,$5,0*
20,1,$1+$1,$4,$5,$6,$7,0*
20,1,$1+$1,$6,$7,$8,$9,0*
20,1,$1+$1,$8,$9,$2,$3,0*%
G04 Aperture macros list end*
%ADD10R,3.200000X3.200000*%
%ADD11O,3.200000X3.200000*%
%ADD12R,3.500000X3.500000*%
%ADD13RoundRect,0.750000X-0.750000X-1.000000X0.750000X-1.000000X0.750000X1.000000X-0.750000X1.000000X0*%
%ADD14RoundRect,0.875000X-0.875000X-0.875000X0.875000X-0.875000X0.875000X0.875000X-0.875000X0.875000X0*%
%ADD15RoundRect,0.750000X0.750000X1.000000X-0.750000X1.000000X-0.750000X-1.000000X0.750000X-1.000000X0*%
%ADD16RoundRect,0.875000X0.875000X0.875000X-0.875000X0.875000X-0.875000X-0.875000X0.875000X-0.875000X0*%
%ADD17R,1.600000X1.600000*%
%ADD18C,1.600000*%
%ADD19C,3.200000*%
%ADD20R,1.980000X3.960000*%
%ADD21O,1.980000X3.960000*%
%ADD22R,2.000000X2.000000*%
%ADD23C,2.000000*%
%ADD24R,3.960000X1.980000*%
%ADD25O,3.960000X1.980000*%
%ADD26RoundRect,0.650000X0.650000X-0.650000X0.650000X0.650000X-0.650000X0.650000X-0.650000X-0.650000X0*%
%ADD27C,2.600000*%
%ADD28R,1.524000X1.524000*%
%ADD29R,2.000000X1.905000*%
%ADD30O,2.000000X1.905000*%
G04 APERTURE END LIST*
D10*
X140970000Y-79375000D03*
D11*
X125730000Y-79375000D03*
D12*
X109025000Y-90482500D03*
D13*
X103025000Y-90482500D03*
D14*
X106025000Y-95182500D03*
D10*
X140970000Y-69850000D03*
D11*
X125730000Y-69850000D03*
D12*
X167990000Y-112717500D03*
D15*
X173990000Y-112717500D03*
D16*
X170990000Y-108017500D03*
D17*
X166624000Y-101854000D03*
D18*
X164124000Y-101854000D03*
D19*
X98472000Y-123524000D03*
D12*
X109025000Y-75242500D03*
D13*
X103025000Y-75242500D03*
D14*
X106025000Y-79942500D03*
D20*
X159645000Y-120140000D03*
D21*
X154645000Y-120140000D03*
D18*
X166624000Y-94996000D03*
X164124000Y-94996000D03*
D22*
X156210000Y-75934447D03*
D23*
X156210000Y-70934447D03*
D19*
X178388000Y-123524000D03*
X178388000Y-63420000D03*
D24*
X101870000Y-111280000D03*
D25*
X101870000Y-106280000D03*
D26*
X146050000Y-119888000D03*
D27*
X146050000Y-114808000D03*
D12*
X167990000Y-74617500D03*
D15*
X173990000Y-74617500D03*
D16*
X170990000Y-69917500D03*
D19*
X98472000Y-63420000D03*
D28*
X155205300Y-106488100D03*
X155205300Y-89317700D03*
X115733700Y-89317700D03*
X115733700Y-106462700D03*
D18*
X166624000Y-89916000D03*
X164124000Y-89916000D03*
D29*
X172283000Y-89916000D03*
D30*
X172283000Y-92456000D03*
X172283000Y-94996000D03*
M02*
