M48
; DRILL file {KiCad 6.0.11-2627ca5db0~126~ubuntu20.04.1} date Sat Feb 25 22:06:45 2023
; FORMAT={-:-/ absolute / metric / decimal}
; #@! TF.CreationDate,2023-02-25T22:06:45+05:30
; #@! TF.GenerationSoftware,Kicad,Pcbnew,6.0.11-2627ca5db0~126~ubuntu20.04.1
; #@! TF.FileFunction,MixedPlating,1,2
FMAT,2
METRIC
; #@! TA.AperFunction,Plated,PTH,ViaDrill
T1C0.400
; #@! TA.AperFunction,Plated,PTH,ComponentDrill
T2C0.800
; #@! TA.AperFunction,Plated,PTH,ComponentDrill
T3C1.000
; #@! TA.AperFunction,Plated,PTH,ComponentDrill
T4C1.100
; #@! TA.AperFunction,Plated,PTH,ComponentDrill
T5C1.300
; #@! TA.AperFunction,Plated,PTH,ComponentDrill
T6C1.320
; #@! TA.AperFunction,NonPlated,NPTH,ComponentDrill
T7C3.200
%
G90
G05
T1
X112.903Y-83.058
X115.443Y-77.343
T2
X164.124Y-89.916
X164.124Y-94.996
X164.124Y-101.854
X166.624Y-89.916
X166.624Y-94.996
X166.624Y-101.854
T3
X115.734Y-89.318
X115.734Y-106.463
X155.205Y-89.318
X155.205Y-106.488
X156.21Y-70.934
X156.21Y-75.934
T4
X144.7Y-69.342
X144.7Y-79.502
X172.283Y-89.916
X172.283Y-92.456
X172.283Y-94.996
T5
X124.71Y-68.422
X124.71Y-80.422
X136.91Y-68.422
X136.91Y-80.422
X138.91Y-74.422
X146.05Y-114.808
X146.05Y-119.888
T6
X101.87Y-106.28
X101.87Y-111.28
X154.645Y-120.14
X159.645Y-120.14
T7
X98.472Y-63.42
X98.472Y-123.524
X178.388Y-63.42
X178.388Y-123.524
T3
G00X103.025Y-74.242
M15
G01X103.025Y-76.242
M16
G05
G00X103.025Y-89.483
M15
G01X103.025Y-91.483
M16
G05
G00X105.025Y-79.942
M15
G01X107.025Y-79.942
M16
G05
G00X105.025Y-95.182
M15
G01X107.025Y-95.182
M16
G05
G00X109.025Y-74.242
M15
G01X109.025Y-76.242
M16
G05
G00X109.025Y-89.483
M15
G01X109.025Y-91.483
M16
G05
G00X167.99Y-75.617
M15
G01X167.99Y-73.617
M16
G05
G00X167.99Y-113.718
M15
G01X167.99Y-111.718
M16
G05
G00X171.99Y-69.917
M15
G01X169.99Y-69.917
M16
G05
G00X171.99Y-108.017
M15
G01X169.99Y-108.017
M16
G05
G00X173.99Y-75.617
M15
G01X173.99Y-73.617
M16
G05
G00X173.99Y-113.718
M15
G01X173.99Y-111.718
M16
G05
T0
M30
